<?xml version="1.0" encoding="utf-8" standalone="no"?>
<!DOCTYPE svg PUBLIC "-//W3C//DTD SVG 1.1//EN"
  "http://www.w3.org/Graphics/SVG/1.1/DTD/svg11.dtd">
<svg xmlns:xlink="http://www.w3.org/1999/xlink" width="576pt" height="360pt" viewBox="0 0 576 360" xmlns="http://www.w3.org/2000/svg" version="1.1">
 <metadata>
  <rdf:RDF xmlns:dc="http://purl.org/dc/elements/1.1/" xmlns:cc="http://creativecommons.org/ns#" xmlns:rdf="http://www.w3.org/1999/02/22-rdf-syntax-ns#">
   <cc:Work>
    <dc:type rdf:resource="http://purl.org/dc/dcmitype/StillImage"/>
    <dc:date>2023-02-22T17:57:52.587964</dc:date>
    <dc:format>image/svg+xml</dc:format>
    <dc:creator>
     <cc:Agent>
      <dc:title>Matplotlib v3.7.0, https://matplotlib.org/</dc:title>
     </cc:Agent>
    </dc:creator>
   </cc:Work>
  </rdf:RDF>
 </metadata>
 <defs>
  <style type="text/css">*{stroke-linejoin: round; stroke-linecap: butt}</style>
 </defs>
 <g id="figure_1">
  <g id="patch_1">
   <path d="M 0 360 
L 576 360 
L 576 0 
L 0 0 
z
" style="fill: #ffffff"/>
  </g>
  <g id="axes_1">
   <g id="patch_2">
    <path d="M 63.45 320.71 
L 563.04 320.71 
L 563.04 12.96 
L 63.45 12.96 
z
" style="fill: #ffffff"/>
   </g>
   <g id="matplotlib.axis_1">
    <g id="xtick_1">
     <g id="line2d_1">
      <defs>
       <path id="m34736aad98" d="M 0 0 
L 0 6 
" style="stroke: #262626; stroke-width: 1.25"/>
      </defs>
      <g>
       <use xlink:href="#m34736aad98" x="183.481364" y="320.71" style="fill: #262626; stroke: #262626; stroke-width: 1.25"/>
      </g>
     </g>
     <g id="text_1">
      <!-- 用能成本 -->
      <g style="fill: #262626" transform="translate(147.481364 344.55375) scale(0.18 -0.18)">
       <defs>
        <path id="SimSun-7528" d="M 3400 3150 
L 3400 1825 
L 5075 1825 
L 5075 3150 
L 3400 3150 
z
M 4075 100 
Q 4725 50 4900 62 
Q 5075 75 5075 400 
L 5075 1675 
L 3400 1675 
Q 3400 75 3425 -225 
L 3050 -400 
Q 3075 1025 3075 1675 
L 1425 1675 
Q 1250 350 375 -600 
L 300 -550 
Q 775 225 950 1025 
Q 1125 1825 1125 3225 
Q 1125 4625 1100 5075 
L 1475 4825 
L 5050 4825 
L 5225 5100 
L 5625 4800 
L 5425 4600 
L 5425 225 
Q 5450 -400 4875 -575 
Q 4825 -150 4075 -25 
L 4075 100 
z
M 1475 4675 
L 1475 3300 
L 3075 3300 
L 3075 4675 
L 1475 4675 
z
M 3400 4675 
L 3400 3300 
L 5075 3300 
L 5075 4675 
L 3400 4675 
z
M 1475 3150 
Q 1450 2100 1425 1825 
L 3075 1825 
L 3075 3150 
L 1475 3150 
z
" transform="scale(0.015625)"/>
        <path id="SimSun-80fd" d="M 1775 5250 
L 2225 4875 
Q 1950 4800 1550 4375 
Q 1150 3925 900 3700 
L 2800 3750 
Q 2575 4175 2375 4400 
L 2425 4475 
Q 2850 4225 3075 4012 
Q 3300 3800 3287 3612 
Q 3275 3425 3175 3337 
Q 3075 3250 3025 3250 
Q 2975 3250 2975 3325 
Q 2925 3450 2850 3650 
Q 2425 3600 1700 3525 
Q 975 3450 750 3275 
L 500 3750 
Q 750 3750 1175 4275 
Q 1600 4800 1775 5250 
z
M 825 -600 
Q 850 -75 850 1325 
Q 850 2725 825 3100 
L 1200 2900 
L 2475 2900 
L 2675 3150 
L 3050 2825 
L 2850 2650 
L 2850 100 
Q 2900 -375 2350 -600 
Q 2325 -275 1700 -100 
L 1700 0 
Q 2175 -50 2350 -50 
Q 2525 -50 2525 225 
L 2525 1100 
L 1200 1100 
L 1200 -400 
L 825 -600 
z
M 1200 2750 
L 1200 2125 
L 2525 2125 
L 2525 2750 
L 1200 2750 
z
M 1200 1975 
L 1200 1250 
L 2525 1250 
L 2525 1975 
L 1200 1975 
z
M 3700 3075 
Q 3700 4825 3675 5100 
L 4250 4850 
L 4025 4650 
L 4025 3775 
Q 4800 4175 5175 4675 
L 5550 4250 
L 5325 4225 
Q 4600 3850 4025 3650 
L 4025 3175 
Q 4025 2900 4400 2900 
L 5250 2900 
Q 5500 2925 5525 3162 
Q 5550 3400 5550 3800 
L 5650 3800 
Q 5675 3500 5725 3262 
Q 5775 3025 6000 2950 
Q 5850 2625 5275 2625 
L 4225 2625 
Q 3700 2600 3700 3075 
z
M 3625 50 
Q 3625 2000 3600 2300 
L 4175 2025 
L 3950 1850 
L 3950 1050 
Q 4825 1525 5250 2125 
L 5650 1650 
L 5425 1650 
Q 4600 1200 3950 900 
L 3950 275 
Q 3950 -125 4325 -100 
L 5300 -100 
Q 5575 -75 5600 250 
Q 5600 550 5625 925 
L 5725 925 
Q 5750 500 5812 262 
Q 5875 25 6075 -25 
Q 5950 -375 5325 -400 
L 4175 -400 
Q 3650 -400 3625 50 
z
" transform="scale(0.015625)"/>
        <path id="SimSun-6210" d="M 4325 5075 
Q 4850 4775 5025 4612 
Q 5200 4450 5162 4287 
Q 5125 4125 5025 4062 
Q 4925 4000 4900 4000 
Q 4800 4000 4750 4200 
Q 4675 4475 4250 5000 
L 4325 5075 
z
M 5625 100 
L 5925 1175 
L 6025 1150 
Q 5925 375 5925 125 
Q 5925 -125 6050 -350 
Q 6100 -450 6000 -450 
Q 5825 -450 5350 -275 
Q 4875 -100 4250 675 
Q 3475 -125 2550 -525 
L 2525 -425 
Q 3525 225 4050 950 
Q 3550 1875 3400 3650 
L 1425 3650 
L 1400 2450 
L 2550 2450 
L 2775 2700 
L 3150 2350 
L 2925 2175 
Q 2850 675 2725 437 
Q 2600 200 2250 50 
Q 2175 400 1575 625 
L 1575 725 
Q 2050 650 2237 625 
Q 2425 600 2475 837 
Q 2525 1075 2575 2300 
L 1400 2300 
Q 1325 225 350 -600 
L 300 -525 
Q 950 400 987 1462 
Q 1025 2525 1025 3075 
Q 1025 3625 1000 4025 
L 1450 3800 
L 3375 3800 
Q 3300 4625 3250 5150 
L 3900 4900 
L 3725 4700 
Q 3725 4300 3775 3800 
L 5150 3800 
L 5500 4150 
L 6000 3650 
L 3775 3650 
Q 3925 2000 4300 1325 
Q 4500 1625 4700 2100 
Q 4900 2575 5100 3175 
L 5625 2775 
L 5400 2650 
Q 4975 1625 4525 975 
Q 5050 350 5625 100 
z
" transform="scale(0.015625)"/>
        <path id="SimSun-672c" d="M 3400 850 
Q 3400 -50 3425 -525 
L 3000 -675 
Q 3025 425 3025 850 
L 1975 850 
L 1750 800 
L 1550 1000 
L 3025 1000 
L 3025 3200 
Q 2075 1250 300 325 
L 275 425 
Q 1925 1550 2800 3625 
L 1325 3625 
Q 1000 3625 725 3550 
L 500 3775 
L 3025 3775 
Q 3025 4450 3000 5250 
L 3650 4950 
L 3400 4750 
L 3400 3775 
L 5100 3775 
L 5450 4125 
L 5950 3625 
L 3650 3625 
Q 4475 1550 6100 1025 
L 6100 925 
Q 5625 900 5550 625 
Q 4200 1500 3525 3625 
L 3400 3625 
L 3400 1000 
L 4150 1000 
L 4450 1300 
L 4900 850 
L 3400 850 
z
" transform="scale(0.015625)"/>
       </defs>
       <use xlink:href="#SimSun-7528"/>
       <use xlink:href="#SimSun-80fd" x="100"/>
       <use xlink:href="#SimSun-6210" x="200"/>
       <use xlink:href="#SimSun-672c" x="300"/>
      </g>
     </g>
    </g>
    <g id="xtick_2">
     <g id="line2d_2">
      <g>
       <use xlink:href="#m34736aad98" x="443.008636" y="320.71" style="fill: #262626; stroke: #262626; stroke-width: 1.25"/>
      </g>
     </g>
     <g id="text_2">
      <!-- 功率限制惩罚项 -->
      <g style="fill: #262626" transform="translate(380.008636 344.483437) scale(0.18 -0.18)">
       <defs>
        <path id="SimSun-529f" d="M 4000 3475 
Q 4025 4675 3975 5250 
L 4575 4975 
L 4350 4775 
Q 4350 4000 4325 3475 
L 5375 3475 
L 5600 3725 
L 5975 3400 
L 5775 3250 
Q 5675 1350 5625 687 
Q 5575 25 5387 -225 
Q 5200 -475 4825 -600 
Q 4800 -250 3875 50 
L 3900 175 
Q 4750 25 4962 25 
Q 5175 25 5250 550 
Q 5325 1075 5425 3325 
L 4325 3325 
Q 4250 2300 4037 1625 
Q 3825 950 3325 412 
Q 2825 -125 1825 -600 
L 1750 -525 
Q 2575 -50 3025 462 
Q 3475 975 3700 1612 
Q 3925 2250 4000 3325 
L 3325 3325 
L 3025 3275 
L 2825 3475 
L 4000 3475 
z
M 1950 1275 
Q 2650 1450 3175 1625 
L 3225 1525 
Q 2125 1125 1462 850 
Q 800 575 700 425 
L 350 900 
Q 725 950 1625 1200 
L 1625 4000 
L 1250 4000 
Q 925 4000 650 3925 
L 425 4150 
L 2500 4150 
L 2775 4425 
L 3200 4000 
L 1950 4000 
L 1950 1275 
z
" transform="scale(0.015625)"/>
        <path id="SimSun-7387" d="M 875 3725 
L 925 3800 
Q 1375 3650 1550 3525 
Q 1725 3400 1725 3250 
Q 1725 3175 1662 3025 
Q 1600 2875 1550 2875 
Q 1500 2875 1425 3050 
Q 1275 3325 875 3725 
z
M 550 1850 
Q 875 1925 2000 2575 
L 2050 2500 
Q 1675 2225 1337 1937 
Q 1000 1650 875 1425 
L 550 1850 
z
M 5200 3450 
Q 4800 3150 4275 2800 
L 4225 2875 
Q 4775 3400 5050 3925 
L 5450 3525 
L 5200 3450 
z
M 4325 2500 
L 4350 2575 
Q 5225 2350 5375 2212 
Q 5525 2075 5525 1900 
Q 5525 1775 5487 1662 
Q 5450 1550 5400 1550 
Q 5325 1550 5200 1800 
Q 4975 2150 4325 2500 
z
M 3150 3900 
Q 2500 3300 2300 3150 
Q 2800 3150 3400 3175 
Q 3700 3500 3850 3825 
L 4250 3450 
Q 4050 3400 3450 2825 
Q 2850 2250 2475 1950 
Q 3150 1975 3850 2000 
Q 3750 2175 3550 2450 
L 3600 2500 
Q 4050 2250 4200 2100 
Q 4350 1950 4350 1850 
Q 4350 1775 4250 1625 
Q 4150 1475 4100 1475 
Q 4075 1475 4050 1550 
Q 4000 1700 3900 1900 
Q 3650 1875 3075 1800 
L 3500 1550 
L 3325 1425 
L 3325 975 
L 5325 975 
L 5650 1300 
L 6100 825 
L 3325 825 
Q 3325 -275 3350 -525 
L 2975 -650 
Q 3000 0 3000 825 
L 1125 825 
Q 800 825 525 750 
L 300 975 
L 3000 975 
L 3000 1775 
Q 2450 1700 2200 1525 
L 1950 1950 
Q 2275 1950 2675 2350 
Q 3075 2750 3325 3050 
Q 2400 2950 2150 2775 
L 1950 3175 
Q 2150 3150 2475 3575 
Q 2800 4000 2900 4225 
L 1450 4225 
Q 1125 4225 850 4150 
L 625 4375 
L 3100 4375 
Q 3050 4800 2675 5200 
L 2725 5250 
Q 3225 5050 3337 4912 
Q 3450 4775 3450 4700 
Q 3450 4550 3250 4375 
L 5025 4375 
L 5350 4675 
L 5775 4225 
L 3050 4225 
L 3375 3950 
L 3150 3900 
z
" transform="scale(0.015625)"/>
        <path id="SimSun-9650" d="M 3175 3500 
L 3175 2550 
L 4925 2550 
L 4925 3500 
L 3175 3500 
z
M 2750 -125 
Q 2850 25 2850 225 
Q 2850 4625 2825 4975 
L 3175 4750 
L 4900 4750 
L 5100 5025 
L 5500 4675 
L 5275 4525 
Q 5275 2975 5300 2350 
L 4925 2175 
L 4925 2400 
L 3825 2400 
Q 3950 1825 4300 1200 
Q 4950 1675 5375 2225 
L 5775 1775 
Q 5425 1775 4375 1075 
Q 4825 500 5312 287 
Q 5800 75 6050 50 
L 6050 -50 
Q 5700 -75 5525 -400 
Q 4925 -100 4387 575 
Q 3850 1250 3675 2400 
L 3175 2400 
L 3175 125 
L 4125 575 
L 4175 500 
Q 3375 0 3075 -525 
L 2750 -125 
z
M 1525 3075 
L 1925 4625 
L 1050 4625 
L 1050 725 
Q 1050 50 1075 -475 
L 700 -625 
Q 725 0 725 2262 
Q 725 4525 700 4975 
L 1075 4775 
L 1925 4775 
L 2150 5000 
L 2475 4675 
L 2275 4550 
L 1650 3075 
Q 2000 2700 2187 2387 
Q 2375 2075 2412 1700 
Q 2450 1325 2300 1062 
Q 2150 800 1675 675 
Q 1700 975 1150 1200 
L 1150 1300 
Q 1525 1225 1675 1225 
Q 1925 1225 2000 1337 
Q 2075 1450 2075 1650 
Q 2075 1825 2025 2125 
Q 1975 2425 1525 3075 
z
M 3175 4600 
L 3175 3650 
L 4925 3650 
L 4925 4600 
L 3175 4600 
z
" transform="scale(0.015625)"/>
        <path id="SimSun-5236" d="M 4200 850 
Q 4225 1375 4225 2462 
Q 4225 3550 4200 4275 
L 4725 4025 
L 4525 3875 
L 4525 1575 
Q 4525 1400 4550 1050 
L 4200 850 
z
M 5350 4450 
Q 5350 4850 5325 5225 
L 5850 4975 
L 5675 4800 
L 5675 125 
Q 5700 -400 5200 -625 
Q 5150 -225 4375 -100 
L 4375 0 
Q 4850 -25 5100 -25 
Q 5350 -25 5350 225 
L 5350 4450 
z
M 1925 3900 
L 1925 4275 
Q 1925 4875 1900 5200 
L 2425 4975 
L 2225 4800 
L 2225 3900 
L 2800 3900 
L 3075 4200 
L 3525 3750 
L 2225 3750 
L 2225 3000 
L 3125 3000 
L 3425 3300 
L 3875 2850 
L 2225 2850 
L 2225 2175 
L 3050 2175 
L 3225 2425 
L 3600 2150 
L 3400 1975 
L 3400 750 
Q 3425 300 2925 125 
Q 2975 400 2400 575 
L 2400 675 
Q 2775 625 2937 625 
Q 3100 625 3100 875 
L 3100 2025 
L 2225 2025 
L 2225 300 
Q 2225 -125 2250 -450 
L 1900 -625 
Q 1925 225 1925 475 
L 1925 2025 
L 1050 2025 
L 1050 250 
L 725 75 
Q 750 725 750 1300 
Q 750 1875 725 2375 
L 1075 2175 
L 1925 2175 
L 1925 2850 
L 1100 2850 
Q 775 2850 500 2775 
L 275 3000 
L 1925 3000 
L 1925 3750 
L 1025 3750 
Q 775 3325 525 3050 
L 450 3075 
Q 700 3600 825 4000 
Q 950 4400 975 4675 
L 1450 4425 
Q 1275 4350 1075 3900 
L 1925 3900 
z
" transform="scale(0.015625)"/>
        <path id="SimSun-60e9" d="M 1875 5250 
L 2300 4850 
Q 2125 4850 1625 4425 
Q 1125 4000 525 3700 
L 475 3775 
Q 1100 4225 1450 4625 
Q 1800 5025 1875 5250 
z
M 1325 1275 
Q 1350 1700 1350 2200 
L 1350 3000 
Q 975 2700 475 2425 
L 400 2500 
Q 875 2825 1412 3400 
Q 1950 3975 2050 4250 
L 2475 3875 
Q 2275 3850 1675 3250 
L 1675 1425 
L 1325 1275 
z
M 2725 1950 
L 2725 2825 
Q 2725 3375 2700 3825 
L 3275 3525 
L 3050 3350 
L 3050 1950 
L 3875 1950 
L 3875 4500 
L 2925 4500 
L 2625 4450 
L 2425 4650 
L 4950 4650 
L 5250 4950 
L 5700 4500 
L 4200 4500 
L 4200 3325 
L 4850 3325 
L 5125 3600 
L 5550 3175 
L 4200 3175 
L 4200 1950 
L 5200 1950 
L 5525 2275 
L 6000 1800 
L 2875 1800 
Q 2550 1800 2275 1725 
L 2050 1950 
L 2725 1950 
z
M 2825 1525 
L 2875 1600 
Q 3400 1350 3600 1200 
Q 3800 1050 3800 900 
Q 3800 800 3725 662 
Q 3650 525 3600 525 
Q 3525 525 3425 750 
Q 3275 1075 2825 1525 
z
M 4675 1175 
L 4750 1250 
Q 5400 975 5637 825 
Q 5875 675 5875 475 
Q 5875 400 5825 250 
Q 5775 100 5725 100 
Q 5625 100 5500 325 
Q 5275 675 4675 1175 
z
M 1350 1075 
Q 1300 500 1212 275 
Q 1125 50 1012 0 
Q 900 -50 825 -50 
Q 725 -50 650 25 
Q 575 100 575 125 
Q 575 225 800 375 
Q 1100 575 1250 1075 
L 1350 1075 
z
M 1950 75 
Q 1950 850 1925 1300 
L 2475 1050 
L 2275 850 
L 2275 200 
Q 2275 -150 2550 -125 
L 4050 -125 
Q 4350 -150 4375 200 
Q 4400 550 4400 875 
L 4525 875 
Q 4550 475 4612 250 
Q 4675 25 4875 -75 
Q 4725 -350 4537 -387 
Q 4350 -425 4200 -425 
L 2425 -425 
Q 1925 -475 1950 75 
z
" transform="scale(0.015625)"/>
        <path id="SimSun-7f5a" d="M 1500 4800 
L 1500 3825 
L 2425 3825 
L 2425 4800 
L 1500 4800 
z
M 2750 4800 
L 2750 3825 
L 3725 3825 
L 3725 4800 
L 2750 4800 
z
M 4050 4800 
L 4050 3825 
L 5050 3825 
L 5050 4800 
L 4050 4800 
z
M 1500 4950 
L 5025 4950 
L 5225 5175 
L 5625 4850 
L 5375 4700 
Q 5375 3850 5400 3575 
L 5050 3450 
L 5050 3675 
L 1500 3675 
L 1500 3550 
L 1150 3400 
Q 1175 3850 1175 4300 
Q 1175 4750 1150 5150 
L 1500 4950 
z
M 1575 3450 
Q 2100 3175 2200 3050 
Q 2300 2925 2300 2775 
Q 2300 2625 2212 2537 
Q 2125 2450 2100 2450 
Q 2000 2450 1925 2725 
Q 1800 3100 1525 3375 
L 1575 3450 
z
M 2025 150 
L 3050 700 
L 3075 625 
Q 2125 -100 1875 -425 
L 1575 -100 
Q 1675 50 1700 275 
L 1700 1875 
L 1350 1875 
Q 1025 1875 750 1800 
L 525 2025 
L 1675 2025 
L 1925 2275 
L 2275 1925 
L 2025 1750 
L 2025 150 
z
M 3900 2475 
Q 3900 1975 3900 1550 
Q 3900 1125 3925 750 
L 3550 575 
Q 3575 1150 3575 1750 
Q 3575 2350 3550 2950 
L 4100 2600 
L 3900 2475 
z
M 4000 125 
Q 4700 50 4875 50 
Q 5050 50 5050 175 
L 5050 2125 
Q 5050 2900 5025 3325 
L 5575 3025 
L 5375 2825 
L 5375 125 
Q 5375 -100 5275 -225 
Q 5175 -350 4875 -500 
Q 4675 -150 4000 25 
L 4000 125 
z
" transform="scale(0.015625)"/>
        <path id="SimSun-9879" d="M 1700 1400 
L 2700 1725 
L 2750 1625 
Q 1200 950 950 787 
Q 700 625 650 500 
L 350 1000 
Q 625 1050 1375 1300 
L 1375 4100 
L 1175 4100 
Q 850 4100 575 4025 
L 350 4250 
L 2025 4250 
L 2350 4550 
L 2750 4100 
L 1700 4100 
L 1700 1400 
z
M 2900 825 
Q 2925 1475 2925 2337 
Q 2925 3200 2900 3950 
L 3250 3750 
L 3825 3750 
Q 3925 4450 3950 4725 
L 3250 4725 
Q 2925 4725 2650 4650 
L 2425 4875 
L 5225 4875 
L 5575 5200 
L 6000 4725 
L 4400 4725 
Q 4250 4475 3950 3750 
L 5175 3750 
L 5400 4000 
L 5800 3675 
L 5575 3525 
L 5575 2000 
Q 5575 1575 5600 1125 
L 5250 925 
L 5250 3600 
L 3250 3600 
L 3250 1050 
L 2900 825 
z
M 4625 2900 
L 4425 2700 
Q 4425 1350 4212 837 
Q 4000 325 3525 -25 
Q 3050 -375 2150 -625 
L 2100 -550 
Q 3275 -25 3600 425 
Q 3925 875 4012 1537 
Q 4100 2200 4050 3175 
L 4625 2900 
z
M 4450 1025 
Q 5500 475 5700 312 
Q 5900 150 5900 -75 
Q 5900 -200 5850 -362 
Q 5800 -525 5775 -525 
Q 5700 -525 5600 -350 
Q 5400 -50 5150 237 
Q 4900 525 4400 950 
L 4450 1025 
z
" transform="scale(0.015625)"/>
       </defs>
       <use xlink:href="#SimSun-529f"/>
       <use xlink:href="#SimSun-7387" x="100"/>
       <use xlink:href="#SimSun-9650" x="200"/>
       <use xlink:href="#SimSun-5236" x="300"/>
       <use xlink:href="#SimSun-60e9" x="400"/>
       <use xlink:href="#SimSun-7f5a" x="500"/>
       <use xlink:href="#SimSun-9879" x="600"/>
      </g>
     </g>
    </g>
   </g>
   <g id="matplotlib.axis_2">
    <g id="ytick_1">
     <g id="line2d_3">
      <defs>
       <path id="ma446cb47c7" d="M 0 0 
L -6 0 
" style="stroke: #262626; stroke-width: 1.25"/>
      </defs>
      <g>
       <use xlink:href="#ma446cb47c7" x="63.45" y="320.71" style="fill: #262626; stroke: #262626; stroke-width: 1.25"/>
      </g>
     </g>
     <g id="text_3">
      <!-- 0 -->
      <g style="fill: #262626" transform="translate(45.95 326.265) scale(0.16 -0.16)">
       <defs>
        <path id="TimesNewRomanPSMT-30" d="M 231 2094 
Q 231 2819 450 3342 
Q 669 3866 1031 4122 
Q 1313 4325 1613 4325 
Q 2100 4325 2488 3828 
Q 2972 3213 2972 2159 
Q 2972 1422 2759 906 
Q 2547 391 2217 158 
Q 1888 -75 1581 -75 
Q 975 -75 572 641 
Q 231 1244 231 2094 
z
M 844 2016 
Q 844 1141 1059 588 
Q 1238 122 1591 122 
Q 1759 122 1940 273 
Q 2122 425 2216 781 
Q 2359 1319 2359 2297 
Q 2359 3022 2209 3506 
Q 2097 3866 1919 4016 
Q 1791 4119 1609 4119 
Q 1397 4119 1231 3928 
Q 1006 3669 925 3112 
Q 844 2556 844 2016 
z
" transform="scale(0.015625)"/>
       </defs>
       <use xlink:href="#TimesNewRomanPSMT-30"/>
      </g>
     </g>
    </g>
    <g id="ytick_2">
     <g id="line2d_4">
      <g>
       <use xlink:href="#ma446cb47c7" x="63.45" y="286.515556" style="fill: #262626; stroke: #262626; stroke-width: 1.25"/>
      </g>
     </g>
     <g id="text_4">
      <!-- 10 -->
      <g style="fill: #262626" transform="translate(37.95 292.070556) scale(0.16 -0.16)">
       <defs>
        <path id="TimesNewRomanPSMT-31" d="M 750 3822 
L 1781 4325 
L 1884 4325 
L 1884 747 
Q 1884 391 1914 303 
Q 1944 216 2037 169 
Q 2131 122 2419 116 
L 2419 0 
L 825 0 
L 825 116 
Q 1125 122 1212 167 
Q 1300 213 1334 289 
Q 1369 366 1369 747 
L 1369 3034 
Q 1369 3497 1338 3628 
Q 1316 3728 1258 3775 
Q 1200 3822 1119 3822 
Q 1003 3822 797 3725 
L 750 3822 
z
" transform="scale(0.015625)"/>
       </defs>
       <use xlink:href="#TimesNewRomanPSMT-31"/>
       <use xlink:href="#TimesNewRomanPSMT-30" x="50"/>
      </g>
     </g>
    </g>
    <g id="ytick_3">
     <g id="line2d_5">
      <g>
       <use xlink:href="#ma446cb47c7" x="63.45" y="252.321111" style="fill: #262626; stroke: #262626; stroke-width: 1.25"/>
      </g>
     </g>
     <g id="text_5">
      <!-- 20 -->
      <g style="fill: #262626" transform="translate(37.95 257.876111) scale(0.16 -0.16)">
       <defs>
        <path id="TimesNewRomanPSMT-32" d="M 2934 816 
L 2638 0 
L 138 0 
L 138 116 
Q 1241 1122 1691 1759 
Q 2141 2397 2141 2925 
Q 2141 3328 1894 3587 
Q 1647 3847 1303 3847 
Q 991 3847 742 3664 
Q 494 3481 375 3128 
L 259 3128 
Q 338 3706 661 4015 
Q 984 4325 1469 4325 
Q 1984 4325 2329 3994 
Q 2675 3663 2675 3213 
Q 2675 2891 2525 2569 
Q 2294 2063 1775 1497 
Q 997 647 803 472 
L 1909 472 
Q 2247 472 2383 497 
Q 2519 522 2628 598 
Q 2738 675 2819 816 
L 2934 816 
z
" transform="scale(0.015625)"/>
       </defs>
       <use xlink:href="#TimesNewRomanPSMT-32"/>
       <use xlink:href="#TimesNewRomanPSMT-30" x="50"/>
      </g>
     </g>
    </g>
    <g id="ytick_4">
     <g id="line2d_6">
      <g>
       <use xlink:href="#ma446cb47c7" x="63.45" y="218.126667" style="fill: #262626; stroke: #262626; stroke-width: 1.25"/>
      </g>
     </g>
     <g id="text_6">
      <!-- 30 -->
      <g style="fill: #262626" transform="translate(37.95 223.681667) scale(0.16 -0.16)">
       <defs>
        <path id="TimesNewRomanPSMT-33" d="M 325 3431 
Q 506 3859 782 4092 
Q 1059 4325 1472 4325 
Q 1981 4325 2253 3994 
Q 2459 3747 2459 3466 
Q 2459 3003 1878 2509 
Q 2269 2356 2469 2072 
Q 2669 1788 2669 1403 
Q 2669 853 2319 450 
Q 1863 -75 997 -75 
Q 569 -75 414 31 
Q 259 138 259 259 
Q 259 350 332 419 
Q 406 488 509 488 
Q 588 488 669 463 
Q 722 447 909 348 
Q 1097 250 1169 231 
Q 1284 197 1416 197 
Q 1734 197 1970 444 
Q 2206 691 2206 1028 
Q 2206 1275 2097 1509 
Q 2016 1684 1919 1775 
Q 1784 1900 1550 2001 
Q 1316 2103 1072 2103 
L 972 2103 
L 972 2197 
Q 1219 2228 1467 2375 
Q 1716 2522 1828 2728 
Q 1941 2934 1941 3181 
Q 1941 3503 1739 3701 
Q 1538 3900 1238 3900 
Q 753 3900 428 3381 
L 325 3431 
z
" transform="scale(0.015625)"/>
       </defs>
       <use xlink:href="#TimesNewRomanPSMT-33"/>
       <use xlink:href="#TimesNewRomanPSMT-30" x="50"/>
      </g>
     </g>
    </g>
    <g id="ytick_5">
     <g id="line2d_7">
      <g>
       <use xlink:href="#ma446cb47c7" x="63.45" y="183.932222" style="fill: #262626; stroke: #262626; stroke-width: 1.25"/>
      </g>
     </g>
     <g id="text_7">
      <!-- 40 -->
      <g style="fill: #262626" transform="translate(37.95 189.487222) scale(0.16 -0.16)">
       <defs>
        <path id="TimesNewRomanPSMT-34" d="M 2978 1563 
L 2978 1119 
L 2409 1119 
L 2409 0 
L 1894 0 
L 1894 1119 
L 100 1119 
L 100 1519 
L 2066 4325 
L 2409 4325 
L 2409 1563 
L 2978 1563 
z
M 1894 1563 
L 1894 3666 
L 406 1563 
L 1894 1563 
z
" transform="scale(0.015625)"/>
       </defs>
       <use xlink:href="#TimesNewRomanPSMT-34"/>
       <use xlink:href="#TimesNewRomanPSMT-30" x="50"/>
      </g>
     </g>
    </g>
    <g id="ytick_6">
     <g id="line2d_8">
      <g>
       <use xlink:href="#ma446cb47c7" x="63.45" y="149.737778" style="fill: #262626; stroke: #262626; stroke-width: 1.25"/>
      </g>
     </g>
     <g id="text_8">
      <!-- 50 -->
      <g style="fill: #262626" transform="translate(37.95 155.292778) scale(0.16 -0.16)">
       <defs>
        <path id="TimesNewRomanPSMT-35" d="M 2778 4238 
L 2534 3706 
L 1259 3706 
L 981 3138 
Q 1809 3016 2294 2522 
Q 2709 2097 2709 1522 
Q 2709 1188 2573 903 
Q 2438 619 2231 419 
Q 2025 219 1772 97 
Q 1413 -75 1034 -75 
Q 653 -75 479 54 
Q 306 184 306 341 
Q 306 428 378 495 
Q 450 563 559 563 
Q 641 563 702 538 
Q 763 513 909 409 
Q 1144 247 1384 247 
Q 1750 247 2026 523 
Q 2303 800 2303 1197 
Q 2303 1581 2056 1914 
Q 1809 2247 1375 2428 
Q 1034 2569 447 2591 
L 1259 4238 
L 2778 4238 
z
" transform="scale(0.015625)"/>
       </defs>
       <use xlink:href="#TimesNewRomanPSMT-35"/>
       <use xlink:href="#TimesNewRomanPSMT-30" x="50"/>
      </g>
     </g>
    </g>
    <g id="ytick_7">
     <g id="line2d_9">
      <g>
       <use xlink:href="#ma446cb47c7" x="63.45" y="115.543333" style="fill: #262626; stroke: #262626; stroke-width: 1.25"/>
      </g>
     </g>
     <g id="text_9">
      <!-- 60 -->
      <g style="fill: #262626" transform="translate(37.95 121.098333) scale(0.16 -0.16)">
       <defs>
        <path id="TimesNewRomanPSMT-36" d="M 2869 4325 
L 2869 4209 
Q 2456 4169 2195 4045 
Q 1934 3922 1679 3669 
Q 1425 3416 1258 3105 
Q 1091 2794 978 2366 
Q 1428 2675 1881 2675 
Q 2316 2675 2634 2325 
Q 2953 1975 2953 1425 
Q 2953 894 2631 456 
Q 2244 -75 1606 -75 
Q 1172 -75 869 213 
Q 275 772 275 1663 
Q 275 2231 503 2743 
Q 731 3256 1154 3653 
Q 1578 4050 1965 4187 
Q 2353 4325 2688 4325 
L 2869 4325 
z
M 925 2138 
Q 869 1716 869 1456 
Q 869 1156 980 804 
Q 1091 453 1309 247 
Q 1469 100 1697 100 
Q 1969 100 2183 356 
Q 2397 613 2397 1088 
Q 2397 1622 2184 2012 
Q 1972 2403 1581 2403 
Q 1463 2403 1327 2353 
Q 1191 2303 925 2138 
z
" transform="scale(0.015625)"/>
       </defs>
       <use xlink:href="#TimesNewRomanPSMT-36"/>
       <use xlink:href="#TimesNewRomanPSMT-30" x="50"/>
      </g>
     </g>
    </g>
    <g id="ytick_8">
     <g id="line2d_10">
      <g>
       <use xlink:href="#ma446cb47c7" x="63.45" y="81.348889" style="fill: #262626; stroke: #262626; stroke-width: 1.25"/>
      </g>
     </g>
     <g id="text_10">
      <!-- 70 -->
      <g style="fill: #262626" transform="translate(37.95 86.903889) scale(0.16 -0.16)">
       <defs>
        <path id="TimesNewRomanPSMT-37" d="M 644 4238 
L 2916 4238 
L 2916 4119 
L 1503 -88 
L 1153 -88 
L 2419 3728 
L 1253 3728 
Q 900 3728 750 3644 
Q 488 3500 328 3200 
L 238 3234 
L 644 4238 
z
" transform="scale(0.015625)"/>
       </defs>
       <use xlink:href="#TimesNewRomanPSMT-37"/>
       <use xlink:href="#TimesNewRomanPSMT-30" x="50"/>
      </g>
     </g>
    </g>
    <g id="ytick_9">
     <g id="line2d_11">
      <g>
       <use xlink:href="#ma446cb47c7" x="63.45" y="47.154444" style="fill: #262626; stroke: #262626; stroke-width: 1.25"/>
      </g>
     </g>
     <g id="text_11">
      <!-- 80 -->
      <g style="fill: #262626" transform="translate(37.95 52.709444) scale(0.16 -0.16)">
       <defs>
        <path id="TimesNewRomanPSMT-38" d="M 1228 2134 
Q 725 2547 579 2797 
Q 434 3047 434 3316 
Q 434 3728 753 4026 
Q 1072 4325 1600 4325 
Q 2113 4325 2425 4047 
Q 2738 3769 2738 3413 
Q 2738 3175 2569 2928 
Q 2400 2681 1866 2347 
Q 2416 1922 2594 1678 
Q 2831 1359 2831 1006 
Q 2831 559 2490 242 
Q 2150 -75 1597 -75 
Q 994 -75 656 303 
Q 388 606 388 966 
Q 388 1247 577 1523 
Q 766 1800 1228 2134 
z
M 1719 2469 
Q 2094 2806 2194 3001 
Q 2294 3197 2294 3444 
Q 2294 3772 2109 3958 
Q 1925 4144 1606 4144 
Q 1288 4144 1088 3959 
Q 888 3775 888 3528 
Q 888 3366 970 3203 
Q 1053 3041 1206 2894 
L 1719 2469 
z
M 1375 2016 
Q 1116 1797 991 1539 
Q 866 1281 866 981 
Q 866 578 1086 336 
Q 1306 94 1647 94 
Q 1984 94 2187 284 
Q 2391 475 2391 747 
Q 2391 972 2272 1150 
Q 2050 1481 1375 2016 
z
" transform="scale(0.015625)"/>
       </defs>
       <use xlink:href="#TimesNewRomanPSMT-38"/>
       <use xlink:href="#TimesNewRomanPSMT-30" x="50"/>
      </g>
     </g>
    </g>
    <g id="ytick_10">
     <g id="line2d_12">
      <g>
       <use xlink:href="#ma446cb47c7" x="63.45" y="12.96" style="fill: #262626; stroke: #262626; stroke-width: 1.25"/>
      </g>
     </g>
     <g id="text_12">
      <!-- 90 -->
      <g style="fill: #262626" transform="translate(37.95 18.515) scale(0.16 -0.16)">
       <defs>
        <path id="TimesNewRomanPSMT-39" d="M 338 -88 
L 338 28 
Q 744 34 1094 217 
Q 1444 400 1770 856 
Q 2097 1313 2225 1859 
Q 1734 1544 1338 1544 
Q 891 1544 572 1889 
Q 253 2234 253 2806 
Q 253 3363 572 3797 
Q 956 4325 1575 4325 
Q 2097 4325 2469 3894 
Q 2925 3359 2925 2575 
Q 2925 1869 2578 1258 
Q 2231 647 1613 244 
Q 1109 -88 516 -88 
L 338 -88 
z
M 2275 2091 
Q 2331 2497 2331 2741 
Q 2331 3044 2228 3395 
Q 2125 3747 1936 3934 
Q 1747 4122 1506 4122 
Q 1228 4122 1018 3872 
Q 809 3622 809 3128 
Q 809 2469 1088 2097 
Q 1291 1828 1588 1828 
Q 1731 1828 1928 1897 
Q 2125 1966 2275 2091 
z
" transform="scale(0.015625)"/>
       </defs>
       <use xlink:href="#TimesNewRomanPSMT-39"/>
       <use xlink:href="#TimesNewRomanPSMT-30" x="50"/>
      </g>
     </g>
    </g>
    <g id="text_13">
     <!-- 成本和惩罚项$\mathrm{(\$)}$ -->
     <g style="fill: #262626" transform="translate(30.71 231.365) rotate(-90) scale(0.18 -0.18)">
      <defs>
       <path id="SimSun-548c" d="M 2250 2475 
Q 2250 175 2275 -350 
L 1875 -550 
Q 1900 200 1900 2475 
Q 1600 1900 1200 1412 
Q 800 925 325 550 
L 275 625 
Q 850 1250 1225 1912 
Q 1600 2575 1775 3150 
L 925 3150 
L 700 3100 
L 500 3300 
L 1900 3300 
L 1900 4425 
Q 1550 4375 625 4300 
L 625 4400 
Q 1475 4525 2025 4687 
Q 2575 4850 2975 5100 
L 3325 4650 
Q 2650 4575 2250 4475 
L 2250 3300 
L 2850 3300 
L 3125 3575 
L 3525 3150 
L 2250 3150 
L 2250 2600 
Q 3200 2300 3275 2112 
Q 3350 1925 3350 1825 
Q 3350 1700 3300 1612 
Q 3250 1525 3225 1525 
Q 3150 1525 3050 1700 
Q 2900 1950 2250 2475 
z
M 5675 4025 
Q 5675 1200 5700 475 
L 5325 325 
L 5325 850 
L 4050 850 
L 4050 275 
L 3675 100 
Q 3700 1200 3700 2437 
Q 3700 3675 3675 4525 
L 4050 4275 
L 5275 4275 
L 5525 4525 
L 5875 4175 
L 5675 4025 
z
M 4050 4125 
L 4050 1000 
L 5325 1000 
L 5325 4125 
L 4050 4125 
z
" transform="scale(0.015625)"/>
       <path id="STIXGeneral-Regular-28" d="M 1946 -1030 
L 1869 -1133 
Q 1126 -710 716 32 
Q 307 774 307 1613 
Q 307 3386 1888 4326 
L 1946 4224 
Q 1293 3667 1075 3126 
Q 858 2586 858 1632 
Q 858 685 1082 96 
Q 1306 -493 1946 -1030 
z
" transform="scale(0.015625)"/>
       <path id="STIXGeneral-Regular-24" d="M 1690 4077 
L 1690 2502 
Q 2234 2208 2445 2045 
Q 2656 1882 2797 1664 
Q 2931 1466 2931 1088 
Q 2931 570 2614 326 
Q 2298 83 1690 0 
L 1690 -557 
L 1472 -557 
L 1472 0 
Q 1062 0 806 73 
Q 550 147 282 326 
L 282 1158 
L 378 1158 
Q 480 685 761 432 
Q 1043 179 1472 179 
L 1472 1984 
Q 800 2362 566 2624 
Q 333 2886 333 3283 
Q 333 3731 659 3974 
Q 986 4218 1472 4250 
L 1472 4653 
L 1690 4653 
L 1690 4250 
Q 2426 4205 2720 3910 
L 2720 3200 
L 2624 3200 
Q 2528 3597 2301 3814 
Q 2074 4032 1690 4077 
z
M 1472 2605 
L 1472 4077 
Q 806 3942 806 3405 
Q 806 3194 937 3037 
Q 1069 2880 1472 2605 
z
M 1690 1875 
L 1690 179 
Q 2086 262 2252 432 
Q 2419 602 2419 941 
Q 2419 1235 2272 1427 
Q 2125 1619 1690 1875 
z
" transform="scale(0.015625)"/>
       <path id="STIXGeneral-Regular-29" d="M 186 4224 
L 262 4326 
Q 992 3891 1408 3148 
Q 1824 2406 1824 1581 
Q 1824 -166 243 -1133 
L 186 -1030 
Q 845 -486 1059 54 
Q 1274 595 1274 1562 
Q 1274 2534 1059 3120 
Q 845 3706 186 4224 
z
" transform="scale(0.015625)"/>
      </defs>
      <use xlink:href="#SimSun-6210" transform="translate(0 0.96875)"/>
      <use xlink:href="#SimSun-672c" transform="translate(100 0.96875)"/>
      <use xlink:href="#SimSun-548c" transform="translate(200 0.96875)"/>
      <use xlink:href="#SimSun-60e9" transform="translate(300 0.96875)"/>
      <use xlink:href="#SimSun-7f5a" transform="translate(400 0.96875)"/>
      <use xlink:href="#SimSun-9879" transform="translate(500 0.96875)"/>
      <use xlink:href="#STIXGeneral-Regular-28" transform="translate(600 0.96875)"/>
      <use xlink:href="#STIXGeneral-Regular-24" transform="translate(633.299988 0.96875)"/>
      <use xlink:href="#STIXGeneral-Regular-29" transform="translate(683.299973 0.96875)"/>
     </g>
    </g>
   </g>
   <g id="patch_3">
    <path d="M 86.158636 320.71 
L 118.599545 320.71 
L 118.599545 111.262189 
L 86.158636 111.262189 
z
" clip-path="url(#p17cf8bebb5)" style="fill: #4c72b0; stroke: #ffffff; stroke-linejoin: miter"/>
   </g>
   <g id="patch_4">
    <path d="M 345.685909 320.71 
L 378.126818 320.71 
L 378.126818 312.941022 
L 345.685909 312.941022 
z
" clip-path="url(#p17cf8bebb5)" style="fill: #4c72b0; stroke: #ffffff; stroke-linejoin: miter"/>
   </g>
   <g id="patch_5">
    <path d="M 118.599545 320.71 
L 151.040455 320.71 
L 151.040455 110.733315 
L 118.599545 110.733315 
z
" clip-path="url(#p17cf8bebb5)" style="fill: #dd8452; stroke: #ffffff; stroke-linejoin: miter"/>
   </g>
   <g id="patch_6">
    <path d="M 378.126818 320.71 
L 410.567727 320.71 
L 410.567727 311.249537 
L 378.126818 311.249537 
z
" clip-path="url(#p17cf8bebb5)" style="fill: #dd8452; stroke: #ffffff; stroke-linejoin: miter"/>
   </g>
   <g id="patch_7">
    <path d="M 151.040455 320.71 
L 183.481364 320.71 
L 183.481364 87.595074 
L 151.040455 87.595074 
z
" clip-path="url(#p17cf8bebb5)" style="fill: #55a868; stroke: #ffffff; stroke-linejoin: miter"/>
   </g>
   <g id="patch_8">
    <path d="M 410.567727 320.71 
L 443.008636 320.71 
L 443.008636 303.35062 
L 410.567727 303.35062 
z
" clip-path="url(#p17cf8bebb5)" style="fill: #55a868; stroke: #ffffff; stroke-linejoin: miter"/>
   </g>
   <g id="patch_9">
    <path d="M 183.481364 320.71 
L 215.922273 320.71 
L 215.922273 66.021229 
L 183.481364 66.021229 
z
" clip-path="url(#p17cf8bebb5)" style="fill: #c44e52; stroke: #ffffff; stroke-linejoin: miter"/>
   </g>
   <g id="patch_10">
    <path d="M 443.008636 320.71 
L 475.449545 320.71 
L 475.449545 300.680604 
L 443.008636 300.680604 
z
" clip-path="url(#p17cf8bebb5)" style="fill: #c44e52; stroke: #ffffff; stroke-linejoin: miter"/>
   </g>
   <g id="patch_11">
    <path d="M 215.922273 320.71 
L 248.363182 320.71 
L 248.363182 79.297222 
L 215.922273 79.297222 
z
" clip-path="url(#p17cf8bebb5)" style="fill: #8172b3; stroke: #ffffff; stroke-linejoin: miter"/>
   </g>
   <g id="patch_12">
    <path d="M 475.449545 320.71 
L 507.890455 320.71 
L 507.890455 300.979806 
L 475.449545 300.979806 
z
" clip-path="url(#p17cf8bebb5)" style="fill: #8172b3; stroke: #ffffff; stroke-linejoin: miter"/>
   </g>
   <g id="patch_13">
    <path d="M 248.363182 320.71 
L 280.804091 320.71 
L 280.804091 32.792778 
L 248.363182 32.792778 
z
" clip-path="url(#p17cf8bebb5)" style="fill: #937860; stroke: #ffffff; stroke-linejoin: miter"/>
   </g>
   <g id="patch_14">
    <path d="M 507.890455 320.71 
L 540.331364 320.71 
L 540.331364 279.995815 
L 507.890455 279.995815 
z
" clip-path="url(#p17cf8bebb5)" style="fill: #937860; stroke: #ffffff; stroke-linejoin: miter"/>
   </g>
   <g id="patch_15">
    <path d="M 63.45 320.71 
L 63.45 12.96 
" style="fill: none; stroke: #262626; stroke-width: 1.25; stroke-linejoin: miter; stroke-linecap: square"/>
   </g>
   <g id="patch_16">
    <path d="M 563.04 320.71 
L 563.04 12.96 
" style="fill: none; stroke: #262626; stroke-width: 1.25; stroke-linejoin: miter; stroke-linecap: square"/>
   </g>
   <g id="patch_17">
    <path d="M 63.45 320.71 
L 563.04 320.71 
" style="fill: none; stroke: #262626; stroke-width: 1.25; stroke-linejoin: miter; stroke-linecap: square"/>
   </g>
   <g id="patch_18">
    <path d="M 63.45 12.96 
L 563.04 12.96 
" style="fill: none; stroke: #262626; stroke-width: 1.25; stroke-linejoin: miter; stroke-linecap: square"/>
   </g>
   <g id="text_14">
    <!-- 61.3 -->
    <g style="fill: #262626" transform="translate(86.379091 109.552467) scale(0.16 -0.16)">
     <defs>
      <path id="SimSun-36" d="M 775 1800 
Q 775 1050 1037 637 
Q 1300 225 1675 225 
Q 2050 225 2250 500 
Q 2450 775 2450 1525 
Q 2450 2025 2237 2300 
Q 2025 2575 1725 2575 
Q 1450 2575 1212 2412 
Q 975 2250 775 1800 
z
M 1750 2825 
Q 2350 2825 2612 2425 
Q 2875 2025 2875 1525 
Q 2875 775 2512 412 
Q 2150 50 1675 50 
Q 1000 50 650 562 
Q 300 1075 300 2050 
Q 300 3200 725 3812 
Q 1150 4425 1875 4425 
Q 2225 4425 2437 4225 
Q 2650 4025 2650 3875 
Q 2650 3725 2587 3650 
Q 2525 3575 2375 3575 
Q 2250 3575 2187 3637 
Q 2125 3700 2125 3825 
Q 2125 3875 2150 3925 
Q 2150 3975 2150 4025 
Q 2150 4125 2075 4187 
Q 2000 4250 1800 4250 
Q 1375 4250 1075 3862 
Q 775 3475 775 2175 
Q 925 2500 1187 2662 
Q 1450 2825 1750 2825 
z
" transform="scale(0.015625)"/>
      <path id="SimSun-31" d="M 1825 4450 
L 1825 650 
Q 1825 450 1950 350 
Q 2075 250 2300 250 
L 2550 250 
L 2550 100 
L 725 100 
L 725 250 
L 950 250 
Q 1200 250 1312 350 
Q 1425 450 1425 650 
L 1425 3675 
Q 1425 3775 1362 3837 
Q 1300 3900 1175 3900 
L 725 3900 
L 725 4050 
L 950 4050 
Q 1250 4050 1437 4150 
Q 1625 4250 1725 4450 
L 1825 4450 
z
" transform="scale(0.015625)"/>
      <path id="SimSun-2e" d="M 800 25 
Q 650 25 537 125 
Q 425 225 425 400 
Q 425 575 537 675 
Q 650 775 800 775 
Q 950 775 1062 662 
Q 1175 550 1175 400 
Q 1175 225 1062 125 
Q 950 25 800 25 
z
" transform="scale(0.015625)"/>
      <path id="SimSun-33" d="M 2800 1250 
Q 2800 775 2450 412 
Q 2100 50 1475 50 
Q 1025 50 700 300 
Q 375 550 375 875 
Q 375 1025 475 1137 
Q 575 1250 675 1250 
Q 825 1250 887 1137 
Q 950 1025 950 950 
Q 950 825 900 750 
Q 850 650 850 575 
Q 850 425 1037 325 
Q 1225 225 1450 225 
Q 1900 225 2125 487 
Q 2350 750 2350 1300 
Q 2350 1750 2112 2025 
Q 1875 2300 1225 2300 
L 1225 2475 
Q 1725 2475 1962 2712 
Q 2200 2950 2200 3375 
Q 2200 3725 2012 3987 
Q 1825 4250 1425 4250 
Q 1250 4250 1050 4162 
Q 850 4075 850 3875 
Q 850 3675 900 3625 
Q 950 3575 950 3500 
Q 950 3375 900 3300 
Q 850 3225 725 3225 
Q 625 3225 537 3300 
Q 450 3375 450 3575 
Q 450 3950 775 4187 
Q 1100 4425 1525 4425 
Q 2025 4425 2325 4112 
Q 2625 3800 2625 3450 
Q 2625 3075 2437 2812 
Q 2250 2550 1850 2425 
Q 2400 2225 2600 1900 
Q 2800 1575 2800 1250 
z
" transform="scale(0.015625)"/>
     </defs>
     <use xlink:href="#SimSun-36"/>
     <use xlink:href="#SimSun-31" x="50"/>
     <use xlink:href="#SimSun-2e" x="100"/>
     <use xlink:href="#SimSun-33" x="150"/>
    </g>
   </g>
   <g id="text_15">
    <!-- 2.3 -->
    <g style="fill: #262626" transform="translate(349.906364 311.2313) scale(0.16 -0.16)">
     <defs>
      <path id="SimSun-32" d="M 2325 3325 
Q 2325 3775 2125 4012 
Q 1925 4250 1525 4250 
Q 1225 4250 1012 4087 
Q 800 3925 800 3675 
Q 800 3525 900 3425 
Q 975 3325 975 3225 
Q 975 3100 912 3037 
Q 850 2975 725 2975 
Q 575 2975 487 3062 
Q 400 3150 400 3350 
Q 400 3875 775 4150 
Q 1150 4425 1575 4425 
Q 2175 4425 2462 4125 
Q 2750 3825 2750 3375 
Q 2750 3075 2612 2775 
Q 2475 2475 2175 2200 
Q 1450 1500 1062 1062 
Q 675 625 600 475 
L 2075 475 
Q 2300 475 2450 650 
Q 2600 825 2650 1175 
L 2800 1175 
L 2650 100 
L 325 100 
L 325 425 
Q 450 650 737 1000 
Q 1025 1350 1500 1825 
Q 1925 2250 2125 2625 
Q 2325 3000 2325 3325 
z
" transform="scale(0.015625)"/>
     </defs>
     <use xlink:href="#SimSun-32"/>
     <use xlink:href="#SimSun-2e" x="50"/>
     <use xlink:href="#SimSun-33" x="100"/>
    </g>
   </g>
   <g id="text_16">
    <!-- 61.4 -->
    <g style="fill: #262626" transform="translate(118.82 109.023593) scale(0.16 -0.16)">
     <defs>
      <path id="SimSun-34" d="M 2300 575 
Q 2300 400 2400 325 
Q 2500 250 2675 250 
L 2900 250 
L 2900 100 
L 1250 100 
L 1250 250 
L 1525 250 
Q 1725 250 1812 325 
Q 1900 400 1900 575 
L 1900 1400 
L 225 1400 
L 225 1525 
L 2050 4425 
L 2300 4425 
L 2300 1550 
L 2975 1550 
L 2975 1400 
L 2300 1400 
L 2300 575 
z
M 1875 3800 
L 450 1550 
L 1900 1550 
L 1900 3800 
L 1875 3800 
z
" transform="scale(0.015625)"/>
     </defs>
     <use xlink:href="#SimSun-36"/>
     <use xlink:href="#SimSun-31" x="50"/>
     <use xlink:href="#SimSun-2e" x="100"/>
     <use xlink:href="#SimSun-34" x="150"/>
    </g>
   </g>
   <g id="text_17">
    <!-- 2.8 -->
    <g style="fill: #262626" transform="translate(382.347273 309.539815) scale(0.16 -0.16)">
     <defs>
      <path id="SimSun-38" d="M 625 1125 
Q 625 725 887 475 
Q 1150 225 1550 225 
Q 2025 225 2237 475 
Q 2450 725 2450 1100 
Q 2450 1425 2150 1725 
Q 1850 2025 1250 2275 
Q 950 2075 787 1775 
Q 625 1475 625 1125 
z
M 2825 1175 
Q 2825 700 2475 375 
Q 2125 50 1550 50 
Q 1025 50 650 375 
Q 275 700 275 1125 
Q 275 1550 487 1850 
Q 700 2150 1100 2375 
Q 750 2550 562 2812 
Q 375 3075 375 3400 
Q 375 3825 700 4125 
Q 1025 4425 1600 4425 
Q 2125 4425 2450 4125 
Q 2775 3825 2775 3400 
Q 2775 3100 2587 2837 
Q 2400 2575 2000 2375 
Q 2425 2125 2625 1825 
Q 2825 1525 2825 1175 
z
M 2425 3375 
Q 2425 3725 2225 3987 
Q 2025 4250 1600 4250 
Q 1125 4250 925 4000 
Q 725 3750 725 3475 
Q 725 3200 1012 2937 
Q 1300 2675 1825 2475 
Q 2125 2625 2275 2850 
Q 2425 3075 2425 3375 
z
" transform="scale(0.015625)"/>
     </defs>
     <use xlink:href="#SimSun-32"/>
     <use xlink:href="#SimSun-2e" x="50"/>
     <use xlink:href="#SimSun-38" x="100"/>
    </g>
   </g>
   <g id="text_18">
    <!-- 68.2 -->
    <g style="fill: #262626" transform="translate(151.260909 85.885352) scale(0.16 -0.16)">
     <use xlink:href="#SimSun-36"/>
     <use xlink:href="#SimSun-38" x="50"/>
     <use xlink:href="#SimSun-2e" x="100"/>
     <use xlink:href="#SimSun-32" x="150"/>
    </g>
   </g>
   <g id="text_19">
    <!-- 5.1 -->
    <g style="fill: #262626" transform="translate(414.788182 301.640898) scale(0.16 -0.16)">
     <defs>
      <path id="SimSun-35" d="M 1725 2850 
Q 2200 2850 2500 2487 
Q 2800 2125 2800 1525 
Q 2800 850 2487 450 
Q 2175 50 1525 50 
Q 1075 50 725 312 
Q 375 575 375 950 
Q 375 1100 462 1212 
Q 550 1325 700 1325 
Q 850 1325 900 1225 
Q 950 1125 950 1050 
Q 950 900 875 825 
Q 800 725 800 625 
Q 800 425 1037 325 
Q 1275 225 1550 225 
Q 1950 225 2162 550 
Q 2375 875 2375 1475 
Q 2375 1975 2187 2287 
Q 2000 2600 1625 2600 
Q 1350 2600 1150 2500 
Q 950 2400 775 2075 
L 550 2100 
L 675 4375 
L 2725 4375 
L 2650 4000 
L 850 4000 
L 750 2350 
Q 1000 2700 1237 2775 
Q 1475 2850 1725 2850 
z
" transform="scale(0.015625)"/>
     </defs>
     <use xlink:href="#SimSun-35"/>
     <use xlink:href="#SimSun-2e" x="50"/>
     <use xlink:href="#SimSun-31" x="100"/>
    </g>
   </g>
   <g id="text_20">
    <!-- 74.5 -->
    <g style="fill: #262626" transform="translate(183.701818 64.311507) scale(0.16 -0.16)">
     <defs>
      <path id="SimSun-37" d="M 2825 4200 
Q 2300 3350 1987 2537 
Q 1675 1725 1675 1125 
Q 1675 1025 1700 850 
Q 1700 650 1700 400 
Q 1700 200 1637 125 
Q 1575 50 1425 50 
Q 1300 50 1212 137 
Q 1125 225 1125 450 
Q 1125 925 1337 1625 
Q 1550 2325 2475 4000 
L 1225 4000 
Q 950 4000 787 3825 
Q 625 3650 550 3300 
L 400 3325 
L 575 4375 
L 2825 4375 
L 2825 4200 
z
" transform="scale(0.015625)"/>
     </defs>
     <use xlink:href="#SimSun-37"/>
     <use xlink:href="#SimSun-34" x="50"/>
     <use xlink:href="#SimSun-2e" x="100"/>
     <use xlink:href="#SimSun-35" x="150"/>
    </g>
   </g>
   <g id="text_21">
    <!-- 5.9 -->
    <g style="fill: #262626" transform="translate(447.229091 298.970882) scale(0.16 -0.16)">
     <defs>
      <path id="SimSun-39" d="M 700 3050 
Q 700 2500 912 2212 
Q 1125 1925 1450 1925 
Q 1825 1925 2100 2275 
Q 2375 2625 2375 2925 
Q 2375 3525 2175 3887 
Q 1975 4250 1525 4250 
Q 1100 4250 900 3912 
Q 700 3575 700 3050 
z
M 1375 1700 
Q 875 1700 575 2012 
Q 275 2325 275 3025 
Q 275 3625 600 4025 
Q 925 4425 1525 4425 
Q 2150 4425 2500 3925 
Q 2850 3425 2850 2475 
Q 2850 1425 2437 737 
Q 2025 50 1300 50 
Q 975 50 737 200 
Q 500 350 500 600 
Q 500 700 562 800 
Q 625 900 775 900 
Q 925 900 975 787 
Q 1025 675 1025 525 
Q 1025 425 1050 362 
Q 1075 300 1100 275 
Q 1125 250 1187 237 
Q 1250 225 1325 225 
Q 1775 225 2050 725 
Q 2325 1225 2375 2400 
Q 2250 2100 2000 1900 
Q 1750 1700 1375 1700 
z
" transform="scale(0.015625)"/>
     </defs>
     <use xlink:href="#SimSun-35"/>
     <use xlink:href="#SimSun-2e" x="50"/>
     <use xlink:href="#SimSun-39" x="100"/>
    </g>
   </g>
   <g id="text_22">
    <!-- 70.6 -->
    <g style="fill: #262626" transform="translate(216.142727 77.5875) scale(0.16 -0.16)">
     <defs>
      <path id="SimSun-30" d="M 1600 4225 
Q 1250 4225 1012 3687 
Q 775 3150 775 2250 
Q 775 1300 1012 775 
Q 1250 250 1600 250 
Q 1975 250 2187 775 
Q 2400 1300 2400 2250 
Q 2400 3150 2200 3687 
Q 2000 4225 1600 4225 
z
M 1600 50 
Q 1050 50 675 625 
Q 300 1200 300 2250 
Q 300 3225 662 3825 
Q 1025 4425 1600 4425 
Q 2150 4425 2512 3850 
Q 2875 3275 2875 2250 
Q 2875 1225 2512 637 
Q 2150 50 1600 50 
z
" transform="scale(0.015625)"/>
     </defs>
     <use xlink:href="#SimSun-37"/>
     <use xlink:href="#SimSun-30" x="50"/>
     <use xlink:href="#SimSun-2e" x="100"/>
     <use xlink:href="#SimSun-36" x="150"/>
    </g>
   </g>
   <g id="text_23">
    <!-- 5.8 -->
    <g style="fill: #262626" transform="translate(479.67 299.270083) scale(0.16 -0.16)">
     <use xlink:href="#SimSun-35"/>
     <use xlink:href="#SimSun-2e" x="50"/>
     <use xlink:href="#SimSun-38" x="100"/>
    </g>
   </g>
   <g id="text_24">
    <!-- 84.2 -->
    <g style="fill: #262626" transform="translate(248.583636 31.083056) scale(0.16 -0.16)">
     <use xlink:href="#SimSun-38"/>
     <use xlink:href="#SimSun-34" x="50"/>
     <use xlink:href="#SimSun-2e" x="100"/>
     <use xlink:href="#SimSun-32" x="150"/>
    </g>
   </g>
   <g id="text_25">
    <!-- 11.9 -->
    <g style="fill: #262626" transform="translate(508.110909 278.286093) scale(0.16 -0.16)">
     <use xlink:href="#SimSun-31"/>
     <use xlink:href="#SimSun-31" x="50"/>
     <use xlink:href="#SimSun-2e" x="100"/>
     <use xlink:href="#SimSun-39" x="150"/>
    </g>
   </g>
   <g id="legend_1">
    <g id="patch_19">
     <path d="M 412.64 157.635 
L 551.84 157.635 
Q 555.04 157.635 555.04 154.435 
L 555.04 24.16 
Q 555.04 20.96 551.84 20.96 
L 412.64 20.96 
Q 409.44 20.96 409.44 24.16 
L 409.44 154.435 
Q 409.44 157.635 412.64 157.635 
z
" style="fill: #ffffff; opacity: 0.8; stroke: #cccccc; stroke-linejoin: miter"/>
    </g>
    <g id="patch_20">
     <path d="M 415.84 40.1725 
L 447.84 40.1725 
L 447.84 28.9725 
L 415.84 28.9725 
z
" style="fill: #4c72b0; stroke: #ffffff; stroke-linejoin: miter"/>
    </g>
    <g id="text_26">
     <!-- 本文方法 -->
     <g style="fill: #262626" transform="translate(460.64 40.1725) scale(0.16 -0.16)">
      <defs>
       <path id="SimSun-6587" d="M 2825 5150 
Q 3175 4925 3337 4737 
Q 3500 4550 3500 4425 
Q 3500 4300 3400 4162 
Q 3300 4025 3225 4025 
Q 3150 4025 3100 4275 
Q 3025 4675 2750 5100 
L 2825 5150 
z
M 450 3875 
L 5100 3875 
L 5500 4275 
L 6050 3725 
L 4500 3725 
Q 4175 2100 3400 1025 
Q 4400 125 6025 0 
L 6025 -100 
Q 5550 -175 5475 -475 
Q 3950 -25 3175 825 
Q 2000 -250 325 -575 
L 300 -500 
Q 1925 -25 2975 1050 
Q 2250 2125 1950 3725 
L 1275 3725 
Q 950 3725 675 3650 
L 450 3875 
z
M 2100 3725 
Q 2450 2275 3175 1300 
Q 3825 2275 4100 3725 
L 2100 3725 
z
" transform="scale(0.015625)"/>
       <path id="SimSun-65b9" d="M 275 3925 
L 5250 3925 
L 5625 4300 
L 6150 3775 
L 3075 3775 
Q 3050 3300 2950 2675 
L 4575 2675 
L 4825 2925 
L 5225 2550 
L 4975 2400 
Q 4725 475 4625 125 
Q 4525 -225 4312 -362 
Q 4100 -500 3725 -600 
Q 3625 -200 2900 100 
L 2925 200 
Q 3600 0 3812 -12 
Q 4025 -25 4137 75 
Q 4250 175 4350 712 
Q 4450 1250 4600 2525 
L 2925 2525 
Q 2500 350 475 -575 
L 425 -475 
Q 2675 800 2675 3775 
L 1100 3775 
Q 775 3775 500 3700 
L 275 3925 
z
M 2675 5150 
Q 3325 4900 3437 4725 
Q 3550 4550 3550 4450 
Q 3550 4350 3450 4212 
Q 3350 4075 3325 4075 
Q 3225 4075 3125 4350 
Q 2975 4725 2625 5075 
L 2675 5150 
z
" transform="scale(0.015625)"/>
       <path id="SimSun-6cd5" d="M 3800 3850 
Q 3800 4925 3775 5275 
L 4375 4975 
L 4125 4725 
L 4125 3850 
L 5100 3850 
L 5375 4125 
L 5775 3700 
L 4125 3700 
L 4125 2350 
L 5450 2350 
L 5750 2650 
L 6175 2200 
L 3825 2200 
L 4225 1925 
Q 4000 1825 3750 1450 
Q 3500 1075 2600 125 
L 5225 300 
Q 4900 750 4525 1175 
L 4575 1250 
Q 5025 925 5287 725 
Q 5550 525 5712 337 
Q 5875 150 5875 0 
Q 5875 -150 5775 -300 
Q 5675 -450 5650 -450 
Q 5575 -450 5525 -300 
Q 5425 -50 5300 175 
Q 3900 25 3175 -150 
Q 2450 -325 2350 -450 
L 2100 125 
Q 2425 125 2962 875 
Q 3500 1625 3700 2200 
L 2775 2200 
Q 2450 2200 2175 2125 
L 1950 2350 
L 3800 2350 
L 3800 3700 
L 3250 3700 
Q 2925 3700 2650 3625 
L 2425 3850 
L 3800 3850 
z
M 2375 4150 
Q 1400 1500 1312 1187 
Q 1225 875 1237 425 
Q 1250 -25 1275 -200 
Q 1275 -300 1150 -300 
Q 1050 -300 900 -250 
Q 750 -200 750 -25 
Q 750 100 825 350 
Q 900 600 900 750 
Q 900 925 787 1025 
Q 675 1125 300 1225 
L 300 1325 
Q 750 1275 862 1287 
Q 975 1300 1112 1512 
Q 1250 1725 2275 4175 
L 2375 4150 
z
M 325 3600 
Q 1200 3150 1200 2862 
Q 1200 2575 1062 2475 
Q 925 2375 825 2725 
Q 700 3050 275 3525 
L 325 3600 
z
M 900 5050 
Q 1600 4700 1662 4525 
Q 1725 4350 1725 4275 
Q 1725 4150 1637 4050 
Q 1550 3950 1500 3950 
Q 1425 3950 1350 4200 
Q 1225 4525 850 4975 
L 900 5050 
z
" transform="scale(0.015625)"/>
      </defs>
      <use xlink:href="#SimSun-672c"/>
      <use xlink:href="#SimSun-6587" x="100"/>
      <use xlink:href="#SimSun-65b9" x="200"/>
      <use xlink:href="#SimSun-6cd5" x="300"/>
     </g>
    </g>
    <g id="patch_21">
     <path d="M 415.84 61.6725 
L 447.84 61.6725 
L 447.84 50.4725 
L 415.84 50.4725 
z
" style="fill: #dd8452; stroke: #ffffff; stroke-linejoin: miter"/>
    </g>
    <g id="text_27">
     <!-- ippo -->
     <g style="fill: #262626" transform="translate(460.64 61.6725) scale(0.16 -0.16)">
      <defs>
       <path id="SimSun-69" d="M 1425 2525 
Q 1425 2625 1375 2687 
Q 1325 2750 1200 2750 
L 675 2750 
L 675 2900 
L 925 2900 
Q 1150 2900 1350 2937 
Q 1550 2975 1725 3075 
L 1775 3075 
L 1775 450 
Q 1775 350 1837 300 
Q 1900 250 2000 250 
L 2525 250 
L 2525 100 
L 675 100 
L 675 250 
L 1200 250 
Q 1325 250 1375 300 
Q 1425 350 1425 450 
L 1425 2525 
z
M 1725 3025 
L 1725 3025 
z
M 1625 4425 
Q 1750 4425 1850 4337 
Q 1950 4250 1950 4125 
Q 1950 4000 1850 3900 
Q 1750 3800 1625 3800 
Q 1500 3800 1400 3900 
Q 1300 4000 1300 4125 
Q 1300 4250 1400 4337 
Q 1500 4425 1625 4425 
z
" transform="scale(0.015625)"/>
       <path id="SimSun-70" d="M 1150 -675 
L 1325 -675 
L 1325 -825 
L 175 -825 
L 175 -675 
L 325 -675 
Q 450 -675 500 -625 
Q 550 -575 550 -450 
L 550 2500 
Q 550 2600 500 2662 
Q 450 2725 325 2725 
L 175 2725 
L 175 2875 
L 400 2875 
Q 525 2875 637 2900 
Q 750 2925 850 3000 
L 900 3000 
L 900 2425 
Q 1075 2675 1287 2800 
Q 1500 2925 1750 2925 
Q 2250 2925 2575 2587 
Q 2900 2250 2900 1525 
Q 2900 825 2550 450 
Q 2200 75 1725 75 
Q 1450 75 1262 162 
Q 1075 250 900 425 
L 900 -450 
Q 900 -575 975 -625 
Q 1050 -675 1150 -675 
z
M 900 750 
Q 1025 500 1212 375 
Q 1400 250 1650 250 
Q 2000 250 2250 562 
Q 2500 875 2500 1525 
Q 2500 2125 2312 2425 
Q 2125 2725 1750 2725 
Q 1525 2725 1300 2587 
Q 1075 2450 900 2150 
L 900 750 
z
" transform="scale(0.015625)"/>
       <path id="SimSun-6f" d="M 2900 1500 
Q 2900 875 2525 462 
Q 2150 50 1600 50 
Q 1025 50 662 475 
Q 300 900 300 1500 
Q 300 2050 662 2500 
Q 1025 2950 1600 2950 
Q 2200 2950 2550 2500 
Q 2900 2050 2900 1500 
z
M 700 1475 
Q 700 825 962 512 
Q 1225 200 1600 200 
Q 2025 200 2262 537 
Q 2500 875 2500 1475 
Q 2500 2125 2237 2462 
Q 1975 2800 1600 2800 
Q 1250 2800 975 2462 
Q 700 2125 700 1475 
z
" transform="scale(0.015625)"/>
      </defs>
      <use xlink:href="#SimSun-69"/>
      <use xlink:href="#SimSun-70" x="50"/>
      <use xlink:href="#SimSun-70" x="100"/>
      <use xlink:href="#SimSun-6f" x="150"/>
     </g>
    </g>
    <g id="patch_22">
     <path d="M 415.84 83.1725 
L 447.84 83.1725 
L 447.84 71.9725 
L 415.84 71.9725 
z
" style="fill: #55a868; stroke: #ffffff; stroke-linejoin: miter"/>
    </g>
    <g id="text_28">
     <!-- maddpg -->
     <g style="fill: #262626" transform="translate(460.64 83.1725) scale(0.16 -0.16)">
      <defs>
       <path id="SimSun-6d" d="M 175 2900 
Q 300 2900 425 2925 
Q 550 2950 625 3000 
L 675 3000 
L 675 2575 
Q 800 2775 950 2862 
Q 1100 2950 1275 2950 
Q 1500 2950 1625 2862 
Q 1750 2775 1775 2575 
Q 1900 2775 2062 2862 
Q 2225 2950 2400 2950 
Q 2700 2950 2812 2775 
Q 2925 2600 2925 2325 
L 2925 425 
Q 2925 325 2975 287 
Q 3025 250 3125 250 
L 3175 250 
L 3175 100 
L 2325 100 
L 2325 250 
L 2375 250 
Q 2475 250 2525 287 
Q 2575 325 2575 425 
L 2575 2300 
Q 2575 2575 2512 2662 
Q 2450 2750 2325 2750 
Q 2150 2750 2012 2625 
Q 1875 2500 1800 2275 
L 1800 425 
Q 1800 325 1850 287 
Q 1900 250 2000 250 
L 2050 250 
L 2050 100 
L 1200 100 
L 1200 250 
L 1250 250 
Q 1350 250 1400 287 
Q 1450 325 1450 425 
L 1450 2300 
Q 1450 2525 1400 2637 
Q 1350 2750 1200 2750 
Q 1025 2750 887 2625 
Q 750 2500 675 2250 
L 675 425 
Q 675 325 725 287 
Q 775 250 875 250 
L 925 250 
L 925 100 
L 75 100 
L 75 250 
L 125 250 
Q 225 250 275 287 
Q 325 325 325 425 
L 325 2600 
Q 325 2675 300 2712 
Q 275 2750 200 2750 
L 100 2750 
L 100 2900 
L 175 2900 
z
" transform="scale(0.015625)"/>
       <path id="SimSun-61" d="M 1225 75 
Q 775 75 525 287 
Q 275 500 275 775 
Q 275 1225 662 1512 
Q 1050 1800 2200 1925 
L 2200 2225 
Q 2200 2475 2087 2637 
Q 1975 2800 1575 2800 
Q 1150 2800 975 2662 
Q 800 2525 850 2375 
Q 875 2325 875 2275 
Q 875 2225 837 2150 
Q 800 2075 650 2075 
Q 550 2075 487 2137 
Q 425 2200 425 2325 
Q 425 2550 750 2750 
Q 1075 2950 1550 2950 
Q 2050 2950 2300 2762 
Q 2550 2575 2550 2225 
L 2550 575 
Q 2550 375 2587 337 
Q 2625 300 2725 300 
Q 2850 300 2900 412 
Q 2950 525 2950 725 
L 3075 725 
Q 3075 375 2950 237 
Q 2825 100 2625 100 
Q 2450 100 2350 175 
Q 2250 250 2200 425 
Q 1950 250 1737 162 
Q 1525 75 1225 75 
z
M 700 850 
Q 700 625 837 437 
Q 975 250 1275 250 
Q 1500 250 1725 337 
Q 1950 425 2200 600 
L 2200 1775 
Q 1350 1675 1025 1437 
Q 700 1200 700 850 
z
" transform="scale(0.015625)"/>
       <path id="SimSun-64" d="M 2300 2350 
Q 2175 2550 1975 2637 
Q 1775 2725 1575 2725 
Q 1200 2725 987 2375 
Q 775 2025 775 1450 
Q 775 850 975 562 
Q 1175 275 1550 275 
Q 1825 275 2012 450 
Q 2200 625 2300 975 
L 2300 2350 
z
M 1475 75 
Q 1025 75 700 437 
Q 375 800 375 1500 
Q 375 2150 725 2537 
Q 1075 2925 1550 2925 
Q 1750 2925 1962 2837 
Q 2175 2750 2300 2575 
L 2300 3925 
Q 2300 4075 2250 4150 
Q 2200 4225 2075 4225 
L 1875 4225 
L 1875 4375 
L 2150 4375 
Q 2275 4375 2400 4425 
Q 2525 4475 2650 4575 
L 2650 625 
Q 2650 500 2700 450 
Q 2750 400 2850 400 
L 3025 400 
L 3025 250 
L 2875 250 
Q 2775 250 2637 212 
Q 2500 175 2350 100 
L 2300 100 
L 2300 575 
Q 2175 350 1962 212 
Q 1750 75 1475 75 
z
" transform="scale(0.015625)"/>
       <path id="SimSun-67" d="M 875 1975 
Q 875 1675 1050 1462 
Q 1225 1250 1525 1250 
Q 1850 1250 2012 1437 
Q 2175 1625 2175 1975 
Q 2175 2400 1987 2587 
Q 1800 2775 1525 2775 
Q 1250 2775 1062 2587 
Q 875 2400 875 1975 
z
M 2100 625 
Q 2475 575 2650 412 
Q 2825 250 2825 -25 
Q 2825 -400 2512 -625 
Q 2200 -850 1525 -850 
Q 1000 -850 675 -637 
Q 350 -425 350 -150 
Q 350 25 475 200 
Q 600 375 875 475 
Q 725 550 637 637 
Q 550 725 550 850 
Q 550 1000 650 1112 
Q 750 1225 900 1300 
Q 750 1425 637 1600 
Q 525 1775 525 1975 
Q 525 2350 787 2637 
Q 1050 2925 1525 2925 
Q 1725 2925 1912 2875 
Q 2100 2825 2225 2700 
Q 2400 2825 2537 2887 
Q 2675 2950 2775 2950 
Q 2900 2950 2950 2862 
Q 3000 2775 3000 2700 
Q 3000 2600 2962 2537 
Q 2925 2475 2825 2475 
Q 2750 2475 2700 2512 
Q 2650 2550 2625 2625 
Q 2600 2700 2512 2687 
Q 2425 2675 2325 2600 
Q 2425 2500 2475 2325 
Q 2525 2150 2525 1975 
Q 2525 1675 2287 1387 
Q 2050 1100 1525 1100 
Q 1375 1100 1250 1137 
Q 1125 1175 1050 1225 
Q 950 1175 900 1100 
Q 850 1025 850 975 
Q 850 875 900 825 
Q 950 775 1050 775 
Q 1375 725 1637 687 
Q 1900 650 2100 625 
z
M 1075 425 
Q 850 325 762 187 
Q 675 50 675 -150 
Q 675 -350 900 -525 
Q 1125 -700 1575 -700 
Q 2000 -700 2250 -562 
Q 2500 -425 2500 -150 
Q 2500 25 2437 125 
Q 2375 225 2250 250 
Q 2000 300 1700 350 
Q 1400 375 1075 425 
z
" transform="scale(0.015625)"/>
      </defs>
      <use xlink:href="#SimSun-6d"/>
      <use xlink:href="#SimSun-61" x="50"/>
      <use xlink:href="#SimSun-64" x="100"/>
      <use xlink:href="#SimSun-64" x="150"/>
      <use xlink:href="#SimSun-70" x="200"/>
      <use xlink:href="#SimSun-67" x="250"/>
     </g>
    </g>
    <g id="patch_23">
     <path d="M 415.84 106.11 
L 447.84 106.11 
L 447.84 94.91 
L 415.84 94.91 
z
" style="fill: #c44e52; stroke: #ffffff; stroke-linejoin: miter"/>
    </g>
    <g id="text_29">
     <!-- 本文方法-ls -->
     <g style="fill: #262626" transform="translate(460.64 106.11) scale(0.16 -0.16)">
      <defs>
       <path id="SimSun-2d" d="M 200 2225 
L 200 2450 
L 2975 2450 
L 2975 2225 
L 200 2225 
z
" transform="scale(0.015625)"/>
       <path id="SimSun-6c" d="M 925 4375 
Q 1150 4375 1350 4425 
Q 1550 4475 1725 4575 
L 1775 4575 
L 1775 450 
Q 1775 350 1837 300 
Q 1900 250 2000 250 
L 2575 250 
L 2575 100 
L 625 100 
L 625 250 
L 1200 250 
Q 1325 250 1375 300 
Q 1425 350 1425 450 
L 1425 4025 
Q 1425 4125 1375 4175 
Q 1325 4225 1200 4225 
L 650 4225 
L 650 4375 
L 925 4375 
z
" transform="scale(0.015625)"/>
       <path id="SimSun-73" d="M 625 2175 
Q 625 2550 912 2750 
Q 1200 2950 1600 2950 
Q 1825 2950 2025 2900 
Q 2225 2825 2300 2825 
Q 2375 2825 2425 2850 
Q 2475 2875 2550 2950 
L 2650 2125 
L 2500 2100 
Q 2400 2425 2162 2612 
Q 1925 2800 1625 2800 
Q 1300 2800 1112 2675 
Q 925 2550 925 2325 
Q 925 2125 1012 2012 
Q 1100 1900 1325 1850 
Q 1500 1775 1775 1700 
Q 2025 1600 2250 1500 
Q 2450 1400 2587 1237 
Q 2725 1075 2725 875 
Q 2725 500 2462 287 
Q 2200 75 1700 75 
Q 1375 75 1225 150 
Q 1050 200 950 200 
Q 875 200 787 162 
Q 700 125 600 75 
L 525 1000 
L 675 1025 
Q 750 625 1000 425 
Q 1250 225 1700 225 
Q 2050 225 2237 350 
Q 2425 475 2425 725 
Q 2425 900 2325 1012 
Q 2225 1125 2125 1175 
Q 1875 1275 1575 1400 
Q 1275 1500 1050 1600 
Q 825 1700 725 1850 
Q 625 2000 625 2175 
z
" transform="scale(0.015625)"/>
      </defs>
      <use xlink:href="#SimSun-672c"/>
      <use xlink:href="#SimSun-6587" x="100"/>
      <use xlink:href="#SimSun-65b9" x="200"/>
      <use xlink:href="#SimSun-6cd5" x="300"/>
      <use xlink:href="#SimSun-2d" x="400"/>
      <use xlink:href="#SimSun-6c" x="450"/>
      <use xlink:href="#SimSun-73" x="500"/>
     </g>
    </g>
    <g id="patch_24">
     <path d="M 415.84 127.61 
L 447.84 127.61 
L 447.84 116.41 
L 415.84 116.41 
z
" style="fill: #8172b3; stroke: #ffffff; stroke-linejoin: miter"/>
    </g>
    <g id="text_30">
     <!-- ippo-ls -->
     <g style="fill: #262626" transform="translate(460.64 127.61) scale(0.16 -0.16)">
      <use xlink:href="#SimSun-69"/>
      <use xlink:href="#SimSun-70" x="50"/>
      <use xlink:href="#SimSun-70" x="100"/>
      <use xlink:href="#SimSun-6f" x="150"/>
      <use xlink:href="#SimSun-2d" x="200"/>
      <use xlink:href="#SimSun-6c" x="250"/>
      <use xlink:href="#SimSun-73" x="300"/>
     </g>
    </g>
    <g id="patch_25">
     <path d="M 415.84 149.11 
L 447.84 149.11 
L 447.84 137.91 
L 415.84 137.91 
z
" style="fill: #937860; stroke: #ffffff; stroke-linejoin: miter"/>
    </g>
    <g id="text_31">
     <!-- maddpg-ls -->
     <g style="fill: #262626" transform="translate(460.64 149.11) scale(0.16 -0.16)">
      <use xlink:href="#SimSun-6d"/>
      <use xlink:href="#SimSun-61" x="50"/>
      <use xlink:href="#SimSun-64" x="100"/>
      <use xlink:href="#SimSun-64" x="150"/>
      <use xlink:href="#SimSun-70" x="200"/>
      <use xlink:href="#SimSun-67" x="250"/>
      <use xlink:href="#SimSun-2d" x="300"/>
      <use xlink:href="#SimSun-6c" x="350"/>
      <use xlink:href="#SimSun-73" x="400"/>
     </g>
    </g>
   </g>
  </g>
 </g>
 <defs>
  <clipPath id="p17cf8bebb5">
   <rect x="63.45" y="12.96" width="499.59" height="307.75"/>
  </clipPath>
 </defs>
</svg>
