<?xml version="1.0" encoding="utf-8" standalone="no"?>
<!DOCTYPE svg PUBLIC "-//W3C//DTD SVG 1.1//EN"
  "http://www.w3.org/Graphics/SVG/1.1/DTD/svg11.dtd">
<svg xmlns:xlink="http://www.w3.org/1999/xlink" width="576pt" height="360pt" viewBox="0 0 576 360" xmlns="http://www.w3.org/2000/svg" version="1.1">
 <metadata>
  <rdf:RDF xmlns:dc="http://purl.org/dc/elements/1.1/" xmlns:cc="http://creativecommons.org/ns#" xmlns:rdf="http://www.w3.org/1999/02/22-rdf-syntax-ns#">
   <cc:Work>
    <dc:type rdf:resource="http://purl.org/dc/dcmitype/StillImage"/>
    <dc:date>2023-02-22T18:05:51.563307</dc:date>
    <dc:format>image/svg+xml</dc:format>
    <dc:creator>
     <cc:Agent>
      <dc:title>Matplotlib v3.7.0, https://matplotlib.org/</dc:title>
     </cc:Agent>
    </dc:creator>
   </cc:Work>
  </rdf:RDF>
 </metadata>
 <defs>
  <style type="text/css">*{stroke-linejoin: round; stroke-linecap: butt}</style>
 </defs>
 <g id="figure_1">
  <g id="patch_1">
   <path d="M 0 360 
L 576 360 
L 576 0 
L 0 0 
z
" style="fill: #ffffff"/>
  </g>
  <g id="axes_1">
   <g id="patch_2">
    <path d="M 60.84 302.81625 
L 559.08 302.81625 
L 559.08 12.96 
L 60.84 12.96 
z
" style="fill: #ffffff"/>
   </g>
   <g id="matplotlib.axis_1">
    <g id="xtick_1">
     <g id="line2d_1">
      <defs>
       <path id="mab24c454d4" d="M 0 0 
L 0 6 
" style="stroke: #262626; stroke-width: 1.25"/>
      </defs>
      <g>
       <use xlink:href="#mab24c454d4" x="60.84" y="302.81625" style="fill: #262626; stroke: #262626; stroke-width: 1.25"/>
      </g>
     </g>
     <g id="text_1">
      <!-- 0 -->
      <g style="fill: #262626" transform="translate(56.84 323.42625) scale(0.16 -0.16)">
       <defs>
        <path id="TimesNewRomanPSMT-30" d="M 231 2094 
Q 231 2819 450 3342 
Q 669 3866 1031 4122 
Q 1313 4325 1613 4325 
Q 2100 4325 2488 3828 
Q 2972 3213 2972 2159 
Q 2972 1422 2759 906 
Q 2547 391 2217 158 
Q 1888 -75 1581 -75 
Q 975 -75 572 641 
Q 231 1244 231 2094 
z
M 844 2016 
Q 844 1141 1059 588 
Q 1238 122 1591 122 
Q 1759 122 1940 273 
Q 2122 425 2216 781 
Q 2359 1319 2359 2297 
Q 2359 3022 2209 3506 
Q 2097 3866 1919 4016 
Q 1791 4119 1609 4119 
Q 1397 4119 1231 3928 
Q 1006 3669 925 3112 
Q 844 2556 844 2016 
z
" transform="scale(0.015625)"/>
       </defs>
       <use xlink:href="#TimesNewRomanPSMT-30"/>
      </g>
     </g>
    </g>
    <g id="xtick_2">
     <g id="line2d_2">
      <g>
       <use xlink:href="#mab24c454d4" x="102.36" y="302.81625" style="fill: #262626; stroke: #262626; stroke-width: 1.25"/>
      </g>
     </g>
     <g id="text_2">
      <!-- 2 -->
      <g style="fill: #262626" transform="translate(98.36 323.42625) scale(0.16 -0.16)">
       <defs>
        <path id="TimesNewRomanPSMT-32" d="M 2934 816 
L 2638 0 
L 138 0 
L 138 116 
Q 1241 1122 1691 1759 
Q 2141 2397 2141 2925 
Q 2141 3328 1894 3587 
Q 1647 3847 1303 3847 
Q 991 3847 742 3664 
Q 494 3481 375 3128 
L 259 3128 
Q 338 3706 661 4015 
Q 984 4325 1469 4325 
Q 1984 4325 2329 3994 
Q 2675 3663 2675 3213 
Q 2675 2891 2525 2569 
Q 2294 2063 1775 1497 
Q 997 647 803 472 
L 1909 472 
Q 2247 472 2383 497 
Q 2519 522 2628 598 
Q 2738 675 2819 816 
L 2934 816 
z
" transform="scale(0.015625)"/>
       </defs>
       <use xlink:href="#TimesNewRomanPSMT-32"/>
      </g>
     </g>
    </g>
    <g id="xtick_3">
     <g id="line2d_3">
      <g>
       <use xlink:href="#mab24c454d4" x="143.88" y="302.81625" style="fill: #262626; stroke: #262626; stroke-width: 1.25"/>
      </g>
     </g>
     <g id="text_3">
      <!-- 4 -->
      <g style="fill: #262626" transform="translate(139.88 323.42625) scale(0.16 -0.16)">
       <defs>
        <path id="TimesNewRomanPSMT-34" d="M 2978 1563 
L 2978 1119 
L 2409 1119 
L 2409 0 
L 1894 0 
L 1894 1119 
L 100 1119 
L 100 1519 
L 2066 4325 
L 2409 4325 
L 2409 1563 
L 2978 1563 
z
M 1894 1563 
L 1894 3666 
L 406 1563 
L 1894 1563 
z
" transform="scale(0.015625)"/>
       </defs>
       <use xlink:href="#TimesNewRomanPSMT-34"/>
      </g>
     </g>
    </g>
    <g id="xtick_4">
     <g id="line2d_4">
      <g>
       <use xlink:href="#mab24c454d4" x="185.4" y="302.81625" style="fill: #262626; stroke: #262626; stroke-width: 1.25"/>
      </g>
     </g>
     <g id="text_4">
      <!-- 6 -->
      <g style="fill: #262626" transform="translate(181.4 323.42625) scale(0.16 -0.16)">
       <defs>
        <path id="TimesNewRomanPSMT-36" d="M 2869 4325 
L 2869 4209 
Q 2456 4169 2195 4045 
Q 1934 3922 1679 3669 
Q 1425 3416 1258 3105 
Q 1091 2794 978 2366 
Q 1428 2675 1881 2675 
Q 2316 2675 2634 2325 
Q 2953 1975 2953 1425 
Q 2953 894 2631 456 
Q 2244 -75 1606 -75 
Q 1172 -75 869 213 
Q 275 772 275 1663 
Q 275 2231 503 2743 
Q 731 3256 1154 3653 
Q 1578 4050 1965 4187 
Q 2353 4325 2688 4325 
L 2869 4325 
z
M 925 2138 
Q 869 1716 869 1456 
Q 869 1156 980 804 
Q 1091 453 1309 247 
Q 1469 100 1697 100 
Q 1969 100 2183 356 
Q 2397 613 2397 1088 
Q 2397 1622 2184 2012 
Q 1972 2403 1581 2403 
Q 1463 2403 1327 2353 
Q 1191 2303 925 2138 
z
" transform="scale(0.015625)"/>
       </defs>
       <use xlink:href="#TimesNewRomanPSMT-36"/>
      </g>
     </g>
    </g>
    <g id="xtick_5">
     <g id="line2d_5">
      <g>
       <use xlink:href="#mab24c454d4" x="226.92" y="302.81625" style="fill: #262626; stroke: #262626; stroke-width: 1.25"/>
      </g>
     </g>
     <g id="text_5">
      <!-- 8 -->
      <g style="fill: #262626" transform="translate(222.92 323.42625) scale(0.16 -0.16)">
       <defs>
        <path id="TimesNewRomanPSMT-38" d="M 1228 2134 
Q 725 2547 579 2797 
Q 434 3047 434 3316 
Q 434 3728 753 4026 
Q 1072 4325 1600 4325 
Q 2113 4325 2425 4047 
Q 2738 3769 2738 3413 
Q 2738 3175 2569 2928 
Q 2400 2681 1866 2347 
Q 2416 1922 2594 1678 
Q 2831 1359 2831 1006 
Q 2831 559 2490 242 
Q 2150 -75 1597 -75 
Q 994 -75 656 303 
Q 388 606 388 966 
Q 388 1247 577 1523 
Q 766 1800 1228 2134 
z
M 1719 2469 
Q 2094 2806 2194 3001 
Q 2294 3197 2294 3444 
Q 2294 3772 2109 3958 
Q 1925 4144 1606 4144 
Q 1288 4144 1088 3959 
Q 888 3775 888 3528 
Q 888 3366 970 3203 
Q 1053 3041 1206 2894 
L 1719 2469 
z
M 1375 2016 
Q 1116 1797 991 1539 
Q 866 1281 866 981 
Q 866 578 1086 336 
Q 1306 94 1647 94 
Q 1984 94 2187 284 
Q 2391 475 2391 747 
Q 2391 972 2272 1150 
Q 2050 1481 1375 2016 
z
" transform="scale(0.015625)"/>
       </defs>
       <use xlink:href="#TimesNewRomanPSMT-38"/>
      </g>
     </g>
    </g>
    <g id="xtick_6">
     <g id="line2d_6">
      <g>
       <use xlink:href="#mab24c454d4" x="268.44" y="302.81625" style="fill: #262626; stroke: #262626; stroke-width: 1.25"/>
      </g>
     </g>
     <g id="text_6">
      <!-- 10 -->
      <g style="fill: #262626" transform="translate(260.44 323.42625) scale(0.16 -0.16)">
       <defs>
        <path id="TimesNewRomanPSMT-31" d="M 750 3822 
L 1781 4325 
L 1884 4325 
L 1884 747 
Q 1884 391 1914 303 
Q 1944 216 2037 169 
Q 2131 122 2419 116 
L 2419 0 
L 825 0 
L 825 116 
Q 1125 122 1212 167 
Q 1300 213 1334 289 
Q 1369 366 1369 747 
L 1369 3034 
Q 1369 3497 1338 3628 
Q 1316 3728 1258 3775 
Q 1200 3822 1119 3822 
Q 1003 3822 797 3725 
L 750 3822 
z
" transform="scale(0.015625)"/>
       </defs>
       <use xlink:href="#TimesNewRomanPSMT-31"/>
       <use xlink:href="#TimesNewRomanPSMT-30" x="50"/>
      </g>
     </g>
    </g>
    <g id="xtick_7">
     <g id="line2d_7">
      <g>
       <use xlink:href="#mab24c454d4" x="309.96" y="302.81625" style="fill: #262626; stroke: #262626; stroke-width: 1.25"/>
      </g>
     </g>
     <g id="text_7">
      <!-- 12 -->
      <g style="fill: #262626" transform="translate(301.96 323.42625) scale(0.16 -0.16)">
       <use xlink:href="#TimesNewRomanPSMT-31"/>
       <use xlink:href="#TimesNewRomanPSMT-32" x="50"/>
      </g>
     </g>
    </g>
    <g id="xtick_8">
     <g id="line2d_8">
      <g>
       <use xlink:href="#mab24c454d4" x="351.48" y="302.81625" style="fill: #262626; stroke: #262626; stroke-width: 1.25"/>
      </g>
     </g>
     <g id="text_8">
      <!-- 14 -->
      <g style="fill: #262626" transform="translate(343.48 323.42625) scale(0.16 -0.16)">
       <use xlink:href="#TimesNewRomanPSMT-31"/>
       <use xlink:href="#TimesNewRomanPSMT-34" x="50"/>
      </g>
     </g>
    </g>
    <g id="xtick_9">
     <g id="line2d_9">
      <g>
       <use xlink:href="#mab24c454d4" x="393" y="302.81625" style="fill: #262626; stroke: #262626; stroke-width: 1.25"/>
      </g>
     </g>
     <g id="text_9">
      <!-- 16 -->
      <g style="fill: #262626" transform="translate(385 323.42625) scale(0.16 -0.16)">
       <use xlink:href="#TimesNewRomanPSMT-31"/>
       <use xlink:href="#TimesNewRomanPSMT-36" x="50"/>
      </g>
     </g>
    </g>
    <g id="xtick_10">
     <g id="line2d_10">
      <g>
       <use xlink:href="#mab24c454d4" x="434.52" y="302.81625" style="fill: #262626; stroke: #262626; stroke-width: 1.25"/>
      </g>
     </g>
     <g id="text_10">
      <!-- 18 -->
      <g style="fill: #262626" transform="translate(426.52 323.42625) scale(0.16 -0.16)">
       <use xlink:href="#TimesNewRomanPSMT-31"/>
       <use xlink:href="#TimesNewRomanPSMT-38" x="50"/>
      </g>
     </g>
    </g>
    <g id="xtick_11">
     <g id="line2d_11">
      <g>
       <use xlink:href="#mab24c454d4" x="476.04" y="302.81625" style="fill: #262626; stroke: #262626; stroke-width: 1.25"/>
      </g>
     </g>
     <g id="text_11">
      <!-- 20 -->
      <g style="fill: #262626" transform="translate(468.04 323.42625) scale(0.16 -0.16)">
       <use xlink:href="#TimesNewRomanPSMT-32"/>
       <use xlink:href="#TimesNewRomanPSMT-30" x="50"/>
      </g>
     </g>
    </g>
    <g id="xtick_12">
     <g id="line2d_12">
      <g>
       <use xlink:href="#mab24c454d4" x="517.56" y="302.81625" style="fill: #262626; stroke: #262626; stroke-width: 1.25"/>
      </g>
     </g>
     <g id="text_12">
      <!-- 22 -->
      <g style="fill: #262626" transform="translate(509.56 323.42625) scale(0.16 -0.16)">
       <use xlink:href="#TimesNewRomanPSMT-32"/>
       <use xlink:href="#TimesNewRomanPSMT-32" x="50"/>
      </g>
     </g>
    </g>
    <g id="xtick_13">
     <g id="line2d_13">
      <g>
       <use xlink:href="#mab24c454d4" x="559.08" y="302.81625" style="fill: #262626; stroke: #262626; stroke-width: 1.25"/>
      </g>
     </g>
     <g id="text_13">
      <!-- 0 -->
      <g style="fill: #262626" transform="translate(555.08 323.42625) scale(0.16 -0.16)">
       <use xlink:href="#TimesNewRomanPSMT-30"/>
      </g>
     </g>
    </g>
    <g id="text_14">
     <!-- 时间 -->
     <g style="fill: #262626" transform="translate(291.96 344.840937) scale(0.18 -0.18)">
      <defs>
       <path id="SimSun-65f6" d="M 4500 3600 
Q 4500 4575 4475 5225 
L 5100 4900 
L 4850 4725 
L 4850 3600 
L 5225 3600 
L 5550 3925 
L 6025 3450 
L 4850 3450 
L 4850 100 
Q 4850 -375 4300 -575 
Q 4275 -200 3475 -25 
L 3475 100 
Q 4150 0 4325 25 
Q 4500 50 4500 325 
L 4500 3450 
L 3200 3450 
Q 2875 3450 2600 3375 
L 2375 3600 
L 4500 3600 
z
M 2875 2825 
Q 3525 2375 3637 2200 
Q 3750 2025 3750 1925 
Q 3750 1800 3637 1637 
Q 3525 1475 3475 1475 
Q 3400 1475 3325 1775 
Q 3200 2225 2800 2750 
L 2875 2825 
z
M 925 4150 
L 925 2650 
L 1950 2650 
L 1950 4150 
L 925 4150 
z
M 925 2500 
L 925 900 
L 1950 900 
L 1950 2500 
L 925 2500 
z
M 2300 2000 
Q 2300 800 2325 450 
L 1950 250 
L 1950 750 
L 925 750 
L 925 225 
L 550 25 
Q 575 825 575 2425 
Q 575 4025 550 4500 
L 950 4300 
L 1900 4300 
L 2100 4550 
L 2500 4225 
L 2300 4050 
L 2300 2000 
z
" transform="scale(0.015625)"/>
       <path id="SimSun-95f4" d="M 2150 525 
Q 2175 1325 2175 2112 
Q 2175 2900 2150 3675 
L 2525 3450 
L 3750 3450 
L 4000 3700 
L 4325 3375 
L 4125 3200 
Q 4125 1550 4150 775 
L 3800 575 
L 3800 975 
L 2500 975 
L 2500 700 
L 2150 525 
z
M 2500 3300 
L 2500 2325 
L 3800 2325 
L 3800 3300 
L 2500 3300 
z
M 2500 2175 
L 2500 1125 
L 3800 1125 
L 3800 2175 
L 2500 2175 
z
M 1275 5200 
Q 1850 4825 1950 4675 
Q 2050 4525 2050 4425 
Q 2050 4275 1950 4137 
Q 1850 4000 1825 4000 
Q 1750 4000 1675 4275 
Q 1550 4650 1200 5125 
L 1275 5200 
z
M 1125 425 
Q 1125 25 1150 -375 
L 750 -525 
Q 775 -150 775 1950 
Q 775 4050 750 4425 
L 1350 4125 
L 1125 3975 
L 1125 425 
z
M 4225 125 
Q 5025 0 5125 37 
Q 5225 75 5225 250 
L 5225 4450 
L 3225 4450 
Q 2900 4450 2625 4375 
L 2400 4600 
L 5175 4600 
L 5425 4850 
L 5775 4500 
L 5575 4350 
L 5575 225 
Q 5575 -100 5462 -250 
Q 5350 -400 5000 -550 
Q 4800 -125 4225 25 
L 4225 125 
z
" transform="scale(0.015625)"/>
      </defs>
      <use xlink:href="#SimSun-65f6"/>
      <use xlink:href="#SimSun-95f4" x="100"/>
     </g>
    </g>
   </g>
   <g id="matplotlib.axis_2">
    <g id="ytick_1">
     <g id="line2d_14">
      <defs>
       <path id="mad3c4da90e" d="M 0 0 
L -6 0 
" style="stroke: #262626; stroke-width: 1.25"/>
      </defs>
      <g>
       <use xlink:href="#mad3c4da90e" x="60.84" y="300.470253" style="fill: #262626; stroke: #262626; stroke-width: 1.25"/>
      </g>
     </g>
     <g id="text_15">
      <!-- -4 -->
      <g style="fill: #262626" transform="translate(38.0125 306.025253) scale(0.16 -0.16)">
       <defs>
        <path id="TimesNewRomanPSMT-2d" d="M 259 1672 
L 1875 1672 
L 1875 1200 
L 259 1200 
L 259 1672 
z
" transform="scale(0.015625)"/>
       </defs>
       <use xlink:href="#TimesNewRomanPSMT-2d"/>
       <use xlink:href="#TimesNewRomanPSMT-34" x="33.300781"/>
      </g>
     </g>
    </g>
    <g id="ytick_2">
     <g id="line2d_15">
      <g>
       <use xlink:href="#mad3c4da90e" x="60.84" y="258.577458" style="fill: #262626; stroke: #262626; stroke-width: 1.25"/>
      </g>
     </g>
     <g id="text_16">
      <!-- -2 -->
      <g style="fill: #262626" transform="translate(38.0125 264.132458) scale(0.16 -0.16)">
       <use xlink:href="#TimesNewRomanPSMT-2d"/>
       <use xlink:href="#TimesNewRomanPSMT-32" x="33.300781"/>
      </g>
     </g>
    </g>
    <g id="ytick_3">
     <g id="line2d_16">
      <g>
       <use xlink:href="#mad3c4da90e" x="60.84" y="216.684663" style="fill: #262626; stroke: #262626; stroke-width: 1.25"/>
      </g>
     </g>
     <g id="text_17">
      <!-- 0 -->
      <g style="fill: #262626" transform="translate(43.34 222.239663) scale(0.16 -0.16)">
       <use xlink:href="#TimesNewRomanPSMT-30"/>
      </g>
     </g>
    </g>
    <g id="ytick_4">
     <g id="line2d_17">
      <g>
       <use xlink:href="#mad3c4da90e" x="60.84" y="174.791868" style="fill: #262626; stroke: #262626; stroke-width: 1.25"/>
      </g>
     </g>
     <g id="text_18">
      <!-- 2 -->
      <g style="fill: #262626" transform="translate(43.34 180.346868) scale(0.16 -0.16)">
       <use xlink:href="#TimesNewRomanPSMT-32"/>
      </g>
     </g>
    </g>
    <g id="ytick_5">
     <g id="line2d_18">
      <g>
       <use xlink:href="#mad3c4da90e" x="60.84" y="132.899073" style="fill: #262626; stroke: #262626; stroke-width: 1.25"/>
      </g>
     </g>
     <g id="text_19">
      <!-- 4 -->
      <g style="fill: #262626" transform="translate(43.34 138.454073) scale(0.16 -0.16)">
       <use xlink:href="#TimesNewRomanPSMT-34"/>
      </g>
     </g>
    </g>
    <g id="ytick_6">
     <g id="line2d_19">
      <g>
       <use xlink:href="#mad3c4da90e" x="60.84" y="91.006277" style="fill: #262626; stroke: #262626; stroke-width: 1.25"/>
      </g>
     </g>
     <g id="text_20">
      <!-- 6 -->
      <g style="fill: #262626" transform="translate(43.34 96.561277) scale(0.16 -0.16)">
       <use xlink:href="#TimesNewRomanPSMT-36"/>
      </g>
     </g>
    </g>
    <g id="ytick_7">
     <g id="line2d_20">
      <g>
       <use xlink:href="#mad3c4da90e" x="60.84" y="49.113482" style="fill: #262626; stroke: #262626; stroke-width: 1.25"/>
      </g>
     </g>
     <g id="text_21">
      <!-- 8 -->
      <g style="fill: #262626" transform="translate(43.34 54.668482) scale(0.16 -0.16)">
       <use xlink:href="#TimesNewRomanPSMT-38"/>
      </g>
     </g>
    </g>
    <g id="text_22">
     <!-- 功率$\mathrm{(kW)}$ -->
     <g style="fill: #262626" transform="translate(30.7725 194.878125) rotate(-90) scale(0.18 -0.18)">
      <defs>
       <path id="SimSun-529f" d="M 4000 3475 
Q 4025 4675 3975 5250 
L 4575 4975 
L 4350 4775 
Q 4350 4000 4325 3475 
L 5375 3475 
L 5600 3725 
L 5975 3400 
L 5775 3250 
Q 5675 1350 5625 687 
Q 5575 25 5387 -225 
Q 5200 -475 4825 -600 
Q 4800 -250 3875 50 
L 3900 175 
Q 4750 25 4962 25 
Q 5175 25 5250 550 
Q 5325 1075 5425 3325 
L 4325 3325 
Q 4250 2300 4037 1625 
Q 3825 950 3325 412 
Q 2825 -125 1825 -600 
L 1750 -525 
Q 2575 -50 3025 462 
Q 3475 975 3700 1612 
Q 3925 2250 4000 3325 
L 3325 3325 
L 3025 3275 
L 2825 3475 
L 4000 3475 
z
M 1950 1275 
Q 2650 1450 3175 1625 
L 3225 1525 
Q 2125 1125 1462 850 
Q 800 575 700 425 
L 350 900 
Q 725 950 1625 1200 
L 1625 4000 
L 1250 4000 
Q 925 4000 650 3925 
L 425 4150 
L 2500 4150 
L 2775 4425 
L 3200 4000 
L 1950 4000 
L 1950 1275 
z
" transform="scale(0.015625)"/>
       <path id="SimSun-7387" d="M 875 3725 
L 925 3800 
Q 1375 3650 1550 3525 
Q 1725 3400 1725 3250 
Q 1725 3175 1662 3025 
Q 1600 2875 1550 2875 
Q 1500 2875 1425 3050 
Q 1275 3325 875 3725 
z
M 550 1850 
Q 875 1925 2000 2575 
L 2050 2500 
Q 1675 2225 1337 1937 
Q 1000 1650 875 1425 
L 550 1850 
z
M 5200 3450 
Q 4800 3150 4275 2800 
L 4225 2875 
Q 4775 3400 5050 3925 
L 5450 3525 
L 5200 3450 
z
M 4325 2500 
L 4350 2575 
Q 5225 2350 5375 2212 
Q 5525 2075 5525 1900 
Q 5525 1775 5487 1662 
Q 5450 1550 5400 1550 
Q 5325 1550 5200 1800 
Q 4975 2150 4325 2500 
z
M 3150 3900 
Q 2500 3300 2300 3150 
Q 2800 3150 3400 3175 
Q 3700 3500 3850 3825 
L 4250 3450 
Q 4050 3400 3450 2825 
Q 2850 2250 2475 1950 
Q 3150 1975 3850 2000 
Q 3750 2175 3550 2450 
L 3600 2500 
Q 4050 2250 4200 2100 
Q 4350 1950 4350 1850 
Q 4350 1775 4250 1625 
Q 4150 1475 4100 1475 
Q 4075 1475 4050 1550 
Q 4000 1700 3900 1900 
Q 3650 1875 3075 1800 
L 3500 1550 
L 3325 1425 
L 3325 975 
L 5325 975 
L 5650 1300 
L 6100 825 
L 3325 825 
Q 3325 -275 3350 -525 
L 2975 -650 
Q 3000 0 3000 825 
L 1125 825 
Q 800 825 525 750 
L 300 975 
L 3000 975 
L 3000 1775 
Q 2450 1700 2200 1525 
L 1950 1950 
Q 2275 1950 2675 2350 
Q 3075 2750 3325 3050 
Q 2400 2950 2150 2775 
L 1950 3175 
Q 2150 3150 2475 3575 
Q 2800 4000 2900 4225 
L 1450 4225 
Q 1125 4225 850 4150 
L 625 4375 
L 3100 4375 
Q 3050 4800 2675 5200 
L 2725 5250 
Q 3225 5050 3337 4912 
Q 3450 4775 3450 4700 
Q 3450 4550 3250 4375 
L 5025 4375 
L 5350 4675 
L 5775 4225 
L 3050 4225 
L 3375 3950 
L 3150 3900 
z
" transform="scale(0.015625)"/>
       <path id="STIXGeneral-Regular-28" d="M 1946 -1030 
L 1869 -1133 
Q 1126 -710 716 32 
Q 307 774 307 1613 
Q 307 3386 1888 4326 
L 1946 4224 
Q 1293 3667 1075 3126 
Q 858 2586 858 1632 
Q 858 685 1082 96 
Q 1306 -493 1946 -1030 
z
" transform="scale(0.015625)"/>
       <path id="STIXGeneral-Regular-6b" d="M 3232 0 
L 1837 0 
L 1837 96 
L 1958 96 
Q 2093 96 2093 192 
Q 2093 250 2022 339 
L 1062 1606 
L 1062 429 
Q 1062 262 1142 185 
Q 1222 109 1414 102 
L 1542 96 
L 1542 0 
L 45 0 
L 45 96 
Q 390 154 457 214 
Q 525 275 525 525 
L 525 3610 
Q 525 3840 467 3920 
Q 410 4000 250 4000 
Q 211 4000 45 3987 
L 45 4090 
L 237 4141 
Q 621 4243 1037 4371 
L 1062 4358 
L 1062 1670 
L 1939 2451 
Q 2086 2586 2086 2675 
Q 2086 2739 2019 2761 
Q 1952 2784 1766 2790 
L 1766 2880 
L 3072 2880 
L 3072 2784 
Q 2752 2784 2505 2646 
Q 2259 2509 1690 1978 
L 1504 1805 
L 2483 563 
Q 2829 122 3232 96 
L 3232 0 
z
" transform="scale(0.015625)"/>
       <path id="STIXGeneral-Regular-57" d="M 5965 4237 
L 5965 4115 
Q 5709 4064 5616 3990 
Q 5523 3917 5434 3667 
Q 4704 1709 4128 -70 
L 4032 -70 
Q 3642 1011 3008 2637 
L 2022 -70 
L 1926 -70 
Q 1709 576 1277 1753 
Q 845 2931 698 3347 
Q 538 3808 406 3958 
Q 275 4109 32 4115 
L 32 4237 
L 1594 4237 
L 1594 4115 
Q 1357 4109 1270 4064 
Q 1184 4019 1184 3917 
Q 1184 3808 1254 3616 
L 2176 1210 
L 2842 3021 
L 2662 3501 
Q 2509 3917 2400 4013 
Q 2291 4109 2010 4115 
L 2010 4237 
L 3706 4237 
L 3706 4115 
Q 3213 4102 3213 3891 
Q 3213 3808 3322 3520 
L 4237 1190 
L 5043 3360 
Q 5152 3667 5152 3853 
Q 5152 4109 4704 4115 
L 4704 4237 
L 5965 4237 
z
" transform="scale(0.015625)"/>
       <path id="STIXGeneral-Regular-29" d="M 186 4224 
L 262 4326 
Q 992 3891 1408 3148 
Q 1824 2406 1824 1581 
Q 1824 -166 243 -1133 
L 186 -1030 
Q 845 -486 1059 54 
Q 1274 595 1274 1562 
Q 1274 2534 1059 3120 
Q 845 3706 186 4224 
z
" transform="scale(0.015625)"/>
      </defs>
      <use xlink:href="#SimSun-529f" transform="translate(0 0.96875)"/>
      <use xlink:href="#SimSun-7387" transform="translate(100 0.96875)"/>
      <use xlink:href="#STIXGeneral-Regular-28" transform="translate(200 0.96875)"/>
      <use xlink:href="#STIXGeneral-Regular-6b" transform="translate(233.299988 0.96875)"/>
      <use xlink:href="#STIXGeneral-Regular-57" transform="translate(283.299973 0.96875)"/>
      <use xlink:href="#STIXGeneral-Regular-29" transform="translate(377.699966 0.96875)"/>
     </g>
    </g>
   </g>
   <g id="line2d_21">
    <path d="M 60.84 206.839856 
L 66.03 203.15329 
L 71.22 189.789489 
L 76.41 205.331716 
L 81.6 202.839094 
L 86.79 187.296867 
L 91.98 208.180426 
L 97.17 207.824337 
L 102.36 185.181281 
L 107.55 207.824337 
L 112.74 204.053985 
L 117.93 207.80339 
L 123.12 192.051699 
L 128.31 202.755309 
L 133.5 208.138533 
L 138.69 208.159479 
L 143.88 207.80339 
L 149.07 190.313148 
L 154.26 207.86623 
L 159.45 205.164144 
L 164.64 207.86623 
L 169.83 207.950015 
L 175.02 208.012854 
L 180.21 208.38989 
L 185.4 206.504714 
L 190.59 192.240217 
L 195.78 207.887176 
L 200.97 207.929069 
L 206.16 208.578407 
L 211.35 207.991908 
L 216.54 208.054747 
L 221.73 207.970962 
L 226.92 208.473675 
L 232.11 207.845283 
L 237.3 204.619538 
L 242.49 191.00438 
L 247.68 205.583072 
L 252.87 211.17576 
L 258.06 209.500049 
L 263.25 204.242503 
L 268.44 183.296105 
L 273.63 208.431782 
L 278.82 194.146339 
L 284.01 188.888793 
L 289.2 202.776255 
L 294.39 176.341901 
L 299.58 199.571456 
L 304.77 173.304674 
L 309.96 189.705703 
L 315.15 164.863275 
L 320.34 193.497001 
L 325.53 152.316383 
L 330.72 198.649815 
L 335.91 151.981241 
L 341.1 172.508711 
L 346.29 178.750737 
L 351.48 143.770253 
L 356.67 154.725219 
L 361.86 194.669999 
L 367.05 134.763302 
L 372.24 150.808243 
L 377.43 163.920688 
L 382.62 183.149481 
L 387.81 134.260589 
L 393 143.079022 
L 398.19 150.075119 
L 403.38 150.221743 
L 408.57 137.674851 
L 413.76 136.899835 
L 418.95 146.681802 
L 424.14 171.272873 
L 429.33 160.296961 
L 434.52 130.553076 
L 439.71 149.781869 
L 444.9 193.015234 
L 450.09 148.608871 
L 455.28 145.927732 
L 460.47 178.331809 
L 465.66 164.444347 
L 470.85 171.23098 
L 476.04 183.358944 
L 481.23 174.016851 
L 486.42 181.892697 
L 491.61 167.481575 
L 496.8 193.245644 
L 501.99 185.076549 
L 507.18 181.452822 
L 512.37 198.607922 
L 517.56 163.627438 
L 522.75 202.62963 
L 527.94 176.9284 
L 533.13 207.510141 
L 538.32 178.164238 
L 543.51 207.531087 
L 548.7 179.169665 
L 553.89 198.607922 
" clip-path="url(#p51f1b5ee62)" style="fill: none; stroke: #4c72b0; stroke-width: 2; stroke-linecap: round"/>
   </g>
   <g id="line2d_22">
    <path d="M 60.84 201.016758 
L 66.03 175.587831 
L 71.22 172.026943 
L 76.41 206.902695 
L 81.6 171.147195 
L 86.79 180.007521 
L 91.98 201.414739 
L 97.17 174.582404 
L 102.36 202.964773 
L 107.55 182.353517 
L 112.74 186.040083 
L 117.93 197.518709 
L 123.12 173.681709 
L 128.31 207.887176 
L 133.5 175.713509 
L 138.69 189.014472 
L 143.88 196.010569 
L 149.07 179.735218 
L 154.26 210.296012 
L 159.45 180.07036 
L 164.64 210.19128 
L 169.83 178.604112 
L 175.02 208.180426 
L 180.21 179.798057 
L 185.4 204.682377 
L 190.59 178.101399 
L 195.78 191.339522 
L 200.97 187.967152 
L 206.16 175.357421 
L 211.35 176.509472 
L 216.54 159.417212 
L 221.73 157.992857 
L 226.92 82.73245 
L 232.11 129.694274 
L 237.3 110.23507 
L 242.49 109.522893 
L 247.68 174.121583 
L 252.87 149.446727 
L 258.06 162.098351 
L 263.25 169.450536 
L 268.44 137.339709 
L 273.63 88.367031 
L 278.82 90.608296 
L 284.01 61.597535 
L 289.2 73.348464 
L 294.39 101.877458 
L 299.58 54.035886 
L 304.77 55.711598 
L 309.96 90.692081 
L 315.15 41.572779 
L 320.34 107.616771 
L 325.53 104.391026 
L 330.72 153.866417 
L 335.91 143.874985 
L 341.1 136.103871 
L 346.29 161.595637 
L 351.48 121.734643 
L 356.67 155.542128 
L 361.86 144.293913 
L 367.05 127.725312 
L 372.24 152.190705 
L 377.43 116.854132 
L 382.62 149.760923 
L 387.81 116.079115 
L 393 153.929256 
L 398.19 118.194702 
L 403.38 150.892028 
L 408.57 113.691226 
L 413.76 135.957247 
L 418.95 105.291721 
L 424.14 90.943438 
L 429.33 42.347796 
L 434.52 43.709312 
L 439.71 82.648665 
L 444.9 94.567165 
L 450.09 133.799768 
L 455.28 111.743211 
L 460.47 158.537463 
L 465.66 157.636768 
L 470.85 137.737691 
L 476.04 166.832237 
L 481.23 158.097589 
L 486.42 139.874223 
L 491.61 175.483099 
L 496.8 174.037798 
L 501.99 148.336568 
L 507.18 168.340377 
L 512.37 178.562219 
L 517.56 151.436635 
L 522.75 165.805863 
L 527.94 185.286013 
L 533.13 158.935445 
L 538.32 156.23336 
L 543.51 192.177378 
L 548.7 167.314004 
L 553.89 162.307815 
" clip-path="url(#p51f1b5ee62)" style="fill: none; stroke: #dd8452; stroke-width: 2; stroke-linecap: round"/>
   </g>
   <g id="line2d_23">
    <path d="M 60.84 160.276014 
L 66.03 196.597068 
L 71.22 206.735124 
L 76.41 208.578407 
L 81.6 188.742169 
L 86.79 192.219271 
L 91.98 207.908122 
L 97.17 207.740551 
L 102.36 207.34257 
L 107.55 171.482337 
L 112.74 181.033894 
L 117.93 209.66762 
L 123.12 207.719605 
L 128.31 207.80339 
L 133.5 208.599354 
L 138.69 209.562888 
L 143.88 209.981816 
L 149.07 207.845283 
L 154.26 207.719605 
L 159.45 208.871657 
L 164.64 210.19128 
L 169.83 210.065601 
L 175.02 207.950015 
L 180.21 174.980385 
L 185.4 194.146339 
L 190.59 209.604781 
L 195.78 209.081121 
L 200.97 208.955442 
L 206.16 201.728935 
L 211.35 159.961818 
L 216.54 196.597068 
L 221.73 184.092068 
L 226.92 210.94535 
L 232.11 211.029136 
L 237.3 208.473675 
L 242.49 180.279824 
L 247.68 168.445109 
L 252.87 209.353424 
L 258.06 190.857755 
L 263.25 157.532036 
L 268.44 135.119391 
L 273.63 137.465387 
L 278.82 194.188232 
L 284.01 186.144815 
L 289.2 174.917546 
L 294.39 169.052555 
L 299.58 171.00057 
L 304.77 208.745978 
L 309.96 207.991908 
L 315.15 119.996092 
L 320.34 158.055696 
L 325.53 167.33495 
L 330.72 192.847663 
L 335.91 165.701131 
L 341.1 208.117586 
L 346.29 210.42169 
L 351.48 210.673047 
L 356.67 209.562888 
L 361.86 208.85071 
L 367.05 208.871657 
L 372.24 207.656766 
L 377.43 210.71494 
L 382.62 210.735886 
L 387.81 209.290585 
L 393 123.975907 
L 398.19 97.122626 
L 403.38 97.730071 
L 408.57 99.992282 
L 413.76 99.950389 
L 418.95 97.897642 
L 424.14 130.888218 
L 429.33 115.136527 
L 434.52 181.180519 
L 439.71 97.143572 
L 444.9 106.569451 
L 450.09 170.602588 
L 455.28 112.999995 
L 460.47 169.010662 
L 465.66 125.463102 
L 470.85 181.725125 
L 476.04 114.801385 
L 481.23 175.147957 
L 486.42 184.615728 
L 491.61 148.462246 
L 496.8 176.677044 
L 501.99 142.701987 
L 507.18 184.217747 
L 512.37 202.336381 
L 517.56 121.127197 
L 522.75 174.205369 
L 527.94 195.298391 
L 533.13 117.105489 
L 538.32 161.93078 
L 543.51 199.278207 
L 548.7 197.099781 
L 553.89 187.506331 
" clip-path="url(#p51f1b5ee62)" style="fill: none; stroke: #55a868; stroke-width: 2; stroke-linecap: round"/>
   </g>
   <g id="line2d_24">
    <path d="M 60.84 178.541273 
L 66.03 179.965628 
L 71.22 173.786441 
L 76.41 186.249547 
L 81.6 196.890317 
L 86.79 175.273635 
L 91.98 195.088927 
L 97.17 184.280586 
L 102.36 184.867085 
L 107.55 197.539656 
L 112.74 182.332571 
L 117.93 193.371323 
L 123.12 191.046272 
L 128.31 186.689422 
L 133.5 193.476055 
L 138.69 194.669999 
L 143.88 186.144815 
L 149.07 204.137771 
L 154.26 179.672379 
L 159.45 206.148625 
L 164.64 179.504807 
L 169.83 205.750644 
L 175.02 176.362848 
L 180.21 203.823575 
L 185.4 184.49005 
L 190.59 195.65448 
L 195.78 183.086641 
L 200.97 202.336381 
L 206.16 199.445778 
L 211.35 207.86623 
L 216.54 203.069505 
L 221.73 212.725794 
L 226.92 206.651339 
L 232.11 217.648197 
L 237.3 191.276683 
L 242.49 212.28592 
L 247.68 213.961631 
L 252.87 236.164813 
L 258.06 224.665241 
L 263.25 214.275827 
L 268.44 242.197375 
L 273.63 241.485198 
L 278.82 233.902602 
L 284.01 257.865281 
L 289.2 259.834242 
L 294.39 265.741126 
L 299.58 265.19652 
L 304.77 238.322292 
L 309.96 216.41236 
L 315.15 243.035231 
L 320.34 234.468155 
L 325.53 237.987149 
L 330.72 253.257073 
L 335.91 256.042944 
L 341.1 262.494435 
L 346.29 241.568983 
L 351.48 252.377325 
L 356.67 263.143773 
L 361.86 247.350189 
L 367.05 232.666764 
L 372.24 244.899461 
L 377.43 253.382752 
L 382.62 240.395985 
L 387.81 228.205182 
L 393 238.133774 
L 398.19 243.349427 
L 403.38 203.718843 
L 408.57 222.088834 
L 413.76 222.005048 
L 418.95 201.58231 
L 424.14 185.286013 
L 429.33 204.766163 
L 434.52 197.853852 
L 439.71 177.347328 
L 444.9 188.742169 
L 450.09 188.15567 
L 455.28 169.471483 
L 460.47 161.40712 
L 465.66 182.374464 
L 470.85 186.836046 
L 476.04 164.988954 
L 481.23 177.389221 
L 486.42 183.002856 
L 491.61 149.509566 
L 496.8 166.120059 
L 501.99 175.734456 
L 507.18 158.495571 
L 512.37 151.52042 
L 517.56 174.037798 
L 522.75 182.583928 
L 527.94 170.874892 
L 533.13 203.635057 
L 538.32 179.756164 
L 543.51 186.438065 
L 548.7 196.513282 
L 553.89 178.206131 
" clip-path="url(#p51f1b5ee62)" style="fill: none; stroke: #c44e52; stroke-width: 2; stroke-linecap: round"/>
   </g>
   <g id="line2d_25">
    <path d="M 60.84 126.6361 
L 66.03 125.442155 
L 71.22 127.453009 
L 76.41 190.836808 
L 81.6 147.666283 
L 86.79 164.737597 
L 91.98 208.285158 
L 97.17 209.248692 
L 102.36 131.390932 
L 107.55 200.095116 
L 112.74 181.913643 
L 117.93 152.819097 
L 123.12 206.839856 
L 128.31 209.395317 
L 133.5 177.284489 
L 138.69 156.275252 
L 143.88 175.922973 
L 149.07 158.453678 
L 154.26 206.797963 
L 159.45 208.662193 
L 164.64 209.416263 
L 169.83 184.888032 
L 175.02 148.231836 
L 180.21 193.287537 
L 185.4 157.385411 
L 190.59 206.986481 
L 195.78 207.091213 
L 200.97 201.100543 
L 206.16 206.797963 
L 211.35 207.363516 
L 216.54 210.337905 
L 221.73 212.22308 
L 226.92 211.2386 
L 232.11 180.971055 
L 237.3 141.801292 
L 242.49 183.819765 
L 247.68 226.613256 
L 252.87 243.558891 
L 258.06 230.739696 
L 263.25 239.600022 
L 268.44 249.402936 
L 273.63 186.354279 
L 278.82 226.152435 
L 284.01 262.452542 
L 289.2 178.248023 
L 294.39 246.407601 
L 299.58 209.981816 
L 304.77 284.550991 
L 309.96 202.92288 
L 315.15 274.915648 
L 320.34 288.845003 
L 325.53 289.640966 
L 330.72 204.472913 
L 335.91 250.261738 
L 341.1 241.966965 
L 346.29 236.583741 
L 351.48 289.09636 
L 356.67 288.384182 
L 361.86 199.759974 
L 367.05 214.422452 
L 372.24 281.031996 
L 377.43 224.979437 
L 382.62 184.113015 
L 387.81 249.884703 
L 393 233.944495 
L 398.19 252.293539 
L 403.38 160.88346 
L 408.57 154.578594 
L 413.76 150.954867 
L 418.95 145.278394 
L 424.14 140.146526 
L 429.33 135.391694 
L 434.52 127.201653 
L 439.71 121.3995 
L 444.9 118.467005 
L 450.09 110.884409 
L 455.28 111.701318 
L 460.47 107.805288 
L 465.66 106.171469 
L 470.85 86.419016 
L 476.04 26.135284 
L 481.23 87.571068 
L 486.42 41.405208 
L 491.61 56.256204 
L 496.8 77.202601 
L 501.99 104.851846 
L 507.18 156.631341 
L 512.37 132.689609 
L 517.56 192.847663 
L 522.75 131.411878 
L 527.94 204.389128 
L 533.13 124.604299 
L 538.32 207.133106 
L 543.51 126.11244 
L 548.7 203.844521 
L 553.89 193.03618 
" clip-path="url(#p51f1b5ee62)" style="fill: none; stroke: #8172b3; stroke-width: 2; stroke-linecap: round"/>
   </g>
   <g id="patch_3">
    <path d="M 60.84 302.81625 
L 60.84 12.96 
" style="fill: none; stroke: #262626; stroke-width: 1.25; stroke-linejoin: miter; stroke-linecap: square"/>
   </g>
   <g id="patch_4">
    <path d="M 559.08 302.81625 
L 559.08 12.96 
" style="fill: none; stroke: #262626; stroke-width: 1.25; stroke-linejoin: miter; stroke-linecap: square"/>
   </g>
   <g id="patch_5">
    <path d="M 60.84 302.81625 
L 559.08 302.81625 
" style="fill: none; stroke: #262626; stroke-width: 1.25; stroke-linejoin: miter; stroke-linecap: square"/>
   </g>
   <g id="patch_6">
    <path d="M 60.84 12.96 
L 559.08 12.96 
" style="fill: none; stroke: #262626; stroke-width: 1.25; stroke-linejoin: miter; stroke-linecap: square"/>
   </g>
   <g id="legend_1">
    <g id="patch_7">
     <path d="M 70.64 125.87875 
L 157.44 125.87875 
Q 160.24 125.87875 160.24 123.07875 
L 160.24 22.76 
Q 160.24 19.96 157.44 19.96 
L 70.64 19.96 
Q 67.84 19.96 67.84 22.76 
L 67.84 123.07875 
Q 67.84 125.87875 70.64 125.87875 
z
" style="fill: #ffffff; opacity: 0.8; stroke: #cccccc; stroke-linejoin: miter"/>
    </g>
    <g id="line2d_26">
     <path d="M 73.44 32.089688 
L 87.44 32.089688 
L 101.44 32.089688 
" style="fill: none; stroke: #4c72b0; stroke-width: 2; stroke-linecap: round"/>
    </g>
    <g id="text_23">
     <!-- 住宅_A -->
     <g style="fill: #262626" transform="translate(112.64 36.989688) scale(0.14 -0.14)">
      <defs>
       <path id="SimSun-4f4f" d="M 3300 5150 
Q 3900 4825 4062 4662 
Q 4225 4500 4225 4375 
Q 4225 4275 4112 4112 
Q 4000 3950 3950 3950 
Q 3875 3950 3800 4175 
Q 3700 4525 3225 5075 
L 3300 5150 
z
M 2125 3750 
L 5100 3750 
L 5450 4100 
L 5950 3600 
L 4075 3600 
L 4075 1950 
L 4850 1950 
L 5175 2275 
L 5650 1800 
L 4075 1800 
L 4075 -125 
L 5175 -125 
L 5525 225 
L 6025 -275 
L 2700 -275 
Q 2375 -275 2100 -350 
L 1875 -125 
L 3725 -125 
L 3725 1800 
L 3100 1800 
Q 2775 1800 2500 1725 
L 2275 1950 
L 3725 1950 
L 3725 3600 
L 2950 3600 
Q 2625 3600 2350 3525 
L 2125 3750 
z
M 1275 -600 
Q 1300 525 1300 875 
L 1300 3075 
Q 900 2475 275 1900 
L 225 1975 
Q 925 2875 1375 3812 
Q 1825 4750 1925 5175 
L 2475 4825 
L 2250 4675 
Q 1800 3900 1525 3425 
L 1825 3225 
L 1650 3050 
L 1650 625 
Q 1650 325 1675 -450 
L 1275 -600 
z
" transform="scale(0.015625)"/>
       <path id="SimSun-5b85" d="M 4250 3700 
L 4725 3225 
Q 4500 3225 4212 3175 
Q 3925 3125 3025 2950 
L 3025 1775 
L 4775 2025 
L 5125 2425 
L 5775 2000 
L 3025 1625 
L 3025 325 
Q 3050 25 3300 0 
L 5125 0 
Q 5350 25 5425 250 
Q 5500 475 5525 1175 
L 5650 1175 
Q 5650 650 5712 362 
Q 5775 75 6000 25 
Q 5725 -325 5325 -300 
L 3175 -300 
Q 2675 -300 2675 200 
L 2675 1575 
L 725 1325 
L 525 1225 
L 275 1425 
L 2675 1725 
L 2675 2900 
Q 1725 2775 875 2725 
L 875 2825 
Q 2100 2975 3000 3200 
Q 3900 3425 4250 3700 
z
M 2725 5175 
L 2775 5225 
Q 3225 4975 3362 4825 
Q 3500 4675 3500 4550 
Q 3500 4425 3387 4275 
Q 3275 4125 3225 4125 
Q 3150 4125 3100 4375 
Q 3025 4750 2725 5175 
z
M 4950 3200 
L 5250 3925 
L 1225 3925 
Q 1250 3775 1250 3625 
Q 1250 3400 1150 3275 
Q 1050 3150 850 3175 
Q 650 3200 650 3275 
Q 650 3350 750 3450 
Q 975 3700 1100 4375 
L 1200 4375 
L 1225 4075 
L 5225 4075 
L 5425 4350 
L 5875 3925 
Q 5550 3900 5025 3150 
L 4950 3200 
z
" transform="scale(0.015625)"/>
       <path id="SimSun-5f" d="M 0 -875 
L 0 -725 
L 3175 -725 
L 3175 -875 
L 0 -875 
z
" transform="scale(0.015625)"/>
       <path id="SimSun-41" d="M 2025 1700 
L 900 1700 
L 675 750 
Q 650 625 650 550 
Q 650 450 687 350 
Q 725 250 900 250 
L 975 250 
L 975 100 
L 50 100 
L 50 250 
L 125 250 
Q 225 250 300 312 
Q 375 375 400 525 
L 1375 4350 
L 1750 4475 
L 2700 525 
Q 2750 375 2825 312 
Q 2900 250 3000 250 
L 3075 250 
L 3075 100 
L 2000 100 
L 2000 250 
L 2100 250 
Q 2250 250 2275 312 
Q 2300 375 2300 425 
Q 2300 525 2275 600 
L 2025 1700 
z
M 325 250 
L 325 250 
z
M 575 250 
L 575 250 
z
M 2350 250 
L 2350 250 
z
M 2775 250 
L 2775 250 
z
M 1500 3925 
L 1475 3925 
L 950 1850 
L 2000 1850 
L 1500 3925 
z
" transform="scale(0.015625)"/>
      </defs>
      <use xlink:href="#SimSun-4f4f"/>
      <use xlink:href="#SimSun-5b85" x="100"/>
      <use xlink:href="#SimSun-5f" x="200"/>
      <use xlink:href="#SimSun-41" x="250"/>
     </g>
    </g>
    <g id="line2d_27">
     <path d="M 73.44 52.433438 
L 87.44 52.433438 
L 101.44 52.433438 
" style="fill: none; stroke: #dd8452; stroke-width: 2; stroke-linecap: round"/>
    </g>
    <g id="text_24">
     <!-- 住宅_B -->
     <g style="fill: #262626" transform="translate(112.64 57.333438) scale(0.14 -0.14)">
      <defs>
       <path id="SimSun-42" d="M 100 100 
L 100 250 
L 300 250 
Q 425 250 475 300 
Q 525 350 525 450 
L 525 4025 
Q 525 4125 475 4175 
Q 425 4225 300 4225 
L 150 4225 
L 150 4375 
L 1600 4375 
Q 2200 4375 2487 4137 
Q 2775 3900 2775 3400 
Q 2775 3050 2625 2825 
Q 2475 2600 2000 2425 
Q 2575 2250 2775 1925 
Q 2975 1600 2975 1200 
Q 2975 700 2625 400 
Q 2275 100 1675 100 
L 100 100 
z
M 1600 250 
Q 2025 250 2262 512 
Q 2500 775 2500 1250 
Q 2500 1800 2250 2062 
Q 2000 2325 1500 2325 
L 925 2325 
L 925 450 
Q 925 350 987 300 
Q 1050 250 1150 250 
L 1600 250 
z
M 2350 3400 
Q 2350 3850 2100 4037 
Q 1850 4225 1450 4225 
L 1150 4225 
Q 1050 4225 987 4175 
Q 925 4125 925 4025 
L 925 2475 
L 1575 2475 
Q 1850 2475 2100 2700 
Q 2350 2925 2350 3400 
z
" transform="scale(0.015625)"/>
      </defs>
      <use xlink:href="#SimSun-4f4f"/>
      <use xlink:href="#SimSun-5b85" x="100"/>
      <use xlink:href="#SimSun-5f" x="200"/>
      <use xlink:href="#SimSun-42" x="250"/>
     </g>
    </g>
    <g id="line2d_28">
     <path d="M 73.44 72.777188 
L 87.44 72.777188 
L 101.44 72.777188 
" style="fill: none; stroke: #55a868; stroke-width: 2; stroke-linecap: round"/>
    </g>
    <g id="text_25">
     <!-- 住宅_C -->
     <g style="fill: #262626" transform="translate(112.64 77.677188) scale(0.14 -0.14)">
      <defs>
       <path id="SimSun-43" d="M 1725 50 
Q 1025 50 612 575 
Q 200 1100 200 2225 
Q 200 3175 637 3800 
Q 1075 4425 1825 4425 
Q 2000 4425 2175 4375 
Q 2350 4300 2475 4300 
Q 2575 4300 2637 4325 
Q 2700 4350 2750 4425 
L 2975 3325 
L 2825 3275 
Q 2675 3750 2425 4000 
Q 2175 4250 1775 4250 
Q 1250 4250 962 3675 
Q 675 3100 675 2250 
Q 675 1325 925 800 
Q 1175 275 1750 275 
Q 2150 275 2437 562 
Q 2725 850 2825 1325 
L 2975 1250 
Q 2850 725 2512 387 
Q 2175 50 1725 50 
z
" transform="scale(0.015625)"/>
      </defs>
      <use xlink:href="#SimSun-4f4f"/>
      <use xlink:href="#SimSun-5b85" x="100"/>
      <use xlink:href="#SimSun-5f" x="200"/>
      <use xlink:href="#SimSun-43" x="250"/>
     </g>
    </g>
    <g id="line2d_29">
     <path d="M 73.44 93.120938 
L 87.44 93.120938 
L 101.44 93.120938 
" style="fill: none; stroke: #c44e52; stroke-width: 2; stroke-linecap: round"/>
    </g>
    <g id="text_26">
     <!-- 住宅_D -->
     <g style="fill: #262626" transform="translate(112.64 98.020938) scale(0.14 -0.14)">
      <defs>
       <path id="SimSun-44" d="M 2500 2275 
Q 2500 3350 2175 3787 
Q 1850 4225 1275 4225 
Q 1100 4225 1012 4175 
Q 925 4125 925 4025 
L 925 450 
Q 925 350 1000 300 
Q 1075 250 1200 250 
Q 1750 250 2125 662 
Q 2500 1075 2500 2275 
z
M 525 4025 
Q 525 4125 475 4175 
Q 425 4225 300 4225 
L 150 4225 
L 150 4375 
L 1275 4375 
Q 2050 4375 2512 3875 
Q 2975 3375 2975 2325 
Q 2975 1175 2525 637 
Q 2075 100 1200 100 
L 125 100 
L 125 250 
L 300 250 
Q 425 250 475 300 
Q 525 350 525 450 
L 525 4025 
z
" transform="scale(0.015625)"/>
      </defs>
      <use xlink:href="#SimSun-4f4f"/>
      <use xlink:href="#SimSun-5b85" x="100"/>
      <use xlink:href="#SimSun-5f" x="200"/>
      <use xlink:href="#SimSun-44" x="250"/>
     </g>
    </g>
    <g id="line2d_30">
     <path d="M 73.44 113.464688 
L 87.44 113.464688 
L 101.44 113.464688 
" style="fill: none; stroke: #8172b3; stroke-width: 2; stroke-linecap: round"/>
    </g>
    <g id="text_27">
     <!-- 住宅_E -->
     <g style="fill: #262626" transform="translate(112.64 118.364688) scale(0.14 -0.14)">
      <defs>
       <path id="SimSun-45" d="M 200 4225 
L 200 4375 
L 2650 4375 
L 2925 3525 
L 2800 3475 
Q 2600 3850 2375 4037 
Q 2150 4225 1875 4225 
L 1175 4225 
Q 1075 4225 1012 4175 
Q 950 4125 950 4025 
L 950 2475 
L 1675 2475 
Q 1925 2475 2037 2600 
Q 2150 2725 2150 2975 
L 2150 3125 
L 2300 3125 
L 2300 1650 
L 2150 1650 
L 2150 1750 
Q 2150 2025 2037 2175 
Q 1925 2325 1675 2325 
L 950 2325 
L 950 450 
Q 950 350 1012 300 
Q 1075 250 1175 250 
L 1825 250 
Q 2200 250 2462 462 
Q 2725 675 2875 1125 
L 3000 1075 
L 2725 100 
L 175 100 
L 175 250 
L 325 250 
Q 450 250 500 300 
Q 550 350 550 450 
L 550 4025 
Q 550 4125 500 4175 
Q 450 4225 325 4225 
L 200 4225 
z
" transform="scale(0.015625)"/>
      </defs>
      <use xlink:href="#SimSun-4f4f"/>
      <use xlink:href="#SimSun-5b85" x="100"/>
      <use xlink:href="#SimSun-5f" x="200"/>
      <use xlink:href="#SimSun-45" x="250"/>
     </g>
    </g>
   </g>
  </g>
 </g>
 <defs>
  <clipPath id="p51f1b5ee62">
   <rect x="60.84" y="12.96" width="498.24" height="289.85625"/>
  </clipPath>
 </defs>
</svg>
