<?xml version="1.0" encoding="utf-8" standalone="no"?>
<!DOCTYPE svg PUBLIC "-//W3C//DTD SVG 1.1//EN"
  "http://www.w3.org/Graphics/SVG/1.1/DTD/svg11.dtd">
<svg xmlns:xlink="http://www.w3.org/1999/xlink" width="576pt" height="576pt" viewBox="0 0 576 576" xmlns="http://www.w3.org/2000/svg" version="1.1">
 <metadata>
  <rdf:RDF xmlns:dc="http://purl.org/dc/elements/1.1/" xmlns:cc="http://creativecommons.org/ns#" xmlns:rdf="http://www.w3.org/1999/02/22-rdf-syntax-ns#">
   <cc:Work>
    <dc:type rdf:resource="http://purl.org/dc/dcmitype/StillImage"/>
    <dc:date>2023-02-22T23:24:44.621266</dc:date>
    <dc:format>image/svg+xml</dc:format>
    <dc:creator>
     <cc:Agent>
      <dc:title>Matplotlib v3.6.2, https://matplotlib.org/</dc:title>
     </cc:Agent>
    </dc:creator>
   </cc:Work>
  </rdf:RDF>
 </metadata>
 <defs>
  <style type="text/css">*{stroke-linejoin: round; stroke-linecap: butt}</style>
 </defs>
 <g id="figure_1">
  <g id="patch_1">
   <path d="M 0 576 
L 576 576 
L 576 0 
L 0 0 
z
" style="fill: #ffffff"/>
  </g>
  <g id="axes_1">
   <g id="patch_2">
    <path d="M 61.695 96.86475 
L 510.255 96.86475 
L 510.255 30.4575 
L 61.695 30.4575 
z
" style="fill: #ffffff"/>
   </g>
   <g id="matplotlib.axis_1">
    <g id="xtick_1">
     <g id="line2d_1">
      <defs>
       <path id="mb7f13f2daa" d="M 0 0 
L 0 6 
" style="stroke: #262626; stroke-width: 1.25"/>
      </defs>
      <g>
       <use xlink:href="#mb7f13f2daa" x="61.695" y="96.86475" style="fill: #262626; stroke: #262626; stroke-width: 1.25"/>
      </g>
     </g>
    </g>
    <g id="xtick_2">
     <g id="line2d_2">
      <g>
       <use xlink:href="#mb7f13f2daa" x="99.075" y="96.86475" style="fill: #262626; stroke: #262626; stroke-width: 1.25"/>
      </g>
     </g>
    </g>
    <g id="xtick_3">
     <g id="line2d_3">
      <g>
       <use xlink:href="#mb7f13f2daa" x="136.455" y="96.86475" style="fill: #262626; stroke: #262626; stroke-width: 1.25"/>
      </g>
     </g>
    </g>
    <g id="xtick_4">
     <g id="line2d_4">
      <g>
       <use xlink:href="#mb7f13f2daa" x="173.835" y="96.86475" style="fill: #262626; stroke: #262626; stroke-width: 1.25"/>
      </g>
     </g>
    </g>
    <g id="xtick_5">
     <g id="line2d_5">
      <g>
       <use xlink:href="#mb7f13f2daa" x="211.215" y="96.86475" style="fill: #262626; stroke: #262626; stroke-width: 1.25"/>
      </g>
     </g>
    </g>
    <g id="xtick_6">
     <g id="line2d_6">
      <g>
       <use xlink:href="#mb7f13f2daa" x="248.595" y="96.86475" style="fill: #262626; stroke: #262626; stroke-width: 1.25"/>
      </g>
     </g>
    </g>
    <g id="xtick_7">
     <g id="line2d_7">
      <g>
       <use xlink:href="#mb7f13f2daa" x="285.975" y="96.86475" style="fill: #262626; stroke: #262626; stroke-width: 1.25"/>
      </g>
     </g>
    </g>
    <g id="xtick_8">
     <g id="line2d_8">
      <g>
       <use xlink:href="#mb7f13f2daa" x="323.355" y="96.86475" style="fill: #262626; stroke: #262626; stroke-width: 1.25"/>
      </g>
     </g>
    </g>
    <g id="xtick_9">
     <g id="line2d_9">
      <g>
       <use xlink:href="#mb7f13f2daa" x="360.735" y="96.86475" style="fill: #262626; stroke: #262626; stroke-width: 1.25"/>
      </g>
     </g>
    </g>
    <g id="xtick_10">
     <g id="line2d_10">
      <g>
       <use xlink:href="#mb7f13f2daa" x="398.115" y="96.86475" style="fill: #262626; stroke: #262626; stroke-width: 1.25"/>
      </g>
     </g>
    </g>
    <g id="xtick_11">
     <g id="line2d_11">
      <g>
       <use xlink:href="#mb7f13f2daa" x="435.495" y="96.86475" style="fill: #262626; stroke: #262626; stroke-width: 1.25"/>
      </g>
     </g>
    </g>
    <g id="xtick_12">
     <g id="line2d_12">
      <g>
       <use xlink:href="#mb7f13f2daa" x="472.875" y="96.86475" style="fill: #262626; stroke: #262626; stroke-width: 1.25"/>
      </g>
     </g>
    </g>
    <g id="xtick_13">
     <g id="line2d_13">
      <g>
       <use xlink:href="#mb7f13f2daa" x="510.255" y="96.86475" style="fill: #262626; stroke: #262626; stroke-width: 1.25"/>
      </g>
     </g>
    </g>
   </g>
   <g id="matplotlib.axis_2">
    <g id="ytick_1">
     <g id="line2d_14">
      <defs>
       <path id="m9bb2c31fcc" d="M 0 0 
L -6 0 
" style="stroke: #262626; stroke-width: 1.25"/>
      </defs>
      <g>
       <use xlink:href="#m9bb2c31fcc" x="61.695" y="80.262937" style="fill: #262626; stroke: #262626; stroke-width: 1.25"/>
      </g>
     </g>
     <g id="text_1">
      <!-- 0 -->
      <g style="fill: #262626" transform="translate(44.195 85.817937) scale(0.16 -0.16)">
       <defs>
        <path id="TimesNewRomanPSMT-30" d="M 231 2094 
Q 231 2819 450 3342 
Q 669 3866 1031 4122 
Q 1313 4325 1613 4325 
Q 2100 4325 2488 3828 
Q 2972 3213 2972 2159 
Q 2972 1422 2759 906 
Q 2547 391 2217 158 
Q 1888 -75 1581 -75 
Q 975 -75 572 641 
Q 231 1244 231 2094 
z
M 844 2016 
Q 844 1141 1059 588 
Q 1238 122 1591 122 
Q 1759 122 1940 273 
Q 2122 425 2216 781 
Q 2359 1319 2359 2297 
Q 2359 3022 2209 3506 
Q 2097 3866 1919 4016 
Q 1791 4119 1609 4119 
Q 1397 4119 1231 3928 
Q 1006 3669 925 3112 
Q 844 2556 844 2016 
z
" transform="scale(0.015625)"/>
       </defs>
       <use xlink:href="#TimesNewRomanPSMT-30"/>
      </g>
     </g>
    </g>
    <g id="ytick_2">
     <g id="line2d_15">
      <g>
       <use xlink:href="#m9bb2c31fcc" x="61.695" y="38.758406" style="fill: #262626; stroke: #262626; stroke-width: 1.25"/>
      </g>
     </g>
     <g id="text_2">
      <!-- 5 -->
      <g style="fill: #262626" transform="translate(44.195 44.313406) scale(0.16 -0.16)">
       <defs>
        <path id="TimesNewRomanPSMT-35" d="M 2778 4238 
L 2534 3706 
L 1259 3706 
L 981 3138 
Q 1809 3016 2294 2522 
Q 2709 2097 2709 1522 
Q 2709 1188 2573 903 
Q 2438 619 2231 419 
Q 2025 219 1772 97 
Q 1413 -75 1034 -75 
Q 653 -75 479 54 
Q 306 184 306 341 
Q 306 428 378 495 
Q 450 563 559 563 
Q 641 563 702 538 
Q 763 513 909 409 
Q 1144 247 1384 247 
Q 1750 247 2026 523 
Q 2303 800 2303 1197 
Q 2303 1581 2056 1914 
Q 1809 2247 1375 2428 
Q 1034 2569 447 2591 
L 1259 4238 
L 2778 4238 
z
" transform="scale(0.015625)"/>
       </defs>
       <use xlink:href="#TimesNewRomanPSMT-35"/>
      </g>
     </g>
    </g>
    <g id="text_3">
     <!-- 功率$\mathrm{(kW)}$ -->
     <g style="fill: #262626" transform="translate(37.315 96.541125) rotate(-90) scale(0.16 -0.16)">
      <defs>
       <path id="SimSun-529f" d="M 4000 3475 
Q 4025 4675 3975 5250 
L 4575 4975 
L 4350 4775 
Q 4350 4000 4325 3475 
L 5375 3475 
L 5600 3725 
L 5975 3400 
L 5775 3250 
Q 5675 1350 5625 687 
Q 5575 25 5387 -225 
Q 5200 -475 4825 -600 
Q 4800 -250 3875 50 
L 3900 175 
Q 4750 25 4962 25 
Q 5175 25 5250 550 
Q 5325 1075 5425 3325 
L 4325 3325 
Q 4250 2300 4037 1625 
Q 3825 950 3325 412 
Q 2825 -125 1825 -600 
L 1750 -525 
Q 2575 -50 3025 462 
Q 3475 975 3700 1612 
Q 3925 2250 4000 3325 
L 3325 3325 
L 3025 3275 
L 2825 3475 
L 4000 3475 
z
M 1950 1275 
Q 2650 1450 3175 1625 
L 3225 1525 
Q 2125 1125 1462 850 
Q 800 575 700 425 
L 350 900 
Q 725 950 1625 1200 
L 1625 4000 
L 1250 4000 
Q 925 4000 650 3925 
L 425 4150 
L 2500 4150 
L 2775 4425 
L 3200 4000 
L 1950 4000 
L 1950 1275 
z
" transform="scale(0.015625)"/>
       <path id="SimSun-7387" d="M 875 3725 
L 925 3800 
Q 1375 3650 1550 3525 
Q 1725 3400 1725 3250 
Q 1725 3175 1662 3025 
Q 1600 2875 1550 2875 
Q 1500 2875 1425 3050 
Q 1275 3325 875 3725 
z
M 550 1850 
Q 875 1925 2000 2575 
L 2050 2500 
Q 1675 2225 1337 1937 
Q 1000 1650 875 1425 
L 550 1850 
z
M 5200 3450 
Q 4800 3150 4275 2800 
L 4225 2875 
Q 4775 3400 5050 3925 
L 5450 3525 
L 5200 3450 
z
M 4325 2500 
L 4350 2575 
Q 5225 2350 5375 2212 
Q 5525 2075 5525 1900 
Q 5525 1775 5487 1662 
Q 5450 1550 5400 1550 
Q 5325 1550 5200 1800 
Q 4975 2150 4325 2500 
z
M 3150 3900 
Q 2500 3300 2300 3150 
Q 2800 3150 3400 3175 
Q 3700 3500 3850 3825 
L 4250 3450 
Q 4050 3400 3450 2825 
Q 2850 2250 2475 1950 
Q 3150 1975 3850 2000 
Q 3750 2175 3550 2450 
L 3600 2500 
Q 4050 2250 4200 2100 
Q 4350 1950 4350 1850 
Q 4350 1775 4250 1625 
Q 4150 1475 4100 1475 
Q 4075 1475 4050 1550 
Q 4000 1700 3900 1900 
Q 3650 1875 3075 1800 
L 3500 1550 
L 3325 1425 
L 3325 975 
L 5325 975 
L 5650 1300 
L 6100 825 
L 3325 825 
Q 3325 -275 3350 -525 
L 2975 -650 
Q 3000 0 3000 825 
L 1125 825 
Q 800 825 525 750 
L 300 975 
L 3000 975 
L 3000 1775 
Q 2450 1700 2200 1525 
L 1950 1950 
Q 2275 1950 2675 2350 
Q 3075 2750 3325 3050 
Q 2400 2950 2150 2775 
L 1950 3175 
Q 2150 3150 2475 3575 
Q 2800 4000 2900 4225 
L 1450 4225 
Q 1125 4225 850 4150 
L 625 4375 
L 3100 4375 
Q 3050 4800 2675 5200 
L 2725 5250 
Q 3225 5050 3337 4912 
Q 3450 4775 3450 4700 
Q 3450 4550 3250 4375 
L 5025 4375 
L 5350 4675 
L 5775 4225 
L 3050 4225 
L 3375 3950 
L 3150 3900 
z
" transform="scale(0.015625)"/>
       <path id="STIXGeneral-Regular-28" d="M 1946 -1030 
L 1869 -1133 
Q 1126 -710 716 32 
Q 307 774 307 1613 
Q 307 3386 1888 4326 
L 1946 4224 
Q 1293 3667 1075 3126 
Q 858 2586 858 1632 
Q 858 685 1082 96 
Q 1306 -493 1946 -1030 
z
" transform="scale(0.015625)"/>
       <path id="STIXGeneral-Regular-6b" d="M 3232 0 
L 1837 0 
L 1837 96 
L 1958 96 
Q 2093 96 2093 192 
Q 2093 250 2022 339 
L 1062 1606 
L 1062 429 
Q 1062 262 1142 185 
Q 1222 109 1414 102 
L 1542 96 
L 1542 0 
L 45 0 
L 45 96 
Q 390 154 457 214 
Q 525 275 525 525 
L 525 3610 
Q 525 3840 467 3920 
Q 410 4000 250 4000 
Q 211 4000 45 3987 
L 45 4090 
L 237 4141 
Q 621 4243 1037 4371 
L 1062 4358 
L 1062 1670 
L 1939 2451 
Q 2086 2586 2086 2675 
Q 2086 2739 2019 2761 
Q 1952 2784 1766 2790 
L 1766 2880 
L 3072 2880 
L 3072 2784 
Q 2752 2784 2505 2646 
Q 2259 2509 1690 1978 
L 1504 1805 
L 2483 563 
Q 2829 122 3232 96 
L 3232 0 
z
" transform="scale(0.015625)"/>
       <path id="STIXGeneral-Regular-57" d="M 5965 4237 
L 5965 4115 
Q 5709 4064 5616 3990 
Q 5523 3917 5434 3667 
Q 4704 1709 4128 -70 
L 4032 -70 
Q 3642 1011 3008 2637 
L 2022 -70 
L 1926 -70 
Q 1709 576 1277 1753 
Q 845 2931 698 3347 
Q 538 3808 406 3958 
Q 275 4109 32 4115 
L 32 4237 
L 1594 4237 
L 1594 4115 
Q 1357 4109 1270 4064 
Q 1184 4019 1184 3917 
Q 1184 3808 1254 3616 
L 2176 1210 
L 2842 3021 
L 2662 3501 
Q 2509 3917 2400 4013 
Q 2291 4109 2010 4115 
L 2010 4237 
L 3706 4237 
L 3706 4115 
Q 3213 4102 3213 3891 
Q 3213 3808 3322 3520 
L 4237 1190 
L 5043 3360 
Q 5152 3667 5152 3853 
Q 5152 4109 4704 4115 
L 4704 4237 
L 5965 4237 
z
" transform="scale(0.015625)"/>
       <path id="STIXGeneral-Regular-29" d="M 186 4224 
L 262 4326 
Q 992 3891 1408 3148 
Q 1824 2406 1824 1581 
Q 1824 -166 243 -1133 
L 186 -1030 
Q 845 -486 1059 54 
Q 1274 595 1274 1562 
Q 1274 2534 1059 3120 
Q 845 3706 186 4224 
z
" transform="scale(0.015625)"/>
      </defs>
      <use xlink:href="#SimSun-529f" transform="translate(0 0.96875)"/>
      <use xlink:href="#SimSun-7387" transform="translate(100 0.96875)"/>
      <use xlink:href="#STIXGeneral-Regular-28" transform="translate(200 0.96875)"/>
      <use xlink:href="#STIXGeneral-Regular-6b" transform="translate(233.299988 0.96875)"/>
      <use xlink:href="#STIXGeneral-Regular-57" transform="translate(283.299973 0.96875)"/>
      <use xlink:href="#STIXGeneral-Regular-29" transform="translate(377.699966 0.96875)"/>
     </g>
    </g>
   </g>
   <g id="line2d_16">
    <path d="M 61.695 76.361512 
L 66.3675 74.900552 
L 71.04 69.604574 
L 75.7125 75.763846 
L 80.385 74.776038 
L 85.0575 68.616766 
L 89.73 76.89277 
L 94.4025 76.751654 
L 99.075 67.778374 
L 103.7475 70.96949 
L 108.42 80.475894 
L 113.0925 75.520805 
L 117.765 71.604422 
L 122.4375 74.742835 
L 127.11 76.876168 
L 131.7825 76.884469 
L 136.455 74.442679 
L 141.1275 49.889921 
L 145.8 60.924733 
L 150.4725 60.875623 
L 155.145 58.034926 
L 159.8175 57.761255 
L 164.49 63.641355 
L 169.1625 57.053603 
L 173.835 56.306521 
L 178.5075 52.124215 
L 183.18 57.727492 
L 187.8525 58.160004 
L 192.525 58.522746 
L 197.1975 57.888356 
L 201.87 56.920788 
L 206.5425 60.041348 
L 211.215 72.887313 
L 215.8875 88.828476 
L 220.56 94.395385 
L 225.2325 68.16027 
L 229.905 55.941281 
L 234.5775 58.157623 
L 239.25 70.145575 
L 243.9225 58.451133 
L 248.595 47.109117 
L 253.2675 87.000676 
L 257.94 72.128284 
L 262.6125 64.459962 
L 267.285 54.82896 
L 271.9575 57.109273 
L 276.63 73.481097 
L 281.3025 63.071761 
L 285.975 69.57137 
L 290.6475 59.726495 
L 295.32 71.073834 
L 299.9925 54.754253 
L 304.665 73.115857 
L 309.3375 54.621438 
L 314.01 62.756326 
L 318.6825 65.229996 
L 323.355 51.367483 
L 328.0275 55.708857 
L 332.7 91.460861 
L 337.3725 41.423186 
L 342.045 44.479985 
L 346.7175 53.33002 
L 351.39 66.973187 
L 356.0625 47.598871 
L 360.735 51.093553 
L 365.4075 53.866056 
L 370.08 68.787972 
L 374.7525 45.672377 
L 379.425 35.454732 
L 384.0975 70.187896 
L 388.77 72.072556 
L 393.4425 77.839074 
L 398.115 60.547576 
L 402.7875 73.012267 
L 407.46 90.805089 
L 412.1325 66.552765 
L 416.805 71.017661 
L 421.4775 83.83299 
L 426.15 79.482653 
L 430.8225 78.583132 
L 435.495 86.978371 
L 440.1675 81.991864 
L 444.84 86.397308 
L 449.5125 80.686285 
L 454.185 90.896399 
L 458.8575 86.349767 
L 463.53 76.711126 
L 468.2025 73.099255 
L 472.875 59.236742 
L 477.5475 54.770854 
L 482.22 82.487579 
L 486.8925 76.627141 
L 491.565 64.997571 
L 496.2375 76.635441 
L 500.91 65.396014 
L 505.5825 73.099255 
" clip-path="url(#p67b6059934)" style="fill: none; stroke: #4c72b0; stroke-width: 2; stroke-linecap: round"/>
   </g>
   <g id="line2d_17">
    <path d="M 61.695 76.361512 
L 66.3675 74.900552 
L 71.04 69.604574 
L 75.7125 75.763846 
L 80.385 74.776038 
L 85.0575 68.616766 
L 89.73 76.89277 
L 94.4025 76.751654 
L 99.075 67.778374 
L 103.7475 76.751654 
L 108.42 75.257491 
L 113.0925 76.743353 
L 117.765 70.501072 
L 122.4375 74.742835 
L 127.11 76.876168 
L 131.7825 76.884469 
L 136.455 76.743353 
L 141.1275 69.812097 
L 145.8 76.768256 
L 150.4725 75.697439 
L 155.145 76.768256 
L 159.8175 76.80146 
L 164.49 76.826362 
L 169.1625 76.975779 
L 173.835 76.228697 
L 178.5075 70.57578 
L 183.18 76.776557 
L 187.8525 76.793159 
L 192.525 77.050487 
L 197.1975 76.818061 
L 201.87 76.842964 
L 206.5425 76.80976 
L 211.215 77.008982 
L 215.8875 76.759955 
L 220.56 75.481615 
L 225.2325 70.086026 
L 229.905 75.863457 
L 234.5775 78.079799 
L 239.25 77.415727 
L 243.9225 75.332199 
L 248.595 67.031293 
L 253.2675 76.99238 
L 257.94 71.331162 
L 262.6125 69.247635 
L 267.285 74.751136 
L 271.9575 64.275392 
L 276.63 73.481097 
L 281.3025 63.071761 
L 285.975 69.57137 
L 290.6475 59.726495 
L 295.32 71.073834 
L 299.9925 54.754253 
L 304.665 73.115857 
L 309.3375 54.621438 
L 314.01 62.756326 
L 318.6825 65.229996 
L 323.355 51.367483 
L 328.0275 55.708857 
L 332.7 71.538685 
L 337.3725 47.798093 
L 342.045 54.156587 
L 346.7175 59.352955 
L 351.39 66.973187 
L 356.0625 47.598871 
L 360.735 51.093553 
L 365.4075 53.866056 
L 370.08 53.924162 
L 374.7525 48.951919 
L 379.425 48.644786 
L 384.0975 52.521309 
L 388.77 62.266573 
L 393.4425 57.916898 
L 398.115 46.129611 
L 402.7875 53.749843 
L 407.46 70.882913 
L 412.1325 53.284992 
L 416.805 52.222476 
L 421.4775 65.063978 
L 426.15 59.560477 
L 430.8225 62.249971 
L 435.495 67.056196 
L 440.1675 63.353991 
L 444.84 66.475132 
L 449.5125 60.764109 
L 454.185 70.974223 
L 458.8575 67.73687 
L 463.53 66.300813 
L 468.2025 73.099255 
L 472.875 59.236742 
L 477.5475 74.693029 
L 482.22 64.507817 
L 486.8925 76.627141 
L 491.565 64.997571 
L 496.2375 76.635441 
L 500.91 65.396014 
L 505.5825 73.099255 
" clip-path="url(#p67b6059934)" style="fill: none; stroke: #dd8452; stroke-width: 2; stroke-linecap: round"/>
   </g>
   <g id="patch_3">
    <path d="M 61.695 96.86475 
L 61.695 30.4575 
" style="fill: none; stroke: #262626; stroke-width: 1.25; stroke-linejoin: miter; stroke-linecap: square"/>
   </g>
   <g id="patch_4">
    <path d="M 510.255 96.86475 
L 510.255 30.4575 
" style="fill: none; stroke: #262626; stroke-width: 1.25; stroke-linejoin: miter; stroke-linecap: square"/>
   </g>
   <g id="patch_5">
    <path d="M 61.695 96.86475 
L 510.255 96.86475 
" style="fill: none; stroke: #262626; stroke-width: 1.25; stroke-linejoin: miter; stroke-linecap: square"/>
   </g>
   <g id="patch_6">
    <path d="M 61.695 30.4575 
L 510.255 30.4575 
" style="fill: none; stroke: #262626; stroke-width: 1.25; stroke-linejoin: miter; stroke-linecap: square"/>
   </g>
  </g>
  <g id="axes_2">
   <g id="matplotlib.axis_3">
    <g id="ytick_3">
     <g id="line2d_18">
      <defs>
       <path id="m3f1b004b15" d="M 0 0 
L 6 0 
" style="stroke: #262626; stroke-width: 1.25"/>
      </defs>
      <g>
       <use xlink:href="#m3f1b004b15" x="510.255" y="96.86475" style="fill: #262626; stroke: #262626; stroke-width: 1.25"/>
      </g>
     </g>
     <g id="text_4">
      <!-- 0.0 -->
      <g style="fill: #262626" transform="translate(519.755 102.41975) scale(0.16 -0.16)">
       <defs>
        <path id="TimesNewRomanPSMT-2e" d="M 800 606 
Q 947 606 1047 504 
Q 1147 403 1147 259 
Q 1147 116 1045 14 
Q 944 -88 800 -88 
Q 656 -88 554 14 
Q 453 116 453 259 
Q 453 406 554 506 
Q 656 606 800 606 
z
" transform="scale(0.015625)"/>
       </defs>
       <use xlink:href="#TimesNewRomanPSMT-30"/>
       <use xlink:href="#TimesNewRomanPSMT-2e" x="50"/>
       <use xlink:href="#TimesNewRomanPSMT-30" x="75"/>
      </g>
     </g>
    </g>
    <g id="ytick_4">
     <g id="line2d_19">
      <g>
       <use xlink:href="#m3f1b004b15" x="510.255" y="41.525375" style="fill: #262626; stroke: #262626; stroke-width: 1.25"/>
      </g>
     </g>
     <g id="text_5">
      <!-- 0.5 -->
      <g style="fill: #262626" transform="translate(519.755 47.080375) scale(0.16 -0.16)">
       <use xlink:href="#TimesNewRomanPSMT-30"/>
       <use xlink:href="#TimesNewRomanPSMT-2e" x="50"/>
       <use xlink:href="#TimesNewRomanPSMT-35" x="75"/>
      </g>
     </g>
    </g>
    <g id="text_6">
     <!-- 分时电价$\mathrm{(\$)}$ -->
     <g style="fill: #262626" transform="translate(556.875 105.021125) rotate(-90) scale(0.16 -0.16)">
      <defs>
       <path id="SimSun-5206" d="M 2350 5050 
L 2850 4675 
L 2625 4550 
Q 2200 3750 1687 3125 
Q 1175 2500 375 2025 
L 325 2100 
Q 975 2625 1475 3337 
Q 1975 4050 2350 5050 
z
M 4100 4975 
L 3900 4850 
Q 4175 3850 4800 3300 
Q 5425 2750 6125 2625 
L 6125 2550 
Q 5750 2500 5600 2225 
Q 4775 2675 4287 3425 
Q 3800 4175 3625 5175 
L 4100 4975 
z
M 1375 2625 
L 4225 2625 
L 4475 2875 
L 4825 2525 
L 4625 2375 
Q 4575 400 4375 -12 
Q 4175 -425 3675 -600 
Q 3600 -200 2975 -25 
L 2975 75 
Q 3600 -25 3787 -12 
Q 3975 0 4075 275 
Q 4175 550 4275 2475 
L 2975 2475 
Q 2825 1400 2375 662 
Q 1925 -75 650 -625 
L 600 -525 
Q 1725 50 2112 837 
Q 2500 1625 2575 2475 
L 1800 2475 
L 1575 2425 
L 1375 2625 
z
" transform="scale(0.015625)"/>
       <path id="SimSun-65f6" d="M 4500 3600 
Q 4500 4575 4475 5225 
L 5100 4900 
L 4850 4725 
L 4850 3600 
L 5225 3600 
L 5550 3925 
L 6025 3450 
L 4850 3450 
L 4850 100 
Q 4850 -375 4300 -575 
Q 4275 -200 3475 -25 
L 3475 100 
Q 4150 0 4325 25 
Q 4500 50 4500 325 
L 4500 3450 
L 3200 3450 
Q 2875 3450 2600 3375 
L 2375 3600 
L 4500 3600 
z
M 2875 2825 
Q 3525 2375 3637 2200 
Q 3750 2025 3750 1925 
Q 3750 1800 3637 1637 
Q 3525 1475 3475 1475 
Q 3400 1475 3325 1775 
Q 3200 2225 2800 2750 
L 2875 2825 
z
M 925 4150 
L 925 2650 
L 1950 2650 
L 1950 4150 
L 925 4150 
z
M 925 2500 
L 925 900 
L 1950 900 
L 1950 2500 
L 925 2500 
z
M 2300 2000 
Q 2300 800 2325 450 
L 1950 250 
L 1950 750 
L 925 750 
L 925 225 
L 550 25 
Q 575 825 575 2425 
Q 575 4025 550 4500 
L 950 4300 
L 1900 4300 
L 2100 4550 
L 2500 4225 
L 2300 4050 
L 2300 2000 
z
" transform="scale(0.015625)"/>
       <path id="SimSun-7535" d="M 2875 3900 
Q 2875 4625 2850 5225 
L 3425 4950 
L 3225 4775 
L 3225 3900 
L 4750 3900 
L 5000 4150 
L 5350 3800 
L 5125 3625 
Q 5125 1625 5150 1125 
L 4775 950 
L 4775 1250 
L 3225 1250 
L 3225 125 
Q 3225 -150 3525 -150 
L 5250 -150 
Q 5475 -125 5500 112 
Q 5525 350 5550 1075 
L 5675 1075 
Q 5675 450 5762 250 
Q 5850 50 6025 -75 
Q 5925 -275 5775 -362 
Q 5625 -450 5350 -450 
L 3400 -450 
Q 2875 -450 2875 50 
L 2875 1250 
L 1375 1250 
L 1375 900 
L 1000 725 
Q 1025 1575 1025 2475 
Q 1025 3375 1000 4125 
L 1400 3900 
L 2875 3900 
z
M 1375 3750 
L 1375 2675 
L 2875 2675 
L 2875 3750 
L 1375 3750 
z
M 3225 3750 
L 3225 2675 
L 4775 2675 
L 4775 3750 
L 3225 3750 
z
M 1375 2525 
L 1375 1400 
L 2875 1400 
L 2875 2525 
L 1375 2525 
z
M 3225 2525 
L 3225 1400 
L 4775 1400 
L 4775 2525 
L 3225 2525 
z
" transform="scale(0.015625)"/>
       <path id="SimSun-4ef7" d="M 4175 4875 
L 3950 4725 
Q 4350 4025 4900 3562 
Q 5450 3100 6125 2950 
L 6125 2875 
Q 5750 2825 5650 2575 
Q 4475 3275 3875 4600 
Q 3450 3800 2962 3287 
Q 2475 2775 1900 2400 
L 1850 2475 
Q 2400 2900 2900 3637 
Q 3400 4375 3650 5200 
L 4175 4875 
z
M 3375 2550 
Q 3375 1600 3275 1087 
Q 3175 575 2875 200 
Q 2575 -175 1875 -550 
L 1825 -475 
Q 2350 -100 2575 225 
Q 2800 550 2912 975 
Q 3025 1400 3025 3000 
L 3600 2725 
L 3375 2550 
z
M 4400 -700 
Q 4425 -100 4425 400 
L 4425 1950 
Q 4425 2525 4400 3025 
L 4975 2750 
L 4750 2550 
L 4750 525 
Q 4750 50 4775 -500 
L 4400 -700 
z
M 1325 3250 
Q 750 2375 350 2025 
L 275 2100 
Q 500 2375 750 2775 
Q 1000 3175 1250 3762 
Q 1500 4350 1725 5200 
L 2275 4875 
L 2050 4725 
Q 1900 4425 1475 3500 
L 1825 3300 
L 1675 3150 
L 1675 800 
Q 1675 125 1700 -425 
L 1275 -625 
Q 1325 150 1325 775 
L 1325 3250 
z
" transform="scale(0.015625)"/>
       <path id="STIXGeneral-Regular-24" d="M 1690 4077 
L 1690 2502 
Q 2234 2208 2445 2045 
Q 2656 1882 2797 1664 
Q 2931 1466 2931 1088 
Q 2931 570 2614 326 
Q 2298 83 1690 0 
L 1690 -557 
L 1472 -557 
L 1472 0 
Q 1062 0 806 73 
Q 550 147 282 326 
L 282 1158 
L 378 1158 
Q 480 685 761 432 
Q 1043 179 1472 179 
L 1472 1984 
Q 800 2362 566 2624 
Q 333 2886 333 3283 
Q 333 3731 659 3974 
Q 986 4218 1472 4250 
L 1472 4653 
L 1690 4653 
L 1690 4250 
Q 2426 4205 2720 3910 
L 2720 3200 
L 2624 3200 
Q 2528 3597 2301 3814 
Q 2074 4032 1690 4077 
z
M 1472 2605 
L 1472 4077 
Q 806 3942 806 3405 
Q 806 3194 937 3037 
Q 1069 2880 1472 2605 
z
M 1690 1875 
L 1690 179 
Q 2086 262 2252 432 
Q 2419 602 2419 941 
Q 2419 1235 2272 1427 
Q 2125 1619 1690 1875 
z
" transform="scale(0.015625)"/>
      </defs>
      <use xlink:href="#SimSun-5206" transform="translate(0 0.359375)"/>
      <use xlink:href="#SimSun-65f6" transform="translate(100 0.359375)"/>
      <use xlink:href="#SimSun-7535" transform="translate(200 0.359375)"/>
      <use xlink:href="#SimSun-4ef7" transform="translate(300 0.359375)"/>
      <use xlink:href="#STIXGeneral-Regular-28" transform="translate(400 0.359375)"/>
      <use xlink:href="#STIXGeneral-Regular-24" transform="translate(433.299988 0.359375)"/>
      <use xlink:href="#STIXGeneral-Regular-29" transform="translate(483.299973 0.359375)"/>
     </g>
    </g>
   </g>
   <g id="line2d_20">
    <path d="M 61.695 83.5833 
L 206.5425 83.5833 
L 206.5425 65.8747 
L 318.6825 65.8747 
L 318.6825 43.73895 
L 430.8225 43.73895 
L 430.8225 65.8747 
L 505.5825 65.8747 
L 505.5825 65.8747 
" clip-path="url(#p67b6059934)" style="fill: none; stroke-dasharray: 7.4,3.2; stroke-dashoffset: 0; stroke: #2e8b57; stroke-opacity: 0.9; stroke-width: 2"/>
   </g>
   <g id="patch_7">
    <path d="M 61.695 96.86475 
L 61.695 30.4575 
" style="fill: none; stroke: #262626; stroke-width: 1.25; stroke-linejoin: miter; stroke-linecap: square"/>
   </g>
   <g id="patch_8">
    <path d="M 510.255 96.86475 
L 510.255 30.4575 
" style="fill: none; stroke: #262626; stroke-width: 1.25; stroke-linejoin: miter; stroke-linecap: square"/>
   </g>
   <g id="patch_9">
    <path d="M 61.695 96.86475 
L 510.255 96.86475 
" style="fill: none; stroke: #262626; stroke-width: 1.25; stroke-linejoin: miter; stroke-linecap: square"/>
   </g>
   <g id="patch_10">
    <path d="M 61.695 30.4575 
L 510.255 30.4575 
" style="fill: none; stroke: #262626; stroke-width: 1.25; stroke-linejoin: miter; stroke-linecap: square"/>
   </g>
   <g id="text_7">
    <!-- 住宅_A -->
    <g style="fill: #262626" transform="translate(264.975 24.4575) scale(0.14 -0.14)">
     <defs>
      <path id="SimSun-4f4f" d="M 3300 5150 
Q 3900 4825 4062 4662 
Q 4225 4500 4225 4375 
Q 4225 4275 4112 4112 
Q 4000 3950 3950 3950 
Q 3875 3950 3800 4175 
Q 3700 4525 3225 5075 
L 3300 5150 
z
M 2125 3750 
L 5100 3750 
L 5450 4100 
L 5950 3600 
L 4075 3600 
L 4075 1950 
L 4850 1950 
L 5175 2275 
L 5650 1800 
L 4075 1800 
L 4075 -125 
L 5175 -125 
L 5525 225 
L 6025 -275 
L 2700 -275 
Q 2375 -275 2100 -350 
L 1875 -125 
L 3725 -125 
L 3725 1800 
L 3100 1800 
Q 2775 1800 2500 1725 
L 2275 1950 
L 3725 1950 
L 3725 3600 
L 2950 3600 
Q 2625 3600 2350 3525 
L 2125 3750 
z
M 1275 -600 
Q 1300 525 1300 875 
L 1300 3075 
Q 900 2475 275 1900 
L 225 1975 
Q 925 2875 1375 3812 
Q 1825 4750 1925 5175 
L 2475 4825 
L 2250 4675 
Q 1800 3900 1525 3425 
L 1825 3225 
L 1650 3050 
L 1650 625 
Q 1650 325 1675 -450 
L 1275 -600 
z
" transform="scale(0.015625)"/>
      <path id="SimSun-5b85" d="M 4250 3700 
L 4725 3225 
Q 4500 3225 4212 3175 
Q 3925 3125 3025 2950 
L 3025 1775 
L 4775 2025 
L 5125 2425 
L 5775 2000 
L 3025 1625 
L 3025 325 
Q 3050 25 3300 0 
L 5125 0 
Q 5350 25 5425 250 
Q 5500 475 5525 1175 
L 5650 1175 
Q 5650 650 5712 362 
Q 5775 75 6000 25 
Q 5725 -325 5325 -300 
L 3175 -300 
Q 2675 -300 2675 200 
L 2675 1575 
L 725 1325 
L 525 1225 
L 275 1425 
L 2675 1725 
L 2675 2900 
Q 1725 2775 875 2725 
L 875 2825 
Q 2100 2975 3000 3200 
Q 3900 3425 4250 3700 
z
M 2725 5175 
L 2775 5225 
Q 3225 4975 3362 4825 
Q 3500 4675 3500 4550 
Q 3500 4425 3387 4275 
Q 3275 4125 3225 4125 
Q 3150 4125 3100 4375 
Q 3025 4750 2725 5175 
z
M 4950 3200 
L 5250 3925 
L 1225 3925 
Q 1250 3775 1250 3625 
Q 1250 3400 1150 3275 
Q 1050 3150 850 3175 
Q 650 3200 650 3275 
Q 650 3350 750 3450 
Q 975 3700 1100 4375 
L 1200 4375 
L 1225 4075 
L 5225 4075 
L 5425 4350 
L 5875 3925 
Q 5550 3900 5025 3150 
L 4950 3200 
z
" transform="scale(0.015625)"/>
      <path id="SimSun-5f" d="M 0 -875 
L 0 -725 
L 3175 -725 
L 3175 -875 
L 0 -875 
z
" transform="scale(0.015625)"/>
      <path id="SimSun-41" d="M 2025 1700 
L 900 1700 
L 675 750 
Q 650 625 650 550 
Q 650 450 687 350 
Q 725 250 900 250 
L 975 250 
L 975 100 
L 50 100 
L 50 250 
L 125 250 
Q 225 250 300 312 
Q 375 375 400 525 
L 1375 4350 
L 1750 4475 
L 2700 525 
Q 2750 375 2825 312 
Q 2900 250 3000 250 
L 3075 250 
L 3075 100 
L 2000 100 
L 2000 250 
L 2100 250 
Q 2250 250 2275 312 
Q 2300 375 2300 425 
Q 2300 525 2275 600 
L 2025 1700 
z
M 325 250 
L 325 250 
z
M 575 250 
L 575 250 
z
M 2350 250 
L 2350 250 
z
M 2775 250 
L 2775 250 
z
M 1500 3925 
L 1475 3925 
L 950 1850 
L 2000 1850 
L 1500 3925 
z
" transform="scale(0.015625)"/>
     </defs>
     <use xlink:href="#SimSun-4f4f"/>
     <use xlink:href="#SimSun-5b85" x="100"/>
     <use xlink:href="#SimSun-5f" x="200"/>
     <use xlink:href="#SimSun-41" x="250"/>
    </g>
   </g>
  </g>
  <g id="axes_3">
   <g id="patch_11">
    <path d="M 61.695 202.7295 
L 510.255 202.7295 
L 510.255 136.32225 
L 61.695 136.32225 
z
" style="fill: #ffffff"/>
   </g>
   <g id="matplotlib.axis_4">
    <g id="xtick_14">
     <g id="line2d_21">
      <g>
       <use xlink:href="#mb7f13f2daa" x="61.695" y="202.7295" style="fill: #262626; stroke: #262626; stroke-width: 1.25"/>
      </g>
     </g>
    </g>
    <g id="xtick_15">
     <g id="line2d_22">
      <g>
       <use xlink:href="#mb7f13f2daa" x="99.075" y="202.7295" style="fill: #262626; stroke: #262626; stroke-width: 1.25"/>
      </g>
     </g>
    </g>
    <g id="xtick_16">
     <g id="line2d_23">
      <g>
       <use xlink:href="#mb7f13f2daa" x="136.455" y="202.7295" style="fill: #262626; stroke: #262626; stroke-width: 1.25"/>
      </g>
     </g>
    </g>
    <g id="xtick_17">
     <g id="line2d_24">
      <g>
       <use xlink:href="#mb7f13f2daa" x="173.835" y="202.7295" style="fill: #262626; stroke: #262626; stroke-width: 1.25"/>
      </g>
     </g>
    </g>
    <g id="xtick_18">
     <g id="line2d_25">
      <g>
       <use xlink:href="#mb7f13f2daa" x="211.215" y="202.7295" style="fill: #262626; stroke: #262626; stroke-width: 1.25"/>
      </g>
     </g>
    </g>
    <g id="xtick_19">
     <g id="line2d_26">
      <g>
       <use xlink:href="#mb7f13f2daa" x="248.595" y="202.7295" style="fill: #262626; stroke: #262626; stroke-width: 1.25"/>
      </g>
     </g>
    </g>
    <g id="xtick_20">
     <g id="line2d_27">
      <g>
       <use xlink:href="#mb7f13f2daa" x="285.975" y="202.7295" style="fill: #262626; stroke: #262626; stroke-width: 1.25"/>
      </g>
     </g>
    </g>
    <g id="xtick_21">
     <g id="line2d_28">
      <g>
       <use xlink:href="#mb7f13f2daa" x="323.355" y="202.7295" style="fill: #262626; stroke: #262626; stroke-width: 1.25"/>
      </g>
     </g>
    </g>
    <g id="xtick_22">
     <g id="line2d_29">
      <g>
       <use xlink:href="#mb7f13f2daa" x="360.735" y="202.7295" style="fill: #262626; stroke: #262626; stroke-width: 1.25"/>
      </g>
     </g>
    </g>
    <g id="xtick_23">
     <g id="line2d_30">
      <g>
       <use xlink:href="#mb7f13f2daa" x="398.115" y="202.7295" style="fill: #262626; stroke: #262626; stroke-width: 1.25"/>
      </g>
     </g>
    </g>
    <g id="xtick_24">
     <g id="line2d_31">
      <g>
       <use xlink:href="#mb7f13f2daa" x="435.495" y="202.7295" style="fill: #262626; stroke: #262626; stroke-width: 1.25"/>
      </g>
     </g>
    </g>
    <g id="xtick_25">
     <g id="line2d_32">
      <g>
       <use xlink:href="#mb7f13f2daa" x="472.875" y="202.7295" style="fill: #262626; stroke: #262626; stroke-width: 1.25"/>
      </g>
     </g>
    </g>
    <g id="xtick_26">
     <g id="line2d_33">
      <g>
       <use xlink:href="#mb7f13f2daa" x="510.255" y="202.7295" style="fill: #262626; stroke: #262626; stroke-width: 1.25"/>
      </g>
     </g>
    </g>
   </g>
   <g id="matplotlib.axis_5">
    <g id="ytick_5">
     <g id="line2d_34">
      <g>
       <use xlink:href="#m9bb2c31fcc" x="61.695" y="191.661625" style="fill: #262626; stroke: #262626; stroke-width: 1.25"/>
      </g>
     </g>
     <g id="text_8">
      <!-- 0 -->
      <g style="fill: #262626" transform="translate(44.195 197.216625) scale(0.16 -0.16)">
       <use xlink:href="#TimesNewRomanPSMT-30"/>
      </g>
     </g>
    </g>
    <g id="ytick_6">
     <g id="line2d_35">
      <g>
       <use xlink:href="#m9bb2c31fcc" x="61.695" y="136.32225" style="fill: #262626; stroke: #262626; stroke-width: 1.25"/>
      </g>
     </g>
     <g id="text_9">
      <!-- 10 -->
      <g style="fill: #262626" transform="translate(36.195 141.87725) scale(0.16 -0.16)">
       <defs>
        <path id="TimesNewRomanPSMT-31" d="M 750 3822 
L 1781 4325 
L 1884 4325 
L 1884 747 
Q 1884 391 1914 303 
Q 1944 216 2037 169 
Q 2131 122 2419 116 
L 2419 0 
L 825 0 
L 825 116 
Q 1125 122 1212 167 
Q 1300 213 1334 289 
Q 1369 366 1369 747 
L 1369 3034 
Q 1369 3497 1338 3628 
Q 1316 3728 1258 3775 
Q 1200 3822 1119 3822 
Q 1003 3822 797 3725 
L 750 3822 
z
" transform="scale(0.015625)"/>
       </defs>
       <use xlink:href="#TimesNewRomanPSMT-31"/>
       <use xlink:href="#TimesNewRomanPSMT-30" x="50"/>
      </g>
     </g>
    </g>
    <g id="text_10">
     <!-- 功率$\mathrm{(kW)}$ -->
     <g style="fill: #262626" transform="translate(29.315 202.405875) rotate(-90) scale(0.16 -0.16)">
      <use xlink:href="#SimSun-529f" transform="translate(0 0.96875)"/>
      <use xlink:href="#SimSun-7387" transform="translate(100 0.96875)"/>
      <use xlink:href="#STIXGeneral-Regular-28" transform="translate(200 0.96875)"/>
      <use xlink:href="#STIXGeneral-Regular-6b" transform="translate(233.299988 0.96875)"/>
      <use xlink:href="#STIXGeneral-Regular-57" transform="translate(283.299973 0.96875)"/>
      <use xlink:href="#STIXGeneral-Regular-29" transform="translate(377.699966 0.96875)"/>
     </g>
    </g>
   </g>
   <g id="line2d_36">
    <path d="M 61.695 187.52224 
L 66.3675 180.80404 
L 71.04 170.27817 
L 75.7125 175.795826 
L 80.385 166.349394 
L 85.0575 168.739542 
L 89.73 174.618604 
L 94.4025 167.25696 
L 99.075 178.586584 
L 103.7475 186.880639 
L 108.42 170.284024 
L 113.0925 181.740386 
L 117.765 170.014863 
L 122.4375 181.922187 
L 127.11 167.555793 
L 131.7825 171.069843 
L 136.455 172.918178 
L 141.1275 171.661599 
L 145.8 183.472349 
L 150.4725 168.706852 
L 155.145 185.656123 
L 159.8175 168.319476 
L 164.49 176.133396 
L 169.1625 184.066895 
L 173.835 192.55073 
L 178.5075 168.186662 
L 183.18 172.350032 
L 187.8525 170.793146 
L 192.525 167.706017 
L 197.1975 169.243514 
L 201.87 170.986804 
L 206.5425 176.155532 
L 211.215 156.272095 
L 215.8875 168.679183 
L 220.56 163.538155 
L 225.2325 174.936985 
L 229.905 167.577892 
L 234.5775 173.897686 
L 239.25 177.240184 
L 243.9225 179.182596 
L 248.595 170.69907 
L 253.2675 163.164753 
L 257.94 152.365019 
L 262.6125 150.688352 
L 267.285 165.869405 
L 271.9575 148.048663 
L 276.63 148.590871 
L 281.3025 149.133315 
L 285.975 162.954755 
L 290.6475 158.679358 
L 295.32 161.680362 
L 299.9925 159.471289 
L 304.665 181.164366 
L 309.3375 159.144208 
L 314.01 160.794237 
L 318.6825 189.051254 
L 323.355 163.862941 
L 328.0275 164.987184 
L 332.7 172.536337 
L 337.3725 168.158992 
L 342.045 174.622631 
L 346.7175 165.286879 
L 351.39 173.980695 
L 356.0625 165.082123 
L 360.735 175.081948 
L 365.4075 177.363898 
L 370.08 186.318993 
L 374.7525 176.082579 
L 379.425 183.61528 
L 384.0975 175.513596 
L 388.77 170.576565 
L 393.4425 158.884114 
L 398.115 159.24382 
L 402.7875 169.531409 
L 407.46 172.68022 
L 412.1325 183.045285 
L 416.805 173.715626 
L 421.4775 185.676034 
L 426.15 189.342906 
L 430.8225 183.932197 
L 435.495 191.772304 
L 440.1675 189.464652 
L 444.84 184.650127 
L 449.5125 188.796268 
L 454.185 193.675979 
L 458.8575 178.742227 
L 463.53 173.170201 
L 468.2025 185.920989 
L 472.875 175.253764 
L 477.5475 178.219691 
L 482.22 183.366253 
L 486.8925 176.404559 
L 491.565 175.690681 
L 496.2375 185.186918 
L 500.91 178.618134 
L 505.5825 177.295523 
" clip-path="url(#pb68ada3546)" style="fill: none; stroke: #4c72b0; stroke-width: 2; stroke-linecap: round"/>
   </g>
   <g id="line2d_37">
    <path d="M 61.695 187.52224 
L 66.3675 180.80404 
L 71.04 179.86327 
L 75.7125 189.077276 
L 80.385 179.630845 
L 85.0575 181.9717 
L 89.73 187.627385 
L 94.4025 180.538411 
L 99.075 188.036896 
L 103.7475 182.591501 
L 108.42 183.565474 
L 113.0925 186.598072 
L 117.765 180.300451 
L 122.4375 189.337371 
L 127.11 180.837243 
L 131.7825 184.351294 
L 136.455 186.199629 
L 141.1275 181.899759 
L 145.8 189.973774 
L 150.4725 181.988302 
L 155.145 189.946104 
L 159.8175 181.600927 
L 164.49 189.414846 
L 169.1625 181.916361 
L 173.835 188.490679 
L 178.5075 181.468112 
L 183.18 184.965561 
L 187.8525 184.074597 
L 192.525 180.743166 
L 197.1975 181.047533 
L 201.87 176.53184 
L 206.5425 176.155532 
L 211.215 156.272095 
L 215.8875 168.679183 
L 220.56 163.538155 
L 225.2325 163.350001 
L 229.905 180.416664 
L 234.5775 173.897686 
L 239.25 177.240184 
L 243.9225 179.182596 
L 248.595 170.69907 
L 253.2675 157.760724 
L 257.94 158.352855 
L 262.6125 150.688352 
L 267.285 153.792891 
L 271.9575 161.330114 
L 276.63 148.6906 
L 281.3025 149.133315 
L 285.975 158.374991 
L 290.6475 145.397908 
L 295.32 162.846412 
L 299.9925 161.994186 
L 304.665 175.065346 
L 309.3375 172.425658 
L 314.01 170.372567 
L 318.6825 177.107369 
L 323.355 166.576286 
L 328.0275 175.508061 
L 332.7 172.536337 
L 337.3725 168.158992 
L 342.045 174.622631 
L 346.7175 165.286879 
L 351.39 173.980695 
L 356.0625 165.082123 
L 360.735 175.081948 
L 365.4075 165.641051 
L 370.08 174.279527 
L 374.7525 164.451254 
L 379.425 170.33383 
L 384.0975 162.232145 
L 388.77 158.441398 
L 393.4425 145.602663 
L 398.115 145.962369 
L 402.7875 156.249959 
L 407.46 159.398769 
L 412.1325 169.763834 
L 416.805 163.936598 
L 421.4775 176.299415 
L 426.15 176.061455 
L 430.8225 170.804215 
L 435.495 178.490854 
L 440.1675 176.183202 
L 444.84 171.368676 
L 449.5125 180.77637 
L 454.185 180.394528 
L 458.8575 173.604387 
L 463.53 178.889297 
L 468.2025 181.589859 
L 472.875 174.42341 
L 477.5475 178.219691 
L 482.22 183.366253 
L 486.8925 176.404559 
L 491.565 175.690681 
L 496.2375 185.186918 
L 500.91 178.618134 
L 505.5825 177.295523 
" clip-path="url(#pb68ada3546)" style="fill: none; stroke: #dd8452; stroke-width: 2; stroke-linecap: round"/>
   </g>
   <g id="patch_12">
    <path d="M 61.695 202.7295 
L 61.695 136.32225 
" style="fill: none; stroke: #262626; stroke-width: 1.25; stroke-linejoin: miter; stroke-linecap: square"/>
   </g>
   <g id="patch_13">
    <path d="M 510.255 202.7295 
L 510.255 136.32225 
" style="fill: none; stroke: #262626; stroke-width: 1.25; stroke-linejoin: miter; stroke-linecap: square"/>
   </g>
   <g id="patch_14">
    <path d="M 61.695 202.7295 
L 510.255 202.7295 
" style="fill: none; stroke: #262626; stroke-width: 1.25; stroke-linejoin: miter; stroke-linecap: square"/>
   </g>
   <g id="patch_15">
    <path d="M 61.695 136.32225 
L 510.255 136.32225 
" style="fill: none; stroke: #262626; stroke-width: 1.25; stroke-linejoin: miter; stroke-linecap: square"/>
   </g>
  </g>
  <g id="axes_4">
   <g id="matplotlib.axis_6">
    <g id="ytick_7">
     <g id="line2d_38">
      <g>
       <use xlink:href="#m3f1b004b15" x="510.255" y="202.7295" style="fill: #262626; stroke: #262626; stroke-width: 1.25"/>
      </g>
     </g>
     <g id="text_11">
      <!-- 0.0 -->
      <g style="fill: #262626" transform="translate(519.755 208.2845) scale(0.16 -0.16)">
       <use xlink:href="#TimesNewRomanPSMT-30"/>
       <use xlink:href="#TimesNewRomanPSMT-2e" x="50"/>
       <use xlink:href="#TimesNewRomanPSMT-30" x="75"/>
      </g>
     </g>
    </g>
    <g id="ytick_8">
     <g id="line2d_39">
      <g>
       <use xlink:href="#m3f1b004b15" x="510.255" y="147.390125" style="fill: #262626; stroke: #262626; stroke-width: 1.25"/>
      </g>
     </g>
     <g id="text_12">
      <!-- 0.5 -->
      <g style="fill: #262626" transform="translate(519.755 152.945125) scale(0.16 -0.16)">
       <use xlink:href="#TimesNewRomanPSMT-30"/>
       <use xlink:href="#TimesNewRomanPSMT-2e" x="50"/>
       <use xlink:href="#TimesNewRomanPSMT-35" x="75"/>
      </g>
     </g>
    </g>
    <g id="text_13">
     <!-- 分时电价$\mathrm{(\$)}$ -->
     <g style="fill: #262626" transform="translate(556.875 210.885875) rotate(-90) scale(0.16 -0.16)">
      <use xlink:href="#SimSun-5206" transform="translate(0 0.359375)"/>
      <use xlink:href="#SimSun-65f6" transform="translate(100 0.359375)"/>
      <use xlink:href="#SimSun-7535" transform="translate(200 0.359375)"/>
      <use xlink:href="#SimSun-4ef7" transform="translate(300 0.359375)"/>
      <use xlink:href="#STIXGeneral-Regular-28" transform="translate(400 0.359375)"/>
      <use xlink:href="#STIXGeneral-Regular-24" transform="translate(433.299988 0.359375)"/>
      <use xlink:href="#STIXGeneral-Regular-29" transform="translate(483.299973 0.359375)"/>
     </g>
    </g>
   </g>
   <g id="line2d_40">
    <path d="M 61.695 189.44805 
L 206.5425 189.44805 
L 206.5425 171.73945 
L 318.6825 171.73945 
L 318.6825 149.6037 
L 430.8225 149.6037 
L 430.8225 171.73945 
L 505.5825 171.73945 
L 505.5825 171.73945 
" clip-path="url(#pb68ada3546)" style="fill: none; stroke-dasharray: 7.4,3.2; stroke-dashoffset: 0; stroke: #2e8b57; stroke-opacity: 0.9; stroke-width: 2"/>
   </g>
   <g id="patch_16">
    <path d="M 61.695 202.7295 
L 61.695 136.32225 
" style="fill: none; stroke: #262626; stroke-width: 1.25; stroke-linejoin: miter; stroke-linecap: square"/>
   </g>
   <g id="patch_17">
    <path d="M 510.255 202.7295 
L 510.255 136.32225 
" style="fill: none; stroke: #262626; stroke-width: 1.25; stroke-linejoin: miter; stroke-linecap: square"/>
   </g>
   <g id="patch_18">
    <path d="M 61.695 202.7295 
L 510.255 202.7295 
" style="fill: none; stroke: #262626; stroke-width: 1.25; stroke-linejoin: miter; stroke-linecap: square"/>
   </g>
   <g id="patch_19">
    <path d="M 61.695 136.32225 
L 510.255 136.32225 
" style="fill: none; stroke: #262626; stroke-width: 1.25; stroke-linejoin: miter; stroke-linecap: square"/>
   </g>
   <g id="text_14">
    <!-- 住宅_B -->
    <g style="fill: #262626" transform="translate(264.975 130.32225) scale(0.14 -0.14)">
     <defs>
      <path id="SimSun-42" d="M 100 100 
L 100 250 
L 300 250 
Q 425 250 475 300 
Q 525 350 525 450 
L 525 4025 
Q 525 4125 475 4175 
Q 425 4225 300 4225 
L 150 4225 
L 150 4375 
L 1600 4375 
Q 2200 4375 2487 4137 
Q 2775 3900 2775 3400 
Q 2775 3050 2625 2825 
Q 2475 2600 2000 2425 
Q 2575 2250 2775 1925 
Q 2975 1600 2975 1200 
Q 2975 700 2625 400 
Q 2275 100 1675 100 
L 100 100 
z
M 1600 250 
Q 2025 250 2262 512 
Q 2500 775 2500 1250 
Q 2500 1800 2250 2062 
Q 2000 2325 1500 2325 
L 925 2325 
L 925 450 
Q 925 350 987 300 
Q 1050 250 1150 250 
L 1600 250 
z
M 2350 3400 
Q 2350 3850 2100 4037 
Q 1850 4225 1450 4225 
L 1150 4225 
Q 1050 4225 987 4175 
Q 925 4125 925 4025 
L 925 2475 
L 1575 2475 
Q 1850 2475 2100 2700 
Q 2350 2925 2350 3400 
z
" transform="scale(0.015625)"/>
     </defs>
     <use xlink:href="#SimSun-4f4f"/>
     <use xlink:href="#SimSun-5b85" x="100"/>
     <use xlink:href="#SimSun-5f" x="200"/>
     <use xlink:href="#SimSun-42" x="250"/>
    </g>
   </g>
  </g>
  <g id="axes_5">
   <g id="patch_20">
    <path d="M 61.695 308.59425 
L 510.255 308.59425 
L 510.255 242.187 
L 61.695 242.187 
z
" style="fill: #ffffff"/>
   </g>
   <g id="matplotlib.axis_7">
    <g id="xtick_27">
     <g id="line2d_41">
      <g>
       <use xlink:href="#mb7f13f2daa" x="61.695" y="308.59425" style="fill: #262626; stroke: #262626; stroke-width: 1.25"/>
      </g>
     </g>
    </g>
    <g id="xtick_28">
     <g id="line2d_42">
      <g>
       <use xlink:href="#mb7f13f2daa" x="99.075" y="308.59425" style="fill: #262626; stroke: #262626; stroke-width: 1.25"/>
      </g>
     </g>
    </g>
    <g id="xtick_29">
     <g id="line2d_43">
      <g>
       <use xlink:href="#mb7f13f2daa" x="136.455" y="308.59425" style="fill: #262626; stroke: #262626; stroke-width: 1.25"/>
      </g>
     </g>
    </g>
    <g id="xtick_30">
     <g id="line2d_44">
      <g>
       <use xlink:href="#mb7f13f2daa" x="173.835" y="308.59425" style="fill: #262626; stroke: #262626; stroke-width: 1.25"/>
      </g>
     </g>
    </g>
    <g id="xtick_31">
     <g id="line2d_45">
      <g>
       <use xlink:href="#mb7f13f2daa" x="211.215" y="308.59425" style="fill: #262626; stroke: #262626; stroke-width: 1.25"/>
      </g>
     </g>
    </g>
    <g id="xtick_32">
     <g id="line2d_46">
      <g>
       <use xlink:href="#mb7f13f2daa" x="248.595" y="308.59425" style="fill: #262626; stroke: #262626; stroke-width: 1.25"/>
      </g>
     </g>
    </g>
    <g id="xtick_33">
     <g id="line2d_47">
      <g>
       <use xlink:href="#mb7f13f2daa" x="285.975" y="308.59425" style="fill: #262626; stroke: #262626; stroke-width: 1.25"/>
      </g>
     </g>
    </g>
    <g id="xtick_34">
     <g id="line2d_48">
      <g>
       <use xlink:href="#mb7f13f2daa" x="323.355" y="308.59425" style="fill: #262626; stroke: #262626; stroke-width: 1.25"/>
      </g>
     </g>
    </g>
    <g id="xtick_35">
     <g id="line2d_49">
      <g>
       <use xlink:href="#mb7f13f2daa" x="360.735" y="308.59425" style="fill: #262626; stroke: #262626; stroke-width: 1.25"/>
      </g>
     </g>
    </g>
    <g id="xtick_36">
     <g id="line2d_50">
      <g>
       <use xlink:href="#mb7f13f2daa" x="398.115" y="308.59425" style="fill: #262626; stroke: #262626; stroke-width: 1.25"/>
      </g>
     </g>
    </g>
    <g id="xtick_37">
     <g id="line2d_51">
      <g>
       <use xlink:href="#mb7f13f2daa" x="435.495" y="308.59425" style="fill: #262626; stroke: #262626; stroke-width: 1.25"/>
      </g>
     </g>
    </g>
    <g id="xtick_38">
     <g id="line2d_52">
      <g>
       <use xlink:href="#mb7f13f2daa" x="472.875" y="308.59425" style="fill: #262626; stroke: #262626; stroke-width: 1.25"/>
      </g>
     </g>
    </g>
    <g id="xtick_39">
     <g id="line2d_53">
      <g>
       <use xlink:href="#mb7f13f2daa" x="510.255" y="308.59425" style="fill: #262626; stroke: #262626; stroke-width: 1.25"/>
      </g>
     </g>
    </g>
   </g>
   <g id="matplotlib.axis_8">
    <g id="ytick_9">
     <g id="line2d_54">
      <g>
       <use xlink:href="#m9bb2c31fcc" x="61.695" y="295.3128" style="fill: #262626; stroke: #262626; stroke-width: 1.25"/>
      </g>
     </g>
     <g id="text_15">
      <!-- 0 -->
      <g style="fill: #262626" transform="translate(44.195 300.8678) scale(0.16 -0.16)">
       <use xlink:href="#TimesNewRomanPSMT-30"/>
      </g>
     </g>
    </g>
    <g id="ytick_10">
     <g id="line2d_55">
      <g>
       <use xlink:href="#m9bb2c31fcc" x="61.695" y="262.109175" style="fill: #262626; stroke: #262626; stroke-width: 1.25"/>
      </g>
     </g>
     <g id="text_16">
      <!-- 5 -->
      <g style="fill: #262626" transform="translate(44.195 267.664175) scale(0.16 -0.16)">
       <use xlink:href="#TimesNewRomanPSMT-35"/>
      </g>
     </g>
    </g>
    <g id="text_17">
     <!-- 功率$\mathrm{(kW)}$ -->
     <g style="fill: #262626" transform="translate(37.315 308.270625) rotate(-90) scale(0.16 -0.16)">
      <use xlink:href="#SimSun-529f" transform="translate(0 0.96875)"/>
      <use xlink:href="#SimSun-7387" transform="translate(100 0.96875)"/>
      <use xlink:href="#STIXGeneral-Regular-28" transform="translate(200 0.96875)"/>
      <use xlink:href="#STIXGeneral-Regular-6b" transform="translate(233.299988 0.96875)"/>
      <use xlink:href="#STIXGeneral-Regular-57" transform="translate(283.299973 0.96875)"/>
      <use xlink:href="#STIXGeneral-Regular-29" transform="translate(377.699966 0.96875)"/>
     </g>
    </g>
   </g>
   <g id="line2d_56">
    <path d="M 61.695 277.429328 
L 66.3675 288.944345 
L 71.04 292.158456 
L 75.7125 276.805099 
L 80.385 300.837882 
L 85.0575 287.556433 
L 89.73 292.530336 
L 94.4025 292.47721 
L 99.075 292.351037 
L 103.7475 274.269086 
L 108.42 286.031234 
L 113.0925 285.738807 
L 117.765 276.532829 
L 122.4375 276.559392 
L 127.11 279.702946 
L 131.7825 277.117213 
L 136.455 277.250027 
L 141.1275 302.524421 
L 145.8 282.613015 
L 150.4725 276.898069 
L 155.145 277.316435 
L 159.8175 277.27659 
L 164.49 276.605877 
L 169.1625 266.153376 
L 173.835 287.472727 
L 178.5075 293.068235 
L 183.18 292.902217 
L 187.8525 292.862372 
L 192.525 290.571322 
L 197.1975 277.329717 
L 201.87 288.944345 
L 206.5425 284.979832 
L 211.215 295.748552 
L 215.8875 291.020841 
L 220.56 292.709636 
L 225.2325 283.77122 
L 229.905 282.969838 
L 234.5775 289.719152 
L 239.25 287.124786 
L 243.9225 276.559393 
L 248.595 269.453817 
L 253.2675 270.197578 
L 257.94 288.180661 
L 262.6125 285.630623 
L 267.285 282.071194 
L 271.9575 293.700846 
L 276.63 296.767119 
L 281.3025 276.858225 
L 285.975 276.619158 
L 290.6475 263.928822 
L 295.32 276.725411 
L 299.9925 279.667252 
L 304.665 287.755655 
L 309.3375 279.149275 
L 314.01 292.596743 
L 318.6825 293.327223 
L 323.355 303.919179 
L 328.0275 281.465577 
L 332.7 292.770601 
L 337.3725 292.83581 
L 342.045 292.450648 
L 346.7175 301.401642 
L 351.39 292.887781 
L 356.0625 284.663965 
L 360.735 265.920951 
L 365.4075 257.407542 
L 370.08 257.600123 
L 374.7525 273.731801 
L 379.425 274.24178 
L 384.0975 273.590989 
L 388.77 284.050131 
L 393.4425 277.833377 
L 398.115 299.062055 
L 402.7875 272.172874 
L 407.46 276.340249 
L 412.1325 292.765779 
L 416.805 277.838415 
L 421.4775 269.175336 
L 426.15 276.645363 
L 430.8225 284.22943 
L 435.495 263.012314 
L 440.1675 282.144242 
L 444.84 285.14585 
L 449.5125 273.683959 
L 454.185 282.629015 
L 458.8575 271.857759 
L 463.53 285.019676 
L 468.2025 279.541262 
L 472.875 275.146245 
L 477.5475 281.84541 
L 482.22 272.594879 
L 486.8925 278.126603 
L 491.565 269.921585 
L 496.2375 297.043563 
L 500.91 289.103722 
L 505.5825 286.06227 
" clip-path="url(#p16deb2e21f)" style="fill: none; stroke: #4c72b0; stroke-width: 2; stroke-linecap: round"/>
   </g>
   <g id="line2d_57">
    <path d="M 61.695 277.429328 
L 66.3675 288.944345 
L 71.04 292.158456 
L 75.7125 292.742839 
L 80.385 286.454073 
L 85.0575 287.556433 
L 89.73 292.530336 
L 94.4025 292.47721 
L 99.075 292.351037 
L 103.7475 280.982115 
L 108.42 284.010286 
L 113.0925 293.088157 
L 117.765 292.47057 
L 122.4375 292.497133 
L 127.11 292.74948 
L 131.7825 293.054954 
L 136.455 293.187768 
L 141.1275 292.510414 
L 145.8 292.47057 
L 150.4725 292.83581 
L 155.145 293.254175 
L 159.8175 293.214331 
L 164.49 292.543618 
L 169.1625 282.091117 
L 173.835 288.16738 
L 178.5075 293.068235 
L 183.18 292.902217 
L 187.8525 292.862372 
L 192.525 290.571322 
L 197.1975 277.329717 
L 201.87 288.944345 
L 206.5425 284.979832 
L 211.215 293.493241 
L 215.8875 293.519804 
L 220.56 292.709636 
L 225.2325 283.77122 
L 229.905 280.01921 
L 234.5775 292.988546 
L 239.25 287.124786 
L 243.9225 276.559393 
L 248.595 269.453817 
L 253.2675 270.197578 
L 257.94 288.180661 
L 262.6125 285.630623 
L 267.285 282.071194 
L 271.9575 280.211791 
L 276.63 280.829379 
L 281.3025 292.795965 
L 285.975 292.556899 
L 290.6475 264.659213 
L 295.32 276.725411 
L 299.9925 279.667252 
L 304.665 287.755655 
L 309.3375 279.149275 
L 314.01 292.596743 
L 318.6825 293.327223 
L 323.355 293.406912 
L 328.0275 293.054954 
L 332.7 292.829169 
L 337.3725 292.83581 
L 342.045 292.450648 
L 346.7175 293.420193 
L 351.39 293.426834 
L 356.0625 292.968624 
L 360.735 265.920951 
L 365.4075 257.407542 
L 370.08 257.600123 
L 374.7525 258.317321 
L 379.425 258.30404 
L 384.0975 257.653249 
L 388.77 268.11239 
L 393.4425 263.118565 
L 398.115 284.056771 
L 402.7875 257.414182 
L 407.46 260.402509 
L 412.1325 280.703205 
L 416.805 262.441211 
L 421.4775 280.19851 
L 426.15 266.392443 
L 430.8225 284.22943 
L 435.495 263.012314 
L 440.1675 282.144242 
L 444.84 285.14585 
L 449.5125 273.683959 
L 454.185 282.629015 
L 458.8575 271.857759 
L 463.53 285.019676 
L 468.2025 290.763903 
L 472.875 265.017813 
L 477.5475 281.84541 
L 482.22 288.53262 
L 486.8925 263.742793 
L 491.565 277.953945 
L 496.2375 289.794358 
L 500.91 289.103722 
L 505.5825 286.06227 
" clip-path="url(#p16deb2e21f)" style="fill: none; stroke: #dd8452; stroke-width: 2; stroke-linecap: round"/>
   </g>
   <g id="patch_21">
    <path d="M 61.695 308.59425 
L 61.695 242.187 
" style="fill: none; stroke: #262626; stroke-width: 1.25; stroke-linejoin: miter; stroke-linecap: square"/>
   </g>
   <g id="patch_22">
    <path d="M 510.255 308.59425 
L 510.255 242.187 
" style="fill: none; stroke: #262626; stroke-width: 1.25; stroke-linejoin: miter; stroke-linecap: square"/>
   </g>
   <g id="patch_23">
    <path d="M 61.695 308.59425 
L 510.255 308.59425 
" style="fill: none; stroke: #262626; stroke-width: 1.25; stroke-linejoin: miter; stroke-linecap: square"/>
   </g>
   <g id="patch_24">
    <path d="M 61.695 242.187 
L 510.255 242.187 
" style="fill: none; stroke: #262626; stroke-width: 1.25; stroke-linejoin: miter; stroke-linecap: square"/>
   </g>
  </g>
  <g id="axes_6">
   <g id="matplotlib.axis_9">
    <g id="ytick_11">
     <g id="line2d_58">
      <g>
       <use xlink:href="#m3f1b004b15" x="510.255" y="308.59425" style="fill: #262626; stroke: #262626; stroke-width: 1.25"/>
      </g>
     </g>
     <g id="text_18">
      <!-- 0.0 -->
      <g style="fill: #262626" transform="translate(519.755 314.14925) scale(0.16 -0.16)">
       <use xlink:href="#TimesNewRomanPSMT-30"/>
       <use xlink:href="#TimesNewRomanPSMT-2e" x="50"/>
       <use xlink:href="#TimesNewRomanPSMT-30" x="75"/>
      </g>
     </g>
    </g>
    <g id="ytick_12">
     <g id="line2d_59">
      <g>
       <use xlink:href="#m3f1b004b15" x="510.255" y="253.254875" style="fill: #262626; stroke: #262626; stroke-width: 1.25"/>
      </g>
     </g>
     <g id="text_19">
      <!-- 0.5 -->
      <g style="fill: #262626" transform="translate(519.755 258.809875) scale(0.16 -0.16)">
       <use xlink:href="#TimesNewRomanPSMT-30"/>
       <use xlink:href="#TimesNewRomanPSMT-2e" x="50"/>
       <use xlink:href="#TimesNewRomanPSMT-35" x="75"/>
      </g>
     </g>
    </g>
    <g id="text_20">
     <!-- 分时电价$\mathrm{(\$)}$ -->
     <g style="fill: #262626" transform="translate(556.875 316.750625) rotate(-90) scale(0.16 -0.16)">
      <use xlink:href="#SimSun-5206" transform="translate(0 0.359375)"/>
      <use xlink:href="#SimSun-65f6" transform="translate(100 0.359375)"/>
      <use xlink:href="#SimSun-7535" transform="translate(200 0.359375)"/>
      <use xlink:href="#SimSun-4ef7" transform="translate(300 0.359375)"/>
      <use xlink:href="#STIXGeneral-Regular-28" transform="translate(400 0.359375)"/>
      <use xlink:href="#STIXGeneral-Regular-24" transform="translate(433.299988 0.359375)"/>
      <use xlink:href="#STIXGeneral-Regular-29" transform="translate(483.299973 0.359375)"/>
     </g>
    </g>
   </g>
   <g id="line2d_60">
    <path d="M 61.695 295.3128 
L 206.5425 295.3128 
L 206.5425 277.6042 
L 318.6825 277.6042 
L 318.6825 255.46845 
L 430.8225 255.46845 
L 430.8225 277.6042 
L 505.5825 277.6042 
L 505.5825 277.6042 
" clip-path="url(#p16deb2e21f)" style="fill: none; stroke-dasharray: 7.4,3.2; stroke-dashoffset: 0; stroke: #2e8b57; stroke-opacity: 0.9; stroke-width: 2"/>
   </g>
   <g id="patch_25">
    <path d="M 61.695 308.59425 
L 61.695 242.187 
" style="fill: none; stroke: #262626; stroke-width: 1.25; stroke-linejoin: miter; stroke-linecap: square"/>
   </g>
   <g id="patch_26">
    <path d="M 510.255 308.59425 
L 510.255 242.187 
" style="fill: none; stroke: #262626; stroke-width: 1.25; stroke-linejoin: miter; stroke-linecap: square"/>
   </g>
   <g id="patch_27">
    <path d="M 61.695 308.59425 
L 510.255 308.59425 
" style="fill: none; stroke: #262626; stroke-width: 1.25; stroke-linejoin: miter; stroke-linecap: square"/>
   </g>
   <g id="patch_28">
    <path d="M 61.695 242.187 
L 510.255 242.187 
" style="fill: none; stroke: #262626; stroke-width: 1.25; stroke-linejoin: miter; stroke-linecap: square"/>
   </g>
   <g id="text_21">
    <!-- 住宅_C -->
    <g style="fill: #262626" transform="translate(264.975 236.187) scale(0.14 -0.14)">
     <defs>
      <path id="SimSun-43" d="M 1725 50 
Q 1025 50 612 575 
Q 200 1100 200 2225 
Q 200 3175 637 3800 
Q 1075 4425 1825 4425 
Q 2000 4425 2175 4375 
Q 2350 4300 2475 4300 
Q 2575 4300 2637 4325 
Q 2700 4350 2750 4425 
L 2975 3325 
L 2825 3275 
Q 2675 3750 2425 4000 
Q 2175 4250 1775 4250 
Q 1250 4250 962 3675 
Q 675 3100 675 2250 
Q 675 1325 925 800 
Q 1175 275 1750 275 
Q 2150 275 2437 562 
Q 2725 850 2825 1325 
L 2975 1250 
Q 2850 725 2512 387 
Q 2175 50 1725 50 
z
" transform="scale(0.015625)"/>
     </defs>
     <use xlink:href="#SimSun-4f4f"/>
     <use xlink:href="#SimSun-5b85" x="100"/>
     <use xlink:href="#SimSun-5f" x="200"/>
     <use xlink:href="#SimSun-43" x="250"/>
    </g>
   </g>
  </g>
  <g id="axes_7">
   <g id="patch_29">
    <path d="M 61.695 414.459 
L 510.255 414.459 
L 510.255 348.05175 
L 61.695 348.05175 
z
" style="fill: #ffffff"/>
   </g>
   <g id="matplotlib.axis_10">
    <g id="xtick_40">
     <g id="line2d_61">
      <g>
       <use xlink:href="#mb7f13f2daa" x="61.695" y="414.459" style="fill: #262626; stroke: #262626; stroke-width: 1.25"/>
      </g>
     </g>
    </g>
    <g id="xtick_41">
     <g id="line2d_62">
      <g>
       <use xlink:href="#mb7f13f2daa" x="99.075" y="414.459" style="fill: #262626; stroke: #262626; stroke-width: 1.25"/>
      </g>
     </g>
    </g>
    <g id="xtick_42">
     <g id="line2d_63">
      <g>
       <use xlink:href="#mb7f13f2daa" x="136.455" y="414.459" style="fill: #262626; stroke: #262626; stroke-width: 1.25"/>
      </g>
     </g>
    </g>
    <g id="xtick_43">
     <g id="line2d_64">
      <g>
       <use xlink:href="#mb7f13f2daa" x="173.835" y="414.459" style="fill: #262626; stroke: #262626; stroke-width: 1.25"/>
      </g>
     </g>
    </g>
    <g id="xtick_44">
     <g id="line2d_65">
      <g>
       <use xlink:href="#mb7f13f2daa" x="211.215" y="414.459" style="fill: #262626; stroke: #262626; stroke-width: 1.25"/>
      </g>
     </g>
    </g>
    <g id="xtick_45">
     <g id="line2d_66">
      <g>
       <use xlink:href="#mb7f13f2daa" x="248.595" y="414.459" style="fill: #262626; stroke: #262626; stroke-width: 1.25"/>
      </g>
     </g>
    </g>
    <g id="xtick_46">
     <g id="line2d_67">
      <g>
       <use xlink:href="#mb7f13f2daa" x="285.975" y="414.459" style="fill: #262626; stroke: #262626; stroke-width: 1.25"/>
      </g>
     </g>
    </g>
    <g id="xtick_47">
     <g id="line2d_68">
      <g>
       <use xlink:href="#mb7f13f2daa" x="323.355" y="414.459" style="fill: #262626; stroke: #262626; stroke-width: 1.25"/>
      </g>
     </g>
    </g>
    <g id="xtick_48">
     <g id="line2d_69">
      <g>
       <use xlink:href="#mb7f13f2daa" x="360.735" y="414.459" style="fill: #262626; stroke: #262626; stroke-width: 1.25"/>
      </g>
     </g>
    </g>
    <g id="xtick_49">
     <g id="line2d_70">
      <g>
       <use xlink:href="#mb7f13f2daa" x="398.115" y="414.459" style="fill: #262626; stroke: #262626; stroke-width: 1.25"/>
      </g>
     </g>
    </g>
    <g id="xtick_50">
     <g id="line2d_71">
      <g>
       <use xlink:href="#mb7f13f2daa" x="435.495" y="414.459" style="fill: #262626; stroke: #262626; stroke-width: 1.25"/>
      </g>
     </g>
    </g>
    <g id="xtick_51">
     <g id="line2d_72">
      <g>
       <use xlink:href="#mb7f13f2daa" x="472.875" y="414.459" style="fill: #262626; stroke: #262626; stroke-width: 1.25"/>
      </g>
     </g>
    </g>
    <g id="xtick_52">
     <g id="line2d_73">
      <g>
       <use xlink:href="#mb7f13f2daa" x="510.255" y="414.459" style="fill: #262626; stroke: #262626; stroke-width: 1.25"/>
      </g>
     </g>
    </g>
   </g>
   <g id="matplotlib.axis_11">
    <g id="ytick_13">
     <g id="line2d_74">
      <g>
       <use xlink:href="#m9bb2c31fcc" x="61.695" y="414.459" style="fill: #262626; stroke: #262626; stroke-width: 1.25"/>
      </g>
     </g>
     <g id="text_22">
      <!-- -5 -->
      <g style="fill: #262626" transform="translate(38.8675 420.014) scale(0.16 -0.16)">
       <defs>
        <path id="TimesNewRomanPSMT-2d" d="M 259 1672 
L 1875 1672 
L 1875 1200 
L 259 1200 
L 259 1672 
z
" transform="scale(0.015625)"/>
       </defs>
       <use xlink:href="#TimesNewRomanPSMT-2d"/>
       <use xlink:href="#TimesNewRomanPSMT-35" x="33.300781"/>
      </g>
     </g>
    </g>
    <g id="ytick_14">
     <g id="line2d_75">
      <g>
       <use xlink:href="#m9bb2c31fcc" x="61.695" y="381.255375" style="fill: #262626; stroke: #262626; stroke-width: 1.25"/>
      </g>
     </g>
     <g id="text_23">
      <!-- 0 -->
      <g style="fill: #262626" transform="translate(44.195 386.810375) scale(0.16 -0.16)">
       <use xlink:href="#TimesNewRomanPSMT-30"/>
      </g>
     </g>
    </g>
    <g id="ytick_15">
     <g id="line2d_76">
      <g>
       <use xlink:href="#m9bb2c31fcc" x="61.695" y="348.05175" style="fill: #262626; stroke: #262626; stroke-width: 1.25"/>
      </g>
     </g>
     <g id="text_24">
      <!-- 5 -->
      <g style="fill: #262626" transform="translate(44.195 353.60675) scale(0.16 -0.16)">
       <use xlink:href="#TimesNewRomanPSMT-35"/>
      </g>
     </g>
    </g>
    <g id="text_25">
     <!-- 功率$\mathrm{(kW)}$ -->
     <g style="fill: #262626" transform="translate(31.9875 414.135375) rotate(-90) scale(0.16 -0.16)">
      <use xlink:href="#SimSun-529f" transform="translate(0 0.96875)"/>
      <use xlink:href="#SimSun-7387" transform="translate(100 0.96875)"/>
      <use xlink:href="#STIXGeneral-Regular-28" transform="translate(200 0.96875)"/>
      <use xlink:href="#STIXGeneral-Regular-6b" transform="translate(233.299988 0.96875)"/>
      <use xlink:href="#STIXGeneral-Regular-57" transform="translate(283.299973 0.96875)"/>
      <use xlink:href="#STIXGeneral-Regular-29" transform="translate(377.699966 0.96875)"/>
     </g>
    </g>
   </g>
   <g id="line2d_77">
    <path d="M 61.695 369.162615 
L 66.3675 369.614184 
L 71.04 367.65517 
L 75.7125 371.606402 
L 80.385 374.97989 
L 85.0575 368.126662 
L 89.73 374.408788 
L 94.4025 370.982173 
L 99.075 371.168114 
L 103.7475 375.185752 
L 108.42 370.364586 
L 113.0925 373.864248 
L 117.765 373.127128 
L 122.4375 371.745857 
L 127.11 373.897452 
L 131.7825 374.275973 
L 136.455 371.573198 
L 141.1275 363.29922 
L 145.8 382.136684 
L 150.4725 377.91509 
L 155.145 369.468088 
L 159.8175 377.788917 
L 164.49 368.471979 
L 169.1625 377.17797 
L 173.835 371.048581 
L 178.5075 358.650346 
L 183.18 355.02147 
L 187.8525 361.556492 
L 192.525 361.268257 
L 197.1975 364.626403 
L 201.87 361.001163 
L 206.5425 365.277153 
L 211.215 365.417297 
L 215.8875 365.623108 
L 220.56 372.444221 
L 225.2325 374.28594 
L 229.905 367.691403 
L 234.5775 372.460335 
L 239.25 370.155238 
L 243.9225 366.340944 
L 248.595 373.488209 
L 253.2675 377.350127 
L 257.94 386.714051 
L 262.6125 394.31104 
L 267.285 394.935268 
L 271.9575 396.807953 
L 276.63 396.635294 
L 281.3025 388.115244 
L 285.975 381.169046 
L 290.6475 389.609407 
L 295.32 386.893351 
L 299.9925 402.504355 
L 304.665 377.789118 
L 309.3375 392.732923 
L 314.01 395.778641 
L 318.6825 389.144556 
L 323.355 392.57117 
L 328.0275 395.984503 
L 332.7 390.977396 
L 337.3725 386.322248 
L 342.045 390.200432 
L 346.7175 392.889925 
L 351.39 388.772676 
L 356.0625 384.907774 
L 360.735 388.055477 
L 365.4075 389.709018 
L 370.08 390.347937 
L 374.7525 398.746061 
L 379.425 398.87986 
L 384.0975 392.405153 
L 388.77 382.861632 
L 393.4425 393.414543 
L 398.115 390.846426 
L 402.7875 384.492999 
L 407.46 385.568867 
L 412.1325 378.528662 
L 416.805 378.842014 
L 421.4775 364.436406 
L 426.15 364.485592 
L 430.8225 384.827409 
L 435.495 377.338548 
L 440.1675 355.737712 
L 444.84 375.779038 
L 449.5125 373.821803 
L 454.185 378.933975 
L 458.8575 376.597528 
L 463.53 362.807441 
L 468.2025 360.59608 
L 472.875 367.734859 
L 477.5475 370.444275 
L 482.22 366.732109 
L 486.8925 377.118203 
L 491.565 369.547777 
L 496.2375 371.666168 
L 500.91 374.860357 
L 505.5825 369.056363 
" clip-path="url(#p8ae640db78)" style="fill: none; stroke: #4c72b0; stroke-width: 2; stroke-linecap: round"/>
   </g>
   <g id="line2d_78">
    <path d="M 61.695 369.162615 
L 66.3675 369.614184 
L 71.04 367.65517 
L 75.7125 371.606402 
L 80.385 374.97989 
L 85.0575 368.126662 
L 89.73 374.408788 
L 94.4025 370.982173 
L 99.075 371.168114 
L 103.7475 375.185752 
L 108.42 370.364586 
L 113.0925 373.864248 
L 117.765 373.127128 
L 122.4375 371.745857 
L 127.11 373.897452 
L 131.7825 374.275973 
L 136.455 371.573198 
L 141.1275 377.277581 
L 145.8 369.521214 
L 150.4725 377.91509 
L 155.145 369.468088 
L 159.8175 377.788917 
L 164.49 368.471979 
L 169.1625 377.17797 
L 173.835 371.048581 
L 178.5075 374.588087 
L 183.18 370.603652 
L 187.8525 376.706478 
L 192.525 375.790058 
L 197.1975 378.45963 
L 201.87 376.938904 
L 206.5425 380.000278 
L 211.215 378.074468 
L 215.8875 381.560848 
L 220.56 373.200176 
L 225.2325 379.860823 
L 229.905 380.392081 
L 234.5775 387.431249 
L 239.25 383.785491 
L 243.9225 380.491692 
L 248.595 389.343778 
L 253.2675 389.117993 
L 257.94 386.714051 
L 262.6125 394.31104 
L 267.285 394.935268 
L 271.9575 396.807953 
L 276.63 396.635294 
L 281.3025 388.115244 
L 285.975 381.169046 
L 290.6475 389.609407 
L 295.32 386.893351 
L 299.9925 388.008992 
L 304.665 392.850081 
L 309.3375 393.733297 
L 314.01 395.778641 
L 318.6825 389.144556 
L 323.355 392.57117 
L 328.0275 395.984503 
L 332.7 390.977396 
L 337.3725 386.322248 
L 342.045 390.200432 
L 346.7175 392.889925 
L 351.39 388.772676 
L 356.0625 384.907774 
L 360.735 388.055477 
L 365.4075 389.709018 
L 370.08 377.144766 
L 374.7525 382.968682 
L 379.425 382.942119 
L 384.0975 376.467412 
L 388.77 371.300928 
L 393.4425 377.476802 
L 398.115 375.285363 
L 402.7875 368.784093 
L 407.46 372.396648 
L 412.1325 372.210708 
L 416.805 366.287181 
L 421.4775 363.730502 
L 426.15 370.377867 
L 430.8225 371.792342 
L 435.495 364.866066 
L 440.1675 368.797375 
L 444.84 370.577089 
L 449.5125 359.95857 
L 454.185 365.224665 
L 458.8575 368.272758 
L 463.53 362.807441 
L 468.2025 360.59608 
L 472.875 367.734859 
L 477.5475 370.444275 
L 482.22 366.732109 
L 486.8925 377.118203 
L 491.565 369.547777 
L 496.2375 371.666168 
L 500.91 374.860357 
L 505.5825 369.056363 
" clip-path="url(#p8ae640db78)" style="fill: none; stroke: #dd8452; stroke-width: 2; stroke-linecap: round"/>
   </g>
   <g id="patch_30">
    <path d="M 61.695 414.459 
L 61.695 348.05175 
" style="fill: none; stroke: #262626; stroke-width: 1.25; stroke-linejoin: miter; stroke-linecap: square"/>
   </g>
   <g id="patch_31">
    <path d="M 510.255 414.459 
L 510.255 348.05175 
" style="fill: none; stroke: #262626; stroke-width: 1.25; stroke-linejoin: miter; stroke-linecap: square"/>
   </g>
   <g id="patch_32">
    <path d="M 61.695 414.459 
L 510.255 414.459 
" style="fill: none; stroke: #262626; stroke-width: 1.25; stroke-linejoin: miter; stroke-linecap: square"/>
   </g>
   <g id="patch_33">
    <path d="M 61.695 348.05175 
L 510.255 348.05175 
" style="fill: none; stroke: #262626; stroke-width: 1.25; stroke-linejoin: miter; stroke-linecap: square"/>
   </g>
  </g>
  <g id="axes_8">
   <g id="matplotlib.axis_12">
    <g id="ytick_16">
     <g id="line2d_79">
      <g>
       <use xlink:href="#m3f1b004b15" x="510.255" y="414.459" style="fill: #262626; stroke: #262626; stroke-width: 1.25"/>
      </g>
     </g>
     <g id="text_26">
      <!-- 0.0 -->
      <g style="fill: #262626" transform="translate(519.755 420.014) scale(0.16 -0.16)">
       <use xlink:href="#TimesNewRomanPSMT-30"/>
       <use xlink:href="#TimesNewRomanPSMT-2e" x="50"/>
       <use xlink:href="#TimesNewRomanPSMT-30" x="75"/>
      </g>
     </g>
    </g>
    <g id="ytick_17">
     <g id="line2d_80">
      <g>
       <use xlink:href="#m3f1b004b15" x="510.255" y="359.119625" style="fill: #262626; stroke: #262626; stroke-width: 1.25"/>
      </g>
     </g>
     <g id="text_27">
      <!-- 0.5 -->
      <g style="fill: #262626" transform="translate(519.755 364.674625) scale(0.16 -0.16)">
       <use xlink:href="#TimesNewRomanPSMT-30"/>
       <use xlink:href="#TimesNewRomanPSMT-2e" x="50"/>
       <use xlink:href="#TimesNewRomanPSMT-35" x="75"/>
      </g>
     </g>
    </g>
    <g id="text_28">
     <!-- 分时电价$\mathrm{(\$)}$ -->
     <g style="fill: #262626" transform="translate(556.875 422.615375) rotate(-90) scale(0.16 -0.16)">
      <use xlink:href="#SimSun-5206" transform="translate(0 0.359375)"/>
      <use xlink:href="#SimSun-65f6" transform="translate(100 0.359375)"/>
      <use xlink:href="#SimSun-7535" transform="translate(200 0.359375)"/>
      <use xlink:href="#SimSun-4ef7" transform="translate(300 0.359375)"/>
      <use xlink:href="#STIXGeneral-Regular-28" transform="translate(400 0.359375)"/>
      <use xlink:href="#STIXGeneral-Regular-24" transform="translate(433.299988 0.359375)"/>
      <use xlink:href="#STIXGeneral-Regular-29" transform="translate(483.299973 0.359375)"/>
     </g>
    </g>
   </g>
   <g id="line2d_81">
    <path d="M 61.695 401.17755 
L 206.5425 401.17755 
L 206.5425 383.46895 
L 318.6825 383.46895 
L 318.6825 361.3332 
L 430.8225 361.3332 
L 430.8225 383.46895 
L 505.5825 383.46895 
L 505.5825 383.46895 
" clip-path="url(#p8ae640db78)" style="fill: none; stroke-dasharray: 7.4,3.2; stroke-dashoffset: 0; stroke: #2e8b57; stroke-opacity: 0.9; stroke-width: 2"/>
   </g>
   <g id="patch_34">
    <path d="M 61.695 414.459 
L 61.695 348.05175 
" style="fill: none; stroke: #262626; stroke-width: 1.25; stroke-linejoin: miter; stroke-linecap: square"/>
   </g>
   <g id="patch_35">
    <path d="M 510.255 414.459 
L 510.255 348.05175 
" style="fill: none; stroke: #262626; stroke-width: 1.25; stroke-linejoin: miter; stroke-linecap: square"/>
   </g>
   <g id="patch_36">
    <path d="M 61.695 414.459 
L 510.255 414.459 
" style="fill: none; stroke: #262626; stroke-width: 1.25; stroke-linejoin: miter; stroke-linecap: square"/>
   </g>
   <g id="patch_37">
    <path d="M 61.695 348.05175 
L 510.255 348.05175 
" style="fill: none; stroke: #262626; stroke-width: 1.25; stroke-linejoin: miter; stroke-linecap: square"/>
   </g>
   <g id="text_29">
    <!-- 住宅_D -->
    <g style="fill: #262626" transform="translate(264.975 342.05175) scale(0.14 -0.14)">
     <defs>
      <path id="SimSun-44" d="M 2500 2275 
Q 2500 3350 2175 3787 
Q 1850 4225 1275 4225 
Q 1100 4225 1012 4175 
Q 925 4125 925 4025 
L 925 450 
Q 925 350 1000 300 
Q 1075 250 1200 250 
Q 1750 250 2125 662 
Q 2500 1075 2500 2275 
z
M 525 4025 
Q 525 4125 475 4175 
Q 425 4225 300 4225 
L 150 4225 
L 150 4375 
L 1275 4375 
Q 2050 4375 2512 3875 
Q 2975 3375 2975 2325 
Q 2975 1175 2525 637 
Q 2075 100 1200 100 
L 125 100 
L 125 250 
L 300 250 
Q 425 250 475 300 
Q 525 350 525 450 
L 525 4025 
z
" transform="scale(0.015625)"/>
     </defs>
     <use xlink:href="#SimSun-4f4f"/>
     <use xlink:href="#SimSun-5b85" x="100"/>
     <use xlink:href="#SimSun-5f" x="200"/>
     <use xlink:href="#SimSun-44" x="250"/>
    </g>
   </g>
  </g>
  <g id="axes_9">
   <g id="patch_38">
    <path d="M 61.695 520.32375 
L 510.255 520.32375 
L 510.255 453.9165 
L 61.695 453.9165 
z
" style="fill: #ffffff"/>
   </g>
   <g id="matplotlib.axis_13">
    <g id="xtick_53">
     <g id="line2d_82">
      <g>
       <use xlink:href="#mb7f13f2daa" x="61.695" y="520.32375" style="fill: #262626; stroke: #262626; stroke-width: 1.25"/>
      </g>
     </g>
     <g id="text_30">
      <!-- 0 -->
      <g style="fill: #262626" transform="translate(57.695 540.93375) scale(0.16 -0.16)">
       <use xlink:href="#TimesNewRomanPSMT-30"/>
      </g>
     </g>
    </g>
    <g id="xtick_54">
     <g id="line2d_83">
      <g>
       <use xlink:href="#mb7f13f2daa" x="99.075" y="520.32375" style="fill: #262626; stroke: #262626; stroke-width: 1.25"/>
      </g>
     </g>
     <g id="text_31">
      <!-- 2 -->
      <g style="fill: #262626" transform="translate(95.075 540.93375) scale(0.16 -0.16)">
       <defs>
        <path id="TimesNewRomanPSMT-32" d="M 2934 816 
L 2638 0 
L 138 0 
L 138 116 
Q 1241 1122 1691 1759 
Q 2141 2397 2141 2925 
Q 2141 3328 1894 3587 
Q 1647 3847 1303 3847 
Q 991 3847 742 3664 
Q 494 3481 375 3128 
L 259 3128 
Q 338 3706 661 4015 
Q 984 4325 1469 4325 
Q 1984 4325 2329 3994 
Q 2675 3663 2675 3213 
Q 2675 2891 2525 2569 
Q 2294 2063 1775 1497 
Q 997 647 803 472 
L 1909 472 
Q 2247 472 2383 497 
Q 2519 522 2628 598 
Q 2738 675 2819 816 
L 2934 816 
z
" transform="scale(0.015625)"/>
       </defs>
       <use xlink:href="#TimesNewRomanPSMT-32"/>
      </g>
     </g>
    </g>
    <g id="xtick_55">
     <g id="line2d_84">
      <g>
       <use xlink:href="#mb7f13f2daa" x="136.455" y="520.32375" style="fill: #262626; stroke: #262626; stroke-width: 1.25"/>
      </g>
     </g>
     <g id="text_32">
      <!-- 4 -->
      <g style="fill: #262626" transform="translate(132.455 540.93375) scale(0.16 -0.16)">
       <defs>
        <path id="TimesNewRomanPSMT-34" d="M 2978 1563 
L 2978 1119 
L 2409 1119 
L 2409 0 
L 1894 0 
L 1894 1119 
L 100 1119 
L 100 1519 
L 2066 4325 
L 2409 4325 
L 2409 1563 
L 2978 1563 
z
M 1894 1563 
L 1894 3666 
L 406 1563 
L 1894 1563 
z
" transform="scale(0.015625)"/>
       </defs>
       <use xlink:href="#TimesNewRomanPSMT-34"/>
      </g>
     </g>
    </g>
    <g id="xtick_56">
     <g id="line2d_85">
      <g>
       <use xlink:href="#mb7f13f2daa" x="173.835" y="520.32375" style="fill: #262626; stroke: #262626; stroke-width: 1.25"/>
      </g>
     </g>
     <g id="text_33">
      <!-- 6 -->
      <g style="fill: #262626" transform="translate(169.835 540.93375) scale(0.16 -0.16)">
       <defs>
        <path id="TimesNewRomanPSMT-36" d="M 2869 4325 
L 2869 4209 
Q 2456 4169 2195 4045 
Q 1934 3922 1679 3669 
Q 1425 3416 1258 3105 
Q 1091 2794 978 2366 
Q 1428 2675 1881 2675 
Q 2316 2675 2634 2325 
Q 2953 1975 2953 1425 
Q 2953 894 2631 456 
Q 2244 -75 1606 -75 
Q 1172 -75 869 213 
Q 275 772 275 1663 
Q 275 2231 503 2743 
Q 731 3256 1154 3653 
Q 1578 4050 1965 4187 
Q 2353 4325 2688 4325 
L 2869 4325 
z
M 925 2138 
Q 869 1716 869 1456 
Q 869 1156 980 804 
Q 1091 453 1309 247 
Q 1469 100 1697 100 
Q 1969 100 2183 356 
Q 2397 613 2397 1088 
Q 2397 1622 2184 2012 
Q 1972 2403 1581 2403 
Q 1463 2403 1327 2353 
Q 1191 2303 925 2138 
z
" transform="scale(0.015625)"/>
       </defs>
       <use xlink:href="#TimesNewRomanPSMT-36"/>
      </g>
     </g>
    </g>
    <g id="xtick_57">
     <g id="line2d_86">
      <g>
       <use xlink:href="#mb7f13f2daa" x="211.215" y="520.32375" style="fill: #262626; stroke: #262626; stroke-width: 1.25"/>
      </g>
     </g>
     <g id="text_34">
      <!-- 8 -->
      <g style="fill: #262626" transform="translate(207.215 540.93375) scale(0.16 -0.16)">
       <defs>
        <path id="TimesNewRomanPSMT-38" d="M 1228 2134 
Q 725 2547 579 2797 
Q 434 3047 434 3316 
Q 434 3728 753 4026 
Q 1072 4325 1600 4325 
Q 2113 4325 2425 4047 
Q 2738 3769 2738 3413 
Q 2738 3175 2569 2928 
Q 2400 2681 1866 2347 
Q 2416 1922 2594 1678 
Q 2831 1359 2831 1006 
Q 2831 559 2490 242 
Q 2150 -75 1597 -75 
Q 994 -75 656 303 
Q 388 606 388 966 
Q 388 1247 577 1523 
Q 766 1800 1228 2134 
z
M 1719 2469 
Q 2094 2806 2194 3001 
Q 2294 3197 2294 3444 
Q 2294 3772 2109 3958 
Q 1925 4144 1606 4144 
Q 1288 4144 1088 3959 
Q 888 3775 888 3528 
Q 888 3366 970 3203 
Q 1053 3041 1206 2894 
L 1719 2469 
z
M 1375 2016 
Q 1116 1797 991 1539 
Q 866 1281 866 981 
Q 866 578 1086 336 
Q 1306 94 1647 94 
Q 1984 94 2187 284 
Q 2391 475 2391 747 
Q 2391 972 2272 1150 
Q 2050 1481 1375 2016 
z
" transform="scale(0.015625)"/>
       </defs>
       <use xlink:href="#TimesNewRomanPSMT-38"/>
      </g>
     </g>
    </g>
    <g id="xtick_58">
     <g id="line2d_87">
      <g>
       <use xlink:href="#mb7f13f2daa" x="248.595" y="520.32375" style="fill: #262626; stroke: #262626; stroke-width: 1.25"/>
      </g>
     </g>
     <g id="text_35">
      <!-- 10 -->
      <g style="fill: #262626" transform="translate(240.595 540.93375) scale(0.16 -0.16)">
       <use xlink:href="#TimesNewRomanPSMT-31"/>
       <use xlink:href="#TimesNewRomanPSMT-30" x="50"/>
      </g>
     </g>
    </g>
    <g id="xtick_59">
     <g id="line2d_88">
      <g>
       <use xlink:href="#mb7f13f2daa" x="285.975" y="520.32375" style="fill: #262626; stroke: #262626; stroke-width: 1.25"/>
      </g>
     </g>
     <g id="text_36">
      <!-- 12 -->
      <g style="fill: #262626" transform="translate(277.975 540.93375) scale(0.16 -0.16)">
       <use xlink:href="#TimesNewRomanPSMT-31"/>
       <use xlink:href="#TimesNewRomanPSMT-32" x="50"/>
      </g>
     </g>
    </g>
    <g id="xtick_60">
     <g id="line2d_89">
      <g>
       <use xlink:href="#mb7f13f2daa" x="323.355" y="520.32375" style="fill: #262626; stroke: #262626; stroke-width: 1.25"/>
      </g>
     </g>
     <g id="text_37">
      <!-- 14 -->
      <g style="fill: #262626" transform="translate(315.355 540.93375) scale(0.16 -0.16)">
       <use xlink:href="#TimesNewRomanPSMT-31"/>
       <use xlink:href="#TimesNewRomanPSMT-34" x="50"/>
      </g>
     </g>
    </g>
    <g id="xtick_61">
     <g id="line2d_90">
      <g>
       <use xlink:href="#mb7f13f2daa" x="360.735" y="520.32375" style="fill: #262626; stroke: #262626; stroke-width: 1.25"/>
      </g>
     </g>
     <g id="text_38">
      <!-- 16 -->
      <g style="fill: #262626" transform="translate(352.735 540.93375) scale(0.16 -0.16)">
       <use xlink:href="#TimesNewRomanPSMT-31"/>
       <use xlink:href="#TimesNewRomanPSMT-36" x="50"/>
      </g>
     </g>
    </g>
    <g id="xtick_62">
     <g id="line2d_91">
      <g>
       <use xlink:href="#mb7f13f2daa" x="398.115" y="520.32375" style="fill: #262626; stroke: #262626; stroke-width: 1.25"/>
      </g>
     </g>
     <g id="text_39">
      <!-- 18 -->
      <g style="fill: #262626" transform="translate(390.115 540.93375) scale(0.16 -0.16)">
       <use xlink:href="#TimesNewRomanPSMT-31"/>
       <use xlink:href="#TimesNewRomanPSMT-38" x="50"/>
      </g>
     </g>
    </g>
    <g id="xtick_63">
     <g id="line2d_92">
      <g>
       <use xlink:href="#mb7f13f2daa" x="435.495" y="520.32375" style="fill: #262626; stroke: #262626; stroke-width: 1.25"/>
      </g>
     </g>
     <g id="text_40">
      <!-- 20 -->
      <g style="fill: #262626" transform="translate(427.495 540.93375) scale(0.16 -0.16)">
       <use xlink:href="#TimesNewRomanPSMT-32"/>
       <use xlink:href="#TimesNewRomanPSMT-30" x="50"/>
      </g>
     </g>
    </g>
    <g id="xtick_64">
     <g id="line2d_93">
      <g>
       <use xlink:href="#mb7f13f2daa" x="472.875" y="520.32375" style="fill: #262626; stroke: #262626; stroke-width: 1.25"/>
      </g>
     </g>
     <g id="text_41">
      <!-- 22 -->
      <g style="fill: #262626" transform="translate(464.875 540.93375) scale(0.16 -0.16)">
       <use xlink:href="#TimesNewRomanPSMT-32"/>
       <use xlink:href="#TimesNewRomanPSMT-32" x="50"/>
      </g>
     </g>
    </g>
    <g id="xtick_65">
     <g id="line2d_94">
      <g>
       <use xlink:href="#mb7f13f2daa" x="510.255" y="520.32375" style="fill: #262626; stroke: #262626; stroke-width: 1.25"/>
      </g>
     </g>
     <g id="text_42">
      <!-- 0 -->
      <g style="fill: #262626" transform="translate(506.255 540.93375) scale(0.16 -0.16)">
       <use xlink:href="#TimesNewRomanPSMT-30"/>
      </g>
     </g>
    </g>
    <g id="text_43">
     <!-- 时间 -->
     <g style="fill: #262626" transform="translate(269.975 560.79375) scale(0.16 -0.16)">
      <defs>
       <path id="SimSun-95f4" d="M 2150 525 
Q 2175 1325 2175 2112 
Q 2175 2900 2150 3675 
L 2525 3450 
L 3750 3450 
L 4000 3700 
L 4325 3375 
L 4125 3200 
Q 4125 1550 4150 775 
L 3800 575 
L 3800 975 
L 2500 975 
L 2500 700 
L 2150 525 
z
M 2500 3300 
L 2500 2325 
L 3800 2325 
L 3800 3300 
L 2500 3300 
z
M 2500 2175 
L 2500 1125 
L 3800 1125 
L 3800 2175 
L 2500 2175 
z
M 1275 5200 
Q 1850 4825 1950 4675 
Q 2050 4525 2050 4425 
Q 2050 4275 1950 4137 
Q 1850 4000 1825 4000 
Q 1750 4000 1675 4275 
Q 1550 4650 1200 5125 
L 1275 5200 
z
M 1125 425 
Q 1125 25 1150 -375 
L 750 -525 
Q 775 -150 775 1950 
Q 775 4050 750 4425 
L 1350 4125 
L 1125 3975 
L 1125 425 
z
M 4225 125 
Q 5025 0 5125 37 
Q 5225 75 5225 250 
L 5225 4450 
L 3225 4450 
Q 2900 4450 2625 4375 
L 2400 4600 
L 5175 4600 
L 5425 4850 
L 5775 4500 
L 5575 4350 
L 5575 225 
Q 5575 -100 5462 -250 
Q 5350 -400 5000 -550 
Q 4800 -125 4225 25 
L 4225 125 
z
" transform="scale(0.015625)"/>
      </defs>
      <use xlink:href="#SimSun-65f6"/>
      <use xlink:href="#SimSun-95f4" x="100"/>
     </g>
    </g>
   </g>
   <g id="matplotlib.axis_14">
    <g id="ytick_18">
     <g id="line2d_95">
      <g>
       <use xlink:href="#m9bb2c31fcc" x="61.695" y="498.188" style="fill: #262626; stroke: #262626; stroke-width: 1.25"/>
      </g>
     </g>
     <g id="text_44">
      <!-- 0 -->
      <g style="fill: #262626" transform="translate(44.195 503.743) scale(0.16 -0.16)">
       <use xlink:href="#TimesNewRomanPSMT-30"/>
      </g>
     </g>
    </g>
    <g id="ytick_19">
     <g id="line2d_96">
      <g>
       <use xlink:href="#m9bb2c31fcc" x="61.695" y="453.9165" style="fill: #262626; stroke: #262626; stroke-width: 1.25"/>
      </g>
     </g>
     <g id="text_45">
      <!-- 10 -->
      <g style="fill: #262626" transform="translate(36.195 459.4715) scale(0.16 -0.16)">
       <use xlink:href="#TimesNewRomanPSMT-31"/>
       <use xlink:href="#TimesNewRomanPSMT-30" x="50"/>
      </g>
     </g>
    </g>
    <g id="text_46">
     <!-- 功率$\mathrm{(kW)}$ -->
     <g style="fill: #262626" transform="translate(29.315 520.000125) rotate(-90) scale(0.16 -0.16)">
      <use xlink:href="#SimSun-529f" transform="translate(0 0.96875)"/>
      <use xlink:href="#SimSun-7387" transform="translate(100 0.96875)"/>
      <use xlink:href="#STIXGeneral-Regular-28" transform="translate(200 0.96875)"/>
      <use xlink:href="#STIXGeneral-Regular-6b" transform="translate(233.299988 0.96875)"/>
      <use xlink:href="#STIXGeneral-Regular-57" transform="translate(283.299973 0.96875)"/>
      <use xlink:href="#STIXGeneral-Regular-29" transform="translate(377.699966 0.96875)"/>
     </g>
    </g>
   </g>
   <g id="line2d_97">
    <path d="M 61.695 479.155682 
L 66.3675 478.903335 
L 71.04 479.328341 
L 75.7125 482.680002 
L 80.385 478.994357 
L 85.0575 484.738807 
L 89.73 485.787552 
L 94.4025 485.991201 
L 99.075 469.71132 
L 103.7475 484.551773 
L 108.42 480.213771 
L 113.0925 474.064459 
L 117.765 492.098946 
L 122.4375 486.022191 
L 127.11 480.686668 
L 131.7825 474.794939 
L 136.455 483.760099 
L 141.1275 475.255363 
L 145.8 485.552321 
L 150.4725 487.946342 
L 155.145 488.743881 
L 159.8175 481.77305 
L 164.49 483.720074 
L 169.1625 493.242873 
L 173.835 485.654738 
L 178.5075 496.13823 
L 183.18 496.160365 
L 187.8525 494.8942 
L 192.525 496.098385 
L 197.1975 496.217918 
L 201.87 496.846574 
L 206.5425 497.245017 
L 211.215 497.036941 
L 215.8875 490.639709 
L 220.56 482.360939 
L 225.2325 491.241802 
L 229.905 500.286469 
L 234.5775 507.249341 
L 239.25 497.412012 
L 243.9225 503.031302 
L 248.595 505.103208 
L 253.2675 491.777487 
L 257.94 500.189072 
L 262.6125 507.861323 
L 267.285 490.06418 
L 271.9575 504.470126 
L 276.63 496.771312 
L 281.3025 512.531966 
L 285.975 495.279362 
L 290.6475 510.495477 
L 295.32 513.439532 
L 299.9925 513.607763 
L 304.665 495.606972 
L 309.3375 505.284721 
L 314.01 503.53157 
L 318.6825 502.393792 
L 323.355 513.492658 
L 328.0275 513.342134 
L 332.7 494.610863 
L 337.3725 497.709868 
L 342.045 511.788205 
L 346.7175 504.023075 
L 351.39 486.780877 
L 356.0625 505.205033 
L 360.735 501.835972 
L 365.4075 505.714155 
L 370.08 486.394072 
L 374.7525 494.535509 
L 379.425 494.920764 
L 384.0975 493.721006 
L 388.77 492.636354 
L 393.4425 490.968191 
L 398.115 489.900376 
L 402.7875 488.674055 
L 407.46 488.054254 
L 412.1325 485.651686 
L 416.805 485.260906 
L 421.4775 485.800835 
L 426.15 485.021353 
L 430.8225 481.280715 
L 435.495 468.539377 
L 440.1675 477.967186 
L 444.84 461.141609 
L 449.5125 464.280458 
L 454.185 468.707608 
L 458.8575 474.551446 
L 463.53 485.495361 
L 468.2025 480.435128 
L 472.875 493.149903 
L 477.5475 480.165072 
L 482.22 495.589263 
L 486.8925 478.726249 
L 491.565 496.16922 
L 496.2375 479.045003 
L 500.91 495.474157 
L 505.5825 489.472869 
" clip-path="url(#pdab4935e18)" style="fill: none; stroke: #4c72b0; stroke-width: 2; stroke-linecap: round"/>
   </g>
   <g id="line2d_98">
    <path d="M 61.695 479.155682 
L 66.3675 478.903335 
L 71.04 479.328341 
L 75.7125 492.724897 
L 80.385 483.600541 
L 85.0575 487.208668 
L 89.73 496.412713 
L 94.4025 496.616362 
L 99.075 480.160645 
L 103.7475 494.681697 
L 108.42 490.838931 
L 113.0925 484.68962 
L 117.765 496.107239 
L 122.4375 496.647352 
L 127.11 489.860531 
L 131.7825 485.420099 
L 136.455 489.572766 
L 141.1275 485.880523 
L 145.8 496.098385 
L 150.4725 496.492402 
L 155.145 496.651779 
L 159.8175 491.467586 
L 164.49 483.720074 
L 169.1625 493.242873 
L 173.835 485.654738 
L 178.5075 496.13823 
L 183.18 496.160365 
L 187.8525 494.8942 
L 192.525 496.098385 
L 197.1975 496.217918 
L 201.87 496.846574 
L 206.5425 497.245017 
L 211.215 497.036941 
L 215.8875 490.639709 
L 220.56 482.360939 
L 225.2325 491.241802 
L 229.905 500.286469 
L 234.5775 503.868033 
L 239.25 501.158618 
L 243.9225 503.031302 
L 248.595 505.103208 
L 253.2675 491.777487 
L 257.94 500.189072 
L 262.6125 507.861323 
L 267.285 490.06418 
L 271.9575 504.470126 
L 276.63 496.771312 
L 281.3025 512.531966 
L 285.975 495.279362 
L 290.6475 510.495477 
L 295.32 513.439532 
L 299.9925 513.607763 
L 304.665 495.606972 
L 309.3375 505.284721 
L 314.01 503.53157 
L 318.6825 502.393792 
L 323.355 513.492658 
L 328.0275 513.342134 
L 332.7 494.610863 
L 337.3725 497.709868 
L 342.045 511.788205 
L 346.7175 499.941151 
L 351.39 491.303782 
L 356.0625 505.205033 
L 360.735 501.835972 
L 365.4075 505.714155 
L 370.08 486.394072 
L 374.7525 485.0615 
L 379.425 484.295603 
L 384.0975 483.095846 
L 388.77 482.011194 
L 393.4425 481.006231 
L 398.115 479.275215 
L 402.7875 478.048895 
L 407.46 477.429094 
L 412.1325 475.826465 
L 416.805 475.999124 
L 421.4775 475.175674 
L 426.15 474.830357 
L 430.8225 470.655554 
L 435.495 457.914216 
L 440.1675 470.899047 
L 444.84 461.141609 
L 449.5125 464.280458 
L 454.185 468.707608 
L 458.8575 474.551446 
L 463.53 485.495361 
L 468.2025 480.435128 
L 472.875 493.149903 
L 477.5475 480.165072 
L 482.22 495.589263 
L 486.8925 478.726249 
L 491.565 496.16922 
L 496.2375 479.045003 
L 500.91 495.474157 
L 505.5825 493.189748 
" clip-path="url(#pdab4935e18)" style="fill: none; stroke: #dd8452; stroke-width: 2; stroke-linecap: round"/>
   </g>
   <g id="patch_39">
    <path d="M 61.695 520.32375 
L 61.695 453.9165 
" style="fill: none; stroke: #262626; stroke-width: 1.25; stroke-linejoin: miter; stroke-linecap: square"/>
   </g>
   <g id="patch_40">
    <path d="M 510.255 520.32375 
L 510.255 453.9165 
" style="fill: none; stroke: #262626; stroke-width: 1.25; stroke-linejoin: miter; stroke-linecap: square"/>
   </g>
   <g id="patch_41">
    <path d="M 61.695 520.32375 
L 510.255 520.32375 
" style="fill: none; stroke: #262626; stroke-width: 1.25; stroke-linejoin: miter; stroke-linecap: square"/>
   </g>
   <g id="patch_42">
    <path d="M 61.695 453.9165 
L 510.255 453.9165 
" style="fill: none; stroke: #262626; stroke-width: 1.25; stroke-linejoin: miter; stroke-linecap: square"/>
   </g>
  </g>
  <g id="axes_10">
   <g id="matplotlib.axis_15">
    <g id="ytick_20">
     <g id="line2d_99">
      <g>
       <use xlink:href="#m3f1b004b15" x="510.255" y="520.32375" style="fill: #262626; stroke: #262626; stroke-width: 1.25"/>
      </g>
     </g>
     <g id="text_47">
      <!-- 0.0 -->
      <g style="fill: #262626" transform="translate(519.755 525.87875) scale(0.16 -0.16)">
       <use xlink:href="#TimesNewRomanPSMT-30"/>
       <use xlink:href="#TimesNewRomanPSMT-2e" x="50"/>
       <use xlink:href="#TimesNewRomanPSMT-30" x="75"/>
      </g>
     </g>
    </g>
    <g id="ytick_21">
     <g id="line2d_100">
      <g>
       <use xlink:href="#m3f1b004b15" x="510.255" y="464.984375" style="fill: #262626; stroke: #262626; stroke-width: 1.25"/>
      </g>
     </g>
     <g id="text_48">
      <!-- 0.5 -->
      <g style="fill: #262626" transform="translate(519.755 470.539375) scale(0.16 -0.16)">
       <use xlink:href="#TimesNewRomanPSMT-30"/>
       <use xlink:href="#TimesNewRomanPSMT-2e" x="50"/>
       <use xlink:href="#TimesNewRomanPSMT-35" x="75"/>
      </g>
     </g>
    </g>
    <g id="text_49">
     <!-- 分时电价$\mathrm{(\$)}$ -->
     <g style="fill: #262626" transform="translate(556.875 528.480125) rotate(-90) scale(0.16 -0.16)">
      <use xlink:href="#SimSun-5206" transform="translate(0 0.359375)"/>
      <use xlink:href="#SimSun-65f6" transform="translate(100 0.359375)"/>
      <use xlink:href="#SimSun-7535" transform="translate(200 0.359375)"/>
      <use xlink:href="#SimSun-4ef7" transform="translate(300 0.359375)"/>
      <use xlink:href="#STIXGeneral-Regular-28" transform="translate(400 0.359375)"/>
      <use xlink:href="#STIXGeneral-Regular-24" transform="translate(433.299988 0.359375)"/>
      <use xlink:href="#STIXGeneral-Regular-29" transform="translate(483.299973 0.359375)"/>
     </g>
    </g>
   </g>
   <g id="line2d_101">
    <path d="M 61.695 507.0423 
L 206.5425 507.0423 
L 206.5425 489.3337 
L 318.6825 489.3337 
L 318.6825 467.19795 
L 430.8225 467.19795 
L 430.8225 489.3337 
L 505.5825 489.3337 
L 505.5825 489.3337 
" clip-path="url(#pdab4935e18)" style="fill: none; stroke-dasharray: 7.4,3.2; stroke-dashoffset: 0; stroke: #2e8b57; stroke-opacity: 0.9; stroke-width: 2"/>
   </g>
   <g id="patch_43">
    <path d="M 61.695 520.32375 
L 61.695 453.9165 
" style="fill: none; stroke: #262626; stroke-width: 1.25; stroke-linejoin: miter; stroke-linecap: square"/>
   </g>
   <g id="patch_44">
    <path d="M 510.255 520.32375 
L 510.255 453.9165 
" style="fill: none; stroke: #262626; stroke-width: 1.25; stroke-linejoin: miter; stroke-linecap: square"/>
   </g>
   <g id="patch_45">
    <path d="M 61.695 520.32375 
L 510.255 520.32375 
" style="fill: none; stroke: #262626; stroke-width: 1.25; stroke-linejoin: miter; stroke-linecap: square"/>
   </g>
   <g id="patch_46">
    <path d="M 61.695 453.9165 
L 510.255 453.9165 
" style="fill: none; stroke: #262626; stroke-width: 1.25; stroke-linejoin: miter; stroke-linecap: square"/>
   </g>
   <g id="text_50">
    <!-- 住宅_E -->
    <g style="fill: #262626" transform="translate(264.975 447.9165) scale(0.14 -0.14)">
     <defs>
      <path id="SimSun-45" d="M 200 4225 
L 200 4375 
L 2650 4375 
L 2925 3525 
L 2800 3475 
Q 2600 3850 2375 4037 
Q 2150 4225 1875 4225 
L 1175 4225 
Q 1075 4225 1012 4175 
Q 950 4125 950 4025 
L 950 2475 
L 1675 2475 
Q 1925 2475 2037 2600 
Q 2150 2725 2150 2975 
L 2150 3125 
L 2300 3125 
L 2300 1650 
L 2150 1650 
L 2150 1750 
Q 2150 2025 2037 2175 
Q 1925 2325 1675 2325 
L 950 2325 
L 950 450 
Q 950 350 1012 300 
Q 1075 250 1175 250 
L 1825 250 
Q 2200 250 2462 462 
Q 2725 675 2875 1125 
L 3000 1075 
L 2725 100 
L 175 100 
L 175 250 
L 325 250 
Q 450 250 500 300 
Q 550 350 550 450 
L 550 4025 
Q 550 4125 500 4175 
Q 450 4225 325 4225 
L 200 4225 
z
" transform="scale(0.015625)"/>
     </defs>
     <use xlink:href="#SimSun-4f4f"/>
     <use xlink:href="#SimSun-5b85" x="100"/>
     <use xlink:href="#SimSun-5f" x="200"/>
     <use xlink:href="#SimSun-45" x="250"/>
    </g>
   </g>
  </g>
 </g>
 <defs>
  <clipPath id="p67b6059934">
   <rect x="61.695" y="30.4575" width="448.56" height="66.40725"/>
  </clipPath>
  <clipPath id="pb68ada3546">
   <rect x="61.695" y="136.32225" width="448.56" height="66.40725"/>
  </clipPath>
  <clipPath id="p16deb2e21f">
   <rect x="61.695" y="242.187" width="448.56" height="66.40725"/>
  </clipPath>
  <clipPath id="p8ae640db78">
   <rect x="61.695" y="348.05175" width="448.56" height="66.40725"/>
  </clipPath>
  <clipPath id="pdab4935e18">
   <rect x="61.695" y="453.9165" width="448.56" height="66.40725"/>
  </clipPath>
 </defs>
</svg>
